 
<svg xmlns="http://www.w3.org/2000/svg" version="1.1" xmlns:xlink="http://www.w3.org/1999/xlink" viewBox="0 0 324.8 325.2">
  <defs>
    <style>
      .cls-1 {
        fill: url(#linear-gradient-2);
      }

      .cls-2 {
        fill: #fff;
      }

      .cls-3 {
        fill: url(#linear-gradient-4);
      }

      .cls-4 {
        fill: url(#linear-gradient-3);
      }

      .cls-5 {
        fill: url(#linear-gradient-5);
      }

      .cls-6 {
        fill: #03203a;
      }

      .cls-7 {
        fill: url(#linear-gradient-6);
      }

      .cls-8 {
        fill: #cee9f2;
      }

      .cls-9 {
        fill: url(#linear-gradient);
      }
    </style>
    <linearGradient id="linear-gradient" x1="119.2" y1="267.5" x2="162.5" y2="307.3" gradientUnits="userSpaceOnUse">
      <stop offset="0" stop-color="#355a8a"/>
      <stop offset="1" stop-color="#408bc0"/>
    </linearGradient>
    <linearGradient id="linear-gradient-2" x1="157.3" y1="301.8" x2="228" y2="244.9" gradientUnits="userSpaceOnUse">
      <stop offset=".2" stop-color="#d5c8eb"/>
      <stop offset=".9" stop-color="#bc90d7"/>
    </linearGradient>
    <linearGradient id="linear-gradient-3" x1="31.9" y1="194.9" x2="63.7" y2="116.5" gradientUnits="userSpaceOnUse">
      <stop offset="0" stop-color="#355a8a"/>
      <stop offset="1" stop-color="#3f88bd"/>
    </linearGradient>
    <linearGradient id="linear-gradient-4" x1="52.9" y1="103.8" x2="140.9" y2="33" gradientUnits="userSpaceOnUse">
      <stop offset="0" stop-color="#e1eefb"/>
      <stop offset=".8" stop-color="#a8b5e6"/>
    </linearGradient>
    <linearGradient id="linear-gradient-5" x1="297.9" y1="205.9" x2="258.4" y2="108.9" gradientUnits="userSpaceOnUse">
      <stop offset=".2" stop-color="#ba8bd5"/>
      <stop offset="1" stop-color="#d6caec"/>
    </linearGradient>
    <linearGradient id="linear-gradient-6" x1="215" y1="66.9" x2="272.9" y2="88.1" gradientUnits="userSpaceOnUse">
      <stop offset="0" stop-color="#a7b4e5"/>
      <stop offset=".6" stop-color="#ccd9f3"/>
      <stop offset="1" stop-color="#e1eefb"/>
    </linearGradient>
  </defs>
  <!-- Generator: Adobe Illustrator 28.6.0, SVG Export Plug-In . SVG Version: 1.2.0 Build 709)  -->
  <g>
    <g id="Layer_1">
      <g>
        <circle class="cls-2" cx="70.3" cy="228" r="34"/>
        <circle class="cls-2" cx="163.2" cy="46.8" r="34"/>
        <circle class="cls-2" cx="256.8" cy="228" r="34"/>
        <path class="cls-9" d="M153.6,316.9c-31.8-.6-62-13.6-86-31.7-2.9-1.8-3.6-5.7.5-6.4,29.3,1.1,54.3-23.9,53-53.2.2-3,3.3-3.6,5.5-2.1,7.3,4.2,15.4,7.2,23.9,8.7.9.1,2,.5,2.5,1.1.5.5.6.8.7,1.3.8,4.1,7.9,32.4,10.2,43.5-.6,3.5-9.3,35.3-10.3,38.8h0Z"/>
        <path class="cls-1" d="M164.4,317.1c-.6-.3-1.1-.7-1.5-1.2-.7-1-.4-1.4,0-2.8,1.7-6.2,3.8-14.2,5.6-20.8.9-3.4,2.3-8.4,3.1-11.4.4-1.3.7-2.9.3-4.3-3-12.8-7.1-30-10.1-42.5-.2-.6,0-.8.9-.8.8,0,2.1,0,3.1,0,12.3-.5,23.8-4,33.9-9.9,1.2-.7,2.9-1.4,4.2-.9,1.2.4,1.8,1.6,1.9,3-.8,28,20.9,52.2,49.1,53.3,5.6-.4,8.2,3.2,3,7-25.8,19.2-58.7,32.5-93.2,31.5h-.2Z"/>
        <path class="cls-4" d="M56.7,111.4c8.4,3.2,21.7,6.6,30.9,9.6,2.1.6,4.1,1.2,6.1,1.8,2.2.7,3.8,1.1,4.3,2.4.8,2.5-.8,5.9-1.8,8.5-3.4,8.4-5.2,17.7-5.2,27.2,0,3.3.2,6.6.6,9.8.4,2.5.9,6.5-.8,8-2.8,2.4-7.4,0-10.8-.4-23.7-4.8-48.5,9.2-57.1,31.1-1,2.5-3,7-6,5.6-1.7-.8-3-3.6-3.6-5.7C.8,171.2,4.3,125,22.8,89.3c2.3-4.2,4.9-7.3,8.6-2.8,4.9,4.9,16.9,17.1,21.4,21.6,1.2,1.2,2.4,2.4,3.8,3.2h0Z"/>
        <path class="cls-3" d="M104.2,118.1c-.6.4-1,.2-1.5,0-5.3-1.8-32-9.2-42.7-12.9-4.3-3.7-23.9-23.9-27.9-27.6-.4-.4-.8-.7-.8-1.4C50.2,44.4,82.7,21.2,118.8,10.3c2.5-.8,5.7.1,5,3.2-.4,1.7-1.7,3-2.7,4.5-1.4,2-2.6,4.1-3.7,6.3-11,21.7-4.1,49.7,15.7,63.9,3.3,2.3,3.5,5.3-.4,7.1-10.4,4.9-19.5,12.1-26.6,21-.5.7-1.3,1.5-1.9,1.9h0Z"/>
        <path class="cls-5" d="M304.1,93.1c18,35,20.3,79.5,7.8,117-.5,1.7-1.7,3.9-3.6,3.9-2,0-3.1-2.4-3.7-4.1-9.5-26-40.3-39.8-66.6-29.6-5.5,1-4.1-4.7-3.5-8.1,1.3-8.3,1.1-17.3-.5-25.5-.6-2.8-1.3-5.5-2.1-8.2-.6-1.8-1.2-4,.1-5.6,7.6-7.3,28.3-26.7,32.3-30.5.6-.5,1-.8,1.8-1.1,8.6-2.4,29.6-7.9,34.9-9.3,1.2-.4,2.1-.2,3.1.9h.1Z"/>
        <path class="cls-7" d="M260.9,95.4c-8.4,7.4-27.9,26.5-32.1,30-1.7.9-3.6-1-4.4-2.6-7.7-12.5-19.2-21.9-32.4-28.3-2.7-1.8-1.7-4.6.7-6.2,15.8-11.4,24-32,20.1-51.1-1.1-5.6-3.1-11.1-6-16-1.2-2.9-6.5-7.1-4-10.2,1-1,2.4-1,3.9-.7,38,11,70.2,36.2,90.4,69.2,1.3,1.8,2.4,5.3-.4,5.9-5.7,1.8-30.9,7.6-35.9,10h0Z"/>
        <path class="cls-8" d="M256.8,194.8c18.3,0,33.2,14.9,33.2,33.2s-14.9,33.2-33.2,33.2-33.2-14.9-33.2-33.2,14.9-33.2,33.2-33.2M256.8,184.8c-23.8,0-43.2,19.3-43.2,43.2s19.3,43.2,43.2,43.2,43.2-19.3,43.2-43.2-19.3-43.2-43.2-43.2h0Z"/>
        <path class="cls-8" d="M70.3,194.8c18.3,0,33.2,14.9,33.2,33.2s-14.9,33.2-33.2,33.2-33.2-14.9-33.2-33.2,14.9-33.2,33.2-33.2M70.3,184.8c-23.8,0-43.2,19.3-43.2,43.2s19.3,43.2,43.2,43.2,43.2-19.3,43.2-43.2-19.3-43.2-43.2-43.2h0Z"/>
        <path class="cls-8" d="M163.2,13.6c18.3,0,33.2,14.9,33.2,33.2s-14.9,33.2-33.2,33.2-33.2-14.9-33.2-33.2,14.9-33.2,33.2-33.2M163.2,3.6c-23.8,0-43.2,19.3-43.2,43.2s19.3,43.2,43.2,43.2,43.2-19.3,43.2-43.2S187.1,3.6,163.2,3.6h0Z"/>
        <path class="cls-6" d="M275.8,228c0-.8-.2-1.5-.5-2.3-1.1-8.5-8.1-15.1-16.8-16-.5-.1-.9-.2-1.4-.2s-.7,0-1.1.1c-10.1.3-18.2,8.5-18.2,18.4s8.4,18.4,18.8,18.4,17.6-7.2,18.7-16.4c.3-.7.5-1.4.5-2.2h0v.2ZM263.6,219.3c-1.8-.3-3.7-.5-5.6-.6v-7.2h.2c2.3.7,4.3,3.7,5.5,7.7h-.1ZM273.6,227.3h-7c0-2-.2-3.9-.5-5.6,3.7,1.1,6.4,2.7,7.5,4.6v1ZM264.7,227.3h-6.8v-6.8c2.2,0,4.2.3,6.1.7.4,1.9.6,3.9.7,6.1h0ZM256.1,211.5v7.2c-2,0-3.9.2-5.6.5,1.2-4.2,3.3-7.2,5.6-7.8h0ZM256.1,220.5v6.8h-6.8c0-2.2.3-4.2.7-6.1,1.9-.4,4-.6,6.1-.7h0ZM247.5,227.3h-7.5c.6-2.4,3.7-4.4,8-5.7-.3,1.8-.5,3.7-.6,5.7h.1ZM247.5,229c0,1.9.3,3.7.6,5.4-4.2-1.2-7.3-3.2-8-5.4h7.4ZM249.3,229h6.8v6.6c-2.1,0-4.2-.3-6.1-.7-.4-1.8-.7-3.8-.7-5.9h0ZM256.1,237.4v7c-2.3-.6-4.4-3.5-5.6-7.6,1.7.3,3.6.5,5.6.5h0ZM257.9,244.4v-7.1c2,0,3.8-.2,5.6-.6-1.2,4.1-3.3,7-5.6,7.6h0ZM257.9,235.6v-6.6h6.8c0,2.1-.3,4.1-.7,5.9-1.9.4-3.9.6-6.1.7h0ZM266.5,229h7v.7c-1,1.9-3.8,3.6-7.6,4.7.3-1.7.5-3.5.6-5.4ZM272.7,222.9c-1.8-1.4-4.2-2.4-7.2-3.2-.8-3-2-5.6-3.4-7.3,5,1.7,8.9,5.6,10.6,10.5ZM252.2,212c-1.6,1.8-2.9,4.4-3.7,7.6-3.6.9-6.5,2.3-8.3,4.1,1.6-5.7,6.2-10.2,12.1-11.8h-.1ZM240.1,232.2c1.8,1.8,4.8,3.3,8.5,4.2.9,3.5,2.4,6.3,4.2,8-6.2-1.4-11.2-6.2-12.7-12.2ZM261.6,244.1c1.7-1.7,3-4.4,3.9-7.7,3-.7,5.5-1.9,7.3-3.3-1.7,5.2-5.9,9.4-11.2,11h0Z"/>
        <path class="cls-6" d="M165.6,65.7h-4.9c-1.2,0-2.1-.9-2.1-2.1v-1.6c-1.1-.3-2.1-.7-3-1.2l-1.1,1.1c-.4.4-.9.6-1.5.6s-1.1-.2-1.5-.6l-3.4-3.4c-.4-.4-.6-.9-.6-1.5s.2-1.1.6-1.5l1.1-1.1c-.5-1-.9-2-1.2-3.1h-1.6c-1.2,0-2.1-.9-2.1-2.1v-4.9c0-1.2.9-2.1,2.1-2.1h1.6c.3-1.1.8-2.1,1.3-3.1l-1.1-1.1c-.4-.4-.6-.9-.6-1.5s.2-1.1.6-1.5l3.4-3.4c.4-.4.9-.6,1.5-.6s1.1.2,1.5.6l1.1,1.1c.9-.5,2-.9,3-1.2v-1.6c0-1.2.9-2.1,2.1-2.1h4.9c1.2,0,2.1.9,2.1,2.1v1.6c1.1.3,2.1.8,3,1.2l1.2-1.2c.4-.4.9-.6,1.5-.6s1.1.2,1.5.6l3.4,3.4c.9.9.9,2.2,0,3l-1.2,1.2c.5.9.9,2,1.2,3h1.6c1.2,0,2.1.9,2.1,2.1v4.9c0,1.2-.9,2.1-2.1,2.1h-1.6c-.3,1-.7,2-1.2,3l1.2,1.2c.9.9.9,2.2,0,3l-3.4,3.4c-.4.4-.9.6-1.5.6s-1.1-.2-1.5-.6l-1.1-1.1c-1,.5-2,.9-3.1,1.2v1.6c0,1.2-.9,2.1-2.1,2.1h0ZM155.4,58.7c.2,0,.3,0,.5.2,0,0,.2,0,.2.2,1.2.6,2.3,1.2,3.7,1.5.4,0,.7.5.7.9v2.3c0,.2.2.3.3.3h4.9c.2,0,.3-.2.3-.3v-2.3c0-.4.3-.8.7-.9h.2c1.2-.3,2.5-.9,3.6-1.6.4-.2.8-.2,1.1.2l1.6,1.6c0,0,.2,0,.2,0s.2,0,.2,0l3.4-3.4c.2-.2.2-.3,0-.5l-1.6-1.6c-.3-.3-.3-.8-.2-1.1,0,0,0-.2.2-.2.6-1.2,1.2-2.3,1.5-3.6,0-.4.5-.7.9-.7h2.3c.2,0,.3-.2.3-.3v-4.9c0-.2-.2-.3-.3-.3h-2.3c-.4,0-.8-.3-.9-.7v-.3c-.3-1.2-.9-2.4-1.5-3.6-.2-.4-.2-.8.2-1.1l1.6-1.6c.2-.2.2-.3,0-.5l-3.4-3.4c0,0-.2,0-.2,0s-.2,0-.2,0l-1.6,1.6c-.3.3-.8.3-1.1.2,0,0-.2,0-.3-.2-1.1-.6-2.3-1.2-3.6-1.5-.4,0-.7-.5-.7-.9v-2.3c0-.2-.2-.3-.3-.3h-4.9c-.2,0-.3.2-.3.3v2.3c0,.4-.3.8-.7.9-1.3.3-2.7.9-3.8,1.6-.4.2-.8.2-1.1-.2l-1.6-1.6c0,0-.2,0-.2,0s-.2,0-.2,0l-3.4,3.4c0,0,0,.2,0,.2s0,.2,0,.2l1.6,1.6c.3.3.3.8.2,1.1,0,0-.2.2-.2.3-.6,1.2-1.2,2.3-1.5,3.6,0,.4-.5.7-.9.7h-2.3c-.2,0-.3.2-.3.3v4.9c0,.2.2.3.3.3h2.3c.4,0,.8.3.9.7.3,1.4.9,2.7,1.6,3.9.2.4.2.8-.2,1.1l-1.6,1.6c-.2.2-.2.3,0,.5l3.4,3.4c0,0,.2,0,.2,0s.2,0,.2,0l1.6-1.6c.2-.2.4-.2.6-.2h0l-.2-.2ZM163.1,52.4c-3.2,0-5.8-2.6-5.8-5.8s2.6-5.8,5.8-5.8,5.8,2.6,5.8,5.8-2.6,5.8-5.8,5.8ZM163.1,42.6c-2.2,0-4,1.8-4,4s1.8,4,4,4,4-1.8,4-4-1.8-4-4-4ZM163.1,55.8c-5.1,0-9.1-4.1-9.1-9.1s4.1-9.1,9.1-9.1,9.1,4.1,9.1,9.1-4.1,9.1-9.1,9.1ZM163.1,39.3c-4.1,0-7.3,3.3-7.3,7.3s3.3,7.3,7.3,7.3,7.3-3.3,7.3-7.3-3.3-7.3-7.3-7.3h0Z"/>
        <path class="cls-6" d="M67,231.2h0v11.1h-11.1v-11.1h11.1ZM67,229.7h-11.1c-.8,0-1.6.7-1.6,1.6v11.1c0,.8.7,1.6,1.6,1.6h11.1c.8,0,1.6-.7,1.6-1.6v-11.1c0-.8-.7-1.6-1.6-1.6ZM70.4,228.6c-.2,0-.4,0-.5-.2-.3-.3-.3-.8,0-1l8.9-8.9c.3-.3.8-.3,1,0,.3.3.3.8,0,1l-8.9,8.9c-.1.1-.3.2-.5.2h0ZM80,226.4c-.4,0-.8-.3-.8-.8v-6.6h-6.6c-.4,0-.8-.3-.8-.8s.3-.8.8-.8h8.1v8.1c0,.4-.3.8-.8.8h0ZM55.1,226.4c-.4,0-.8-.3-.8-.8v-3.6c0-.4.3-.8.8-.8s.8.3.8.8v3.6c0,.4-.3.8-.8.8ZM85.4,226.4c-.4,0-.8-.3-.8-.8v-3.6c0-.4.3-.8.8-.8s.8.3.8.8v3.6c0,.4-.3.8-.8.8ZM85.4,234.4c-.4,0-.8-.3-.8-.8v-3.6c0-.4.3-.8.8-.8s.8.3.8.8v3.6c0,.4-.3.8-.8.8ZM76.1,213.5h-3.6c-.4,0-.8-.3-.8-.8s.3-.8.8-.8h3.6c.4,0,.8.3.8.8s-.3.8-.8.8ZM76.1,243.7h-3.6c-.4,0-.8-.3-.8-.8s.3-.8.8-.8h3.6c.4,0,.8.3.8.8s-.3.8-.8.8ZM68,213.5h-3.6c-.4,0-.8-.3-.8-.8s.3-.8.8-.8h3.6c.4,0,.8.3.8.8s-.3.8-.8.8ZM55.3,216.8c-.4,0-.8-.3-.8-.8v-3.7h3.8c.4,0,.8.3.8.8s-.3.8-.8.8h-2.3v2.2c0,.4-.3.8-.8.8h0ZM85.3,216.9c-.4,0-.8-.3-.8-.8v-2.3h-2.2c-.4,0-.8-.3-.8-.8s.3-.8.8-.8h3.7v3.8c0,.4-.3.8-.8.8h0ZM86.2,243.9h-3.8c-.4,0-.8-.3-.8-.8s.3-.8.8-.8h2.3v-2.2c0-.4.3-.8.8-.8s.8.3.8.8v3.7h0Z"/>
      </g>
    </g>
  </g>
</svg>