 
<svg id="Layer_1" xmlns="http://www.w3.org/2000/svg" version="1.1" viewBox="0 0 180 180" fill="#263577">
  <path fill="inherit" d="M93.6316,83.7621V6.2582c0-3.4951,2.8334-6.3284,6.3285-6.3284h73.4971c3.4951,0,6.3285,2.8333,6.3285,6.3284v77.5038c0,3.4951-2.8334,6.3284-6.3285,6.3284h-73.4971c-3.4951,0-6.3285-2.8334-6.3285-6.3284ZM79.8305-.0702H6.3335C2.8384-.0702.005,2.7631.005,6.2582v77.5038c0,3.4951,2.8334,6.3284,6.3285,6.3284h73.4971c3.4951,0,6.3286-2.8334,6.3286-6.3284V6.2582c0-3.4951-2.8335-6.3284-6.3286-6.3284ZM79.8305,95.9202H6.3335C2.8384,95.9202.005,98.7536.005,102.2487v71.493c0,3.4951,2.8334,6.3284,6.3285,6.3284h73.4971c3.4951,0,6.3286-2.8333,6.3286-6.3284v-71.493c0-3.4951-2.8335-6.3285-6.3286-6.3285ZM176.495,134.4951h-35.4229v-34.0957c0-1.9326-1.5674-3.5-3.5-3.5s-3.5,1.5674-3.5,3.5v34.0957h-35.4219c-1.9326,0-3.5,1.5674-3.5,3.5s1.5674,3.5,3.5,3.5h35.4219v34.0957c0,1.9326,1.5674,3.5,3.5,3.5s3.5-1.5674,3.5-3.5v-34.0957h35.4229c1.9326,0,3.5-1.5674,3.5-3.5s-1.5674-3.5-3.5-3.5Z"/>
</svg>