
<svg xmlns="http://www.w3.org/2000/svg" version="1.1" viewBox="0 0 180 180" fill="#00a2fa">
  <g style="isolation: isolate;">
    <g id="Layer_1">
      <g>
        <path fill="inherit" d="M-.0828,45.2562h180.1595v121.4983c0,7.18-5.821,13-13,13H12.9172c-7.1797,0-13-5.82-13-13V45.2562Z"/>
        <path fill="#fff" d="M65.7936,84.8734h8.8623v50.0161h-7.5864v-43.0679h-.3359l-11.8828,8.6609v-7.6873l10.9428-7.9218ZM125.0477,118.6435v6.511h-6.579v9.735h-7.351v-9.735h-23.6645v-6.177l21.5505-34.1041h9.465v33.7691l6.579.001ZM111.1857,93.9701h-.403l-15.3401,24.2694v.403h15.7431v-24.6724Z"/>
        <path fill="#455055" d="M167.0837,6.2377H12.9162C5.7365,6.2377-.0837,12.0579-.0837,19.2376v22.1123h180.1675v-22.1123c0-7.1797-5.822-13-13-13ZM37.7863,32.4222c-5.2773,0-9.5552-4.2783-9.5552-9.5557s4.2778-9.5557,9.5552-9.5557,9.5557,4.2783,9.5557,9.5557-4.2778,9.5557-9.5557,9.5557ZM72.4567,32.4222c-5.2778,0-9.5562-4.2783-9.5562-9.5557s4.2783-9.5557,9.5562-9.5557,9.5552,4.2783,9.5552,9.5557-4.2778,9.5557-9.5552,9.5557ZM107.1267,32.4222c-5.278,0-9.5557-4.2783-9.5557-9.5557s4.2777-9.5557,9.5557-9.5557,9.555,4.2783,9.555,9.5557-4.278,9.5557-9.555,9.5557ZM141.7958,32.4222c-5.277,0-9.555-4.2783-9.555-9.5557s4.278-9.5557,9.555-9.5557,9.556,4.2783,9.556,9.5557-4.278,9.5557-9.556,9.5557Z"/>
        <path fill-opacity=".58" style="mix-blend-mode: multiply; isolation: isolate;" fill="#455055" d="M167.0837,6.2377H12.9162C5.7365,6.2377-.0837,12.0579-.0837,19.2376v22.1123h180.1675v-22.1123c0-7.1797-5.822-13-13-13ZM37.7863,32.4222c-5.2773,0-9.5552-4.2783-9.5552-9.5557s4.2778-9.5557,9.5552-9.5557,9.5557,4.2783,9.5557,9.5557-4.2778,9.5557-9.5557,9.5557ZM72.4567,32.4222c-5.2778,0-9.5562-4.2783-9.5562-9.5557s4.2783-9.5557,9.5562-9.5557,9.5552,4.2783,9.5552,9.5557-4.2778,9.5557-9.5552,9.5557ZM107.1267,32.4222c-5.278,0-9.5557-4.2783-9.5557-9.5557s4.2777-9.5557,9.5557-9.5557,9.555,4.2783,9.555,9.5557-4.278,9.5557-9.555,9.5557ZM141.7958,32.4222c-5.277,0-9.555-4.2783-9.555-9.5557s4.278-9.5557,9.555-9.5557,9.556,4.2783,9.556,9.5557-4.278,9.5557-9.556,9.5557Z"/>
        <g>
          <path style="isolation: isolate;" d="M41.0392.2455h-3.1313c-.0371,0-.0737.0029-.1108.0049-.0361-.002-.0732-.0049-.1099-.0049h-3.1323c-1.104,0-1.9995.8955-2,2v21.369c.0005,1.1046.8955,2,2,2h3.1323c.0366,0,.0737-.0038.1099-.0059.037.002.0737.0059.1108.0059h3.1313c1.1045,0,2-.8954,2-2V2.2455c0-1.1045-.8955-2-2-2Z"/>
          <path style="isolation: isolate;" d="M75.6985.2455h-3.1318c-.0366,0-.0737.0029-.1104.0049-.0361-.002-.0732-.0049-.1104-.0049h-3.1318c-1.104,0-1.9995.8955-2,2v21.369c.0005,1.1046.896,2,2,2h3.1318c.0371,0,.0742-.0038.1104-.0059.0366.002.0737.0059.1104.0059h3.1318c1.1045,0,2-.8954,2-2V2.2455c0-1.1045-.8955-2-2-2Z"/>
          <path style="isolation: isolate;" d="M110.3577.2455h-3.131c-.037,0-.074.0029-.111.0049-.035-.002-.073-.0049-.11-.0049h-3.131c-1.105,0-2,.8955-2,2v21.369c0,1.1046.895,2,2,2h3.131c.037,0,.074-.0038.11-.0059.037.002.0731.0059.111.0059h3.131c1.105,0,2-.8954,2-2V2.2455c0-1.1045-.895-2-2-2Z"/>
          <path style="isolation: isolate;" d="M145.0258.2455h-3.131c-.038,0-.074.0029-.111.0049-.036-.002-.073-.0049-.11-.0049h-3.132c-1.105,0-2,.8955-2,2v21.369c0,1.1046.895,2,2,2h3.132c.037,0,.073-.0038.11-.0059.037.002.073.0059.111.0059h3.131c1.105,0,2-.8954,2-2V2.2455c0-1.1045-.895-2-2-2Z"/>
        </g>
      </g>
    </g>
  </g>
</svg>