 
<svg id="Layer_1" xmlns="http://www.w3.org/2000/svg" version="1.1" viewBox="0 0 180 180" fill="#ffc930">
  <path fill="inherit" d="M90.2148,14.051c7.1796.0002,13.0002,5.8204,13.0002,13v12.1055h63.785c7.18,0,13,5.8203,13,13v100.7925c0,7.179-5.82,12.999-13,13H13c-7.1797-.001-13-5.821-13-13V27.051c0-7.1797,5.8203-13,13-13h77.2148Z"/>
  <path fill="#fff" d="M130.208,98.5282c-1.377-3.2531-3.341-6.174-5.846-8.6793-2.505-2.5054-5.422-4.4729-8.675-5.8503-2.331-.9838-4.757-1.6352-7.25-1.9413-1.818-3.0781-4.241-5.8066-7.105-7.9666-4.7658-3.5941-10.45-5.4918-16.4271-5.4918-3.6859,0-7.267.7258-10.6425,2.1511-3.2575,1.3774-6.1782,3.3493-8.6837,5.8548-2.5054,2.5054-4.4772,5.4305-5.8502,8.6836-1.4254,3.3754-2.1512,6.9566-2.1512,10.6425,0,.2449,0,.4897.0088.7302-1.7621,1.1675-3.3537,2.5929-4.7178,4.2369-3.2182,3.883-4.9889,8.802-4.9889,13.852,0,5.798,2.2562,11.25,6.3577,15.351,4.1012,4.102,9.5538,6.362,15.3515,6.362.2405,0,.4459-.004.6122-.013l34.8572.013c3.686,0,7.262-.721,10.634-2.151,3.253-1.377,6.169-3.345,8.675-5.85,2.505-2.505,4.473-5.427,5.846-8.679,1.425-3.372,2.146-6.948,2.146-10.63s-.721-7.258-2.146-10.6292l-.005.0044Z"/>
</svg>