 
<svg id="Layer_1" xmlns="http://www.w3.org/2000/svg" version="1.1" viewBox="0 0 180 180" fill="#00a2fa">
  <path fill="inherit" d="M164.0384,59.6426c-2.743-6.482-6.654-12.3004-11.647-17.2934-4.992-4.9927-10.804-8.9112-17.286-11.6566-4.642-1.9608-9.477-3.2581-14.443-3.868-3.625-6.1321-8.45-11.5692-14.157-15.8744C97.0079,3.7905,85.6821.0102,73.7747.0102c-7.3446,0-14.48,1.4458-21.2072,4.2859-6.4893,2.7428-12.3103,6.6738-17.3007,11.6639-4.9903,4.9903-8.9211,10.821-11.6568,17.303-2.8401,6.7251-4.2857,13.8605-4.2857,21.2049,0,.4884,0,.9767.017,1.4553-3.5105,2.3249-6.6838,5.165-9.4022,8.4425C3.5276,72.1013,0,81.902,0,91.965c0,11.5528,4.4947,22.4168,12.6674,30.5878,8.1706,8.173,19.0351,12.677,30.5876,12.677.4786,0,.8893-.01,1.2197-.027l69.4527.027c7.344,0,14.47-1.439,21.187-4.288,6.483-2.743,12.294-6.664,17.284-11.657,4.993-4.99,8.914-10.812,11.65-17.293,2.84-6.718,4.278-13.8438,4.278-21.1784s-1.438-14.4629-4.278-21.1781l-.01.0073Z"/>
  <path style="isolation: isolate; opacity: .45;" fill="#fff" d="M164.0384,59.6426c-2.743-6.482-6.654-12.3004-11.647-17.2934-4.992-4.9927-10.804-8.9112-17.286-11.6566-4.642-1.9608-9.477-3.2581-14.443-3.868-3.625-6.1321-8.45-11.5692-14.157-15.8744C97.0079,3.7905,85.6821.0102,73.7747.0102c-7.3446,0-14.48,1.4458-21.2072,4.2859-6.4893,2.7428-12.3103,6.6738-17.3007,11.6639-4.9903,4.9903-8.9211,10.821-11.6568,17.303-2.8401,6.7251-4.2857,13.8605-4.2857,21.2049,0,.4884,0,.9767.017,1.4553-3.5105,2.3249-6.6838,5.165-9.4022,8.4425C3.5276,72.1013,0,81.902,0,91.965c0,11.5528,4.4947,22.4168,12.6674,30.5878,8.1706,8.173,19.0351,12.677,30.5876,12.677.4786,0,.8893-.01,1.2197-.027l69.4527.027c7.344,0,14.47-1.439,21.187-4.288,6.483-2.743,12.294-6.664,17.284-11.657,4.993-4.99,8.914-10.812,11.65-17.293,2.84-6.718,4.278-13.8438,4.278-21.1784s-1.438-14.4629-4.278-21.1781l-.01.0073Z"/>
  <path  fill="#455055" d="M118.58,156.9808h6.01v16.423h-6.01v-16.423Z"/>
  <path  fill="#455055" d="M137.006,174.3448c3.097,0,5.608,2.528,5.608,5.645h-42.059c0-3.117,2.511-5.645,5.608-5.645h30.843Z"/>
  <path  fill="#fff" d="M63.1812,143.7918h116.8158v5.027H63.1812v-5.027Z"/>
  <path fill="inherit" d="M63.1695,81.2291c0-1.6704,1.3412-3.0246,2.9957-3.0246h110.8398c1.654,0,2.995,1.3542,2.995,3.0246v63.5167H63.1695v-63.5167Z"/>
  <path  fill="#455055" d="M63.1695,146.6348h116.8305v5.442c0,1.671-1.346,3.025-3.006,3.025h-110.8194c-1.6596,0-3.0051-1.354-3.0051-3.025v-5.442Z"/>
</svg>