 
<svg id="Layer_1" xmlns="http://www.w3.org/2000/svg" version="1.1" viewBox="0 0 180 180" fill="#00a2fa">
  <rect fill="none" width="180" height="180"/>
  <path fill="inherit" d="M175.417,81.4706c-2.935-6.9313-7.118-13.1547-12.456-18.4929-5.338-5.3381-11.553-9.5305-18.484-12.4652-4.965-2.0962-10.136-3.4842-15.446-4.1364-3.876-6.5588-9.038-12.3722-15.139-16.9743-10.155-7.658-22.2663-11.7011-35.0017-11.7011-7.8535,0-15.4836,1.5464-22.6758,4.5836-6.9406,2.9347-13.164,7.1363-18.5021,12.4745-5.3382,5.3381-9.5398,11.5707-12.4652,18.5021-3.037,7.1922-4.5837,14.8223-4.5837,22.6758,0,.5217,0,1.0435.0186,1.5557-3.7546,2.4875-7.1455,5.5247-10.0521,9.0275C3.7732,94.7929,0,105.2733,0,116.0343c0,12.353,4.8073,23.971,13.5458,32.709,8.7386,8.739,20.3561,13.556,32.7094,13.556.5124,0,.9502-.01,1.3041-.028l74.2687.028c7.854,0,15.475-1.538,22.658-4.584,6.931-2.935,13.146-7.128,18.484-12.465,5.337-5.338,9.53-11.562,12.456-18.493,3.037-7.183,4.574-14.804,4.574-22.648s-1.537-15.465-4.574-22.648l-.009.0094Z"/>
</svg>