 
<svg id="Layer_1" xmlns="http://www.w3.org/2000/svg" version="1.1" viewBox="0 0 180 180" fill="#0daf67">
  <g style="isolation: isolate;">
    <g>
      <path class="st5" fill="#455055" d="M164.213,78.0085h-91.2864l-15.7752,10.8294h122.7256l-15.664-10.8294Z"/>
      <path class="st4" fill="inherit" d="M74.7708,20.9802h87.4602c1.057,0,1.916.8586,1.916,1.9163v53.0219h-91.2925V22.8965c0-1.0577.8587-1.9163,1.9163-1.9163h0Z"/>
      <path class="st0" style="isolation: isolate; fill-opacity: .27;" fill="#fff" d="M164.213,78.0085h-91.2864l-15.7752,10.8294h122.7256l-15.664-10.8294Z"/>
      <path class="st3" style="isolation: isolate; fill-opacity: .58; mix-blend-mode: multiply;" fill="#455055"  d="M74.7708,20.9802h87.4602c1.057,0,1.916.8586,1.916,1.9163v53.0219h-91.2925V22.8965c0-1.0577.8587-1.9163,1.9163-1.9163h0Z"/>
      <path class="st5" fill="#455055" d="M57.1436,88.8366v1.7604h.0002c.0013.9704.7893,1.7579,1.7601,1.7579h119.2131c.9702,0,1.7584-.7875,1.7598-1.7579h.0002v-1.7604H57.1436Z"/>
      <path class="st1" fill="#fff" d="M.1367,118.1217h131.9833v5.68H.1367v-5.68Z"/>
      <path class="st5" fill="#455055" d="M62.7275,133.0238h6.7906v18.556h-6.7906s0-18.556,0-18.556Z"/>
      <path class="st5" fill="#455055" d="M83.5472,152.6428c3.4992,0,6.336,2.855,6.336,6.377h-47.5199c0-3.522,2.8367-6.377,6.336-6.377h34.8479Z"/>
      <path class="st4" fill="inherit" d="M.123,47.4365c0-1.8873,1.5154-3.4173,3.3846-3.4173h125.2314c1.869,0,3.384,1.53,3.384,3.4173v71.7632H.123V47.4365Z"/>
      <path class="st5" fill="#455055" d="M.123,121.3347h132v6.148c0,1.888-1.521,3.418-3.396,3.418H3.5183c-1.8751,0-3.3952-1.53-3.3952-3.418v-6.148h-.0001Z"/>
    </g>
  </g>
</svg>