 
<svg id="Layer_1" xmlns="http://www.w3.org/2000/svg" version="1.1" viewBox="0 0 180 180" fill="#ffc930">
  <path fill="inherit" d="M125.7384,112.9861l20.089,61.829c.185.568-.466,1.041-.949.69l-52.5948-38.213c-1.3617-.989-3.2055-.989-4.5672,0l-52.5947,38.213c-.4836.351-1.1341-.122-.9493-.69l20.0896-61.829c.5202-1.601-.0498-3.354-1.4113-4.344L.2554,70.43c-.4835-.3512-.235-1.116.3626-1.116h65.0108c1.6831,0,3.1748-1.0838,3.695-2.6845L89.4131,4.8008c.1847-.5684.9888-.5684,1.1734,0l20.0899,61.8289c.52,1.6007,2.011,2.6845,3.695,2.6845h65.01c.598,0,.847.7648.363,1.116l-52.595,38.2129c-1.361.989-1.932,2.742-1.411,4.343Z"/>
</svg>