 
<svg id="Layer_1" xmlns="http://www.w3.org/2000/svg" version="1.1" viewBox="0 0 180 180" fill="#007dc1">
  <path fill="inherit" d="M90.2148,14.051c7.1796.0002,13.0002,5.8204,13.0002,13v12.1055h63.785c7.18,0,13,5.8203,13,13v100.7924c0,7.179-5.82,13-13,13H13c-7.1797,0-13-5.821-13-13V27.051c0-7.1797,5.8203-13,13-13h77.2148Z"/>
  <path fill="#fff" d="M131.495,102.2239c-.851,3.836-2.418,6.437-4.657,7.738-1.148.663-2.374,1.004-3.644,1.004-3.798,0-7.891-3.025-11.235-8.293-1.484-2.343-2.732-4.7788-4.058-7.3538-2.838-5.5254-5.771-11.2343-11.5186-17.2007-1.6976.6197-3.3389,1.3923-4.9013,2.2957,19.2089,13.1111,21.4519,37.8758,12.3909,53.5968-2.872,4.962-6.5381,8.266-11.3477,10.164,1.3531-.104,2.7058-.274,4.0415-.511,5.6342-.99,10.9022-3.05,15.6642-6.127,4.601-2.972,8.532-6.765,11.692-11.269,3.16-4.504,5.382-9.493,6.613-14.831.742-3.212,1.099-6.472,1.074-9.746-.036.179-.075.358-.114.537v-.004ZM116.896,106.1689c1.837,1.781,4.046,3.103,6.285,3.103.96,0,1.924-.244,2.867-.799,4.819-2.837,5.967-16.1526,2.038-23.088-1.841,10.6014-8.746,18.405-11.19,20.779v.005ZM92.6205,121.6239c4.9626,0,9.3405-.511,13.7395-1.597.31-1.777.463-3.584.463-5.391-5.522,2.653-11.383,3.998-17.4277,3.998-14.3374,0-28.1511-7.878-35.191-20.0679-2.8718-4.9581-3.9017-9.7896-3.1338-14.9224-.5892,1.2263-1.1174,2.4834-1.5842,3.7623-1.9597,5.3684-2.8152,10.9637-2.5313,16.629.2705,5.469,1.5886,10.772,3.9062,15.76,2.3176,4.989,5.5255,9.41,9.5322,13.146,2.396,2.235,5.0191,4.164,7.8386,5.774-.1221-.104-.24-.213-.3624-.323-2.9023-2.653-4.3731-5.316-4.3731-7.908,0-5.351,5.2768-8.891,13.7874-9.24.6982-.031,1.4142-.044,2.1866-.044,2.0513,0,4.0807.101,6.228.206,2.2216.109,4.5173.222,6.9223.222l-.0003-.004ZM71.7536,123.7669c-3.5091,1-6.5991,3.112-6.573,6.769.0436,5.596,10.9987,13.242,18.9681,13.308-8.2315-6.892-11.5746-16.786-12.3996-20.082l.0045.005ZM77.2661,65.2866h.0087l.1353.0786c2.4354,1.4055,3.7446,3.8321,3.7841,7.0312.035,2.8108-.8903,6.0973-2.6886,9.5104-1.2921,2.466-2.776,4.7662-4.3471,7.2059-3.3649,5.2157-6.8391,10.6102-9.1393,18.5842,1.3792,1.156,2.8674,2.195,4.4386,3.099,1.7808-23.2151,22.1151-37.5351,40.2492-37.5351,5.727,0,10.427,1.5276,14.486,4.7573-.772-1.126-1.593-2.2128-2.465-3.2515-8.066-9.6456-19.916-15.1755-32.5032-15.1755-4.8664,0-9.6456.825-14.2108,2.4486-2.4791.8816-4.8578,1.9902-7.1141,3.3126,1.7066-.5805,3.5615-.9995,5.3421-.9995,1.532,0,2.8851.314,4.0241.9338ZM79.0903,75.8748c.8903-3.5396.6197-7.2799-2.575-9.0783-.8642-.4889-1.951-.7157-3.1817-.7157-5.7131,0-14.4858,4.8359-17.8292,10.4879,4.3689-1.6018,8.7683-2.1255,12.6135-2.1255,5.0409,0,9.1348.8948,10.9766,1.4271l-.0042.0045Z"/>
</svg>