 
<svg id="Layer_1" xmlns="http://www.w3.org/2000/svg" version="1.1" viewBox="0 0 180 180" fill="#a397f1">
  <path  fill="#455055" d="M156.9873,121.2805H23.1865L.0644,137.1535h179.882l-22.959-15.873h-.0001Z"/>
  <path fill="#fff" style="isolation: isolate; opacity: .27;" d="M156.9873,121.2805H23.1865L.0644,137.1535h179.882l-22.959-15.873h-.0001Z"/>
  <path fill="inherit" d="M25.8908,37.6925h128.1916c1.55,0,2.809,1.2586,2.809,2.8088v77.7152H23.082V40.5013c0-1.5502,1.2586-2.8088,2.8088-2.8088Z"/>
  <path  fill="#455055" d="M179.9463,137.1515H.0537v2.576h-.0001s.0001.0008.0001.0012v.0028h.0003c.0022,1.422,1.1572,2.576,2.5798,2.576h174.7326c1.4226,0,2.5774-1.154,2.5796-2.576h.0004v-2.58h-.0001Z"/>
</svg>