 
<svg id="Layer_1" xmlns="http://www.w3.org/2000/svg" version="1.1" viewBox="0 0 180 180" fill="#0daf67">
  <path fill="inherit" d="M89.9999,180.0001c49.3317,0,89.3217-40.294,89.3217-90.0001S139.3316,0,89.9999,0,.6784,40.2943.6784,90s39.9908,90.0001,89.3216,90.0001Z"/>
  <path fill="#fff" d="M85.1597,111.8671v-11.149c.0002-7.5957,4.2719-14.7891,11.3545-18.0095l.6426-.3066c6.3588-3.1849,10.6758-9.8241,10.4998-17.4551l-.033-.7666c-.577-9.296-8.0622-16.9177-17.3037-17.7129l-.4414-.0322c-7.4159-.4604-13.9838,3.3249-17.5069,9.1699l-.332.5723c-.63,1.1324-1.1466,2.3354-1.5361,3.5937l-.1592.543c-.5162,1.8626-2.4449,2.9544-4.3076,2.4385-1.8627-.5161-2.9545-2.4449-2.4385-4.3076l.2187-.7442c.5344-1.7261,1.2429-3.3751,2.1055-4.9258l.2236-.3925c4.7501-8.1994,13.8642-13.5731,24.1661-12.9336l.6064.0449c12.6881,1.0899,22.8991,11.4876,23.6911,24.2529l.029.5254c.459,10.8284-5.716,20.2708-14.7855,24.6026l-.4414.206c-4.4185,2.0089-7.2518,6.5996-7.252,11.6374v11.149c0,1.933-1.5672,3.5-3.5,3.5s-3.5-1.567-3.5-3.5Z"/>
  <path fill="#fff" d="M92.2542,136.4521c0,1.875-1.5201,3.395-3.3953,3.395s-3.3954-1.52-3.3954-3.395,1.5201-3.396,3.3954-3.396,3.3953,1.521,3.3953,3.396Z"/>
</svg>