 
<svg id="Layer_1" xmlns="http://www.w3.org/2000/svg" version="1.1" viewBox="0 0 180 180" fill="#000d13">
  <path fill="inherit" d="M0,13C0,5.8203,5.8203,0,13,0h154c7.18,0,13,5.8203,13,13v154c0,7.18-5.82,13-13,13H13c-7.1797,0-13-5.82-13-13V13Z"/>
  <path fill="#fff" d="M30.5234,102.617h19.0233v4.793h-6.5417v17.112h-5.9392v-17.112h-6.5423v-4.793ZM59.3375,113.974c.4162.789.899,1.639,1.4478,2.55l4.8663,7.998h6.4681v-21.905h-6.1154v8.027c0,.696.0294,1.551.088,2.565.059,1.015.125,2.044.1985,3.087.0224.3173.0414.6006.0614.8947-.1638-.4501-.3267-.8838-.4875-1.2767-.3679-.896-.7474-1.717-1.1395-2.462-.392-.745-.8134-1.49-1.2644-2.234l-5.2187-8.601h-6.4687v21.905h6.116v-7.998c0-.597-.022-1.332-.066-2.205-.0446-.872-.103-1.818-.1766-2.837-.0325-.4495-.0671-.9038-.1004-1.3555.2068.4752.4036.9258.5858,1.3405.3866.882.7887,1.718,1.2054,2.507ZM46.4545,143.454c-.7844-.446-1.7644-.733-2.9404-.86v-.147c1.3032-.147,2.3788-.615,3.2267-1.404s1.272-1.791,1.272-3.007c0-1.234-.3507-2.332-1.0514-3.293-.7009-.96-1.6738-1.715-2.9184-2.264-1.2446-.548-2.6752-.823-4.2925-.823-1.6564,0-3.1265.292-4.4104.875-1.284.583-2.2908,1.389-3.0211,2.418-.7302,1.03-1.0954,2.215-1.0954,3.558h5.7042c0-.451.1201-.845.3602-1.183.2402-.338.5735-.603.9998-.794.4263-.191.9136-.287,1.4626-.287.4999,0,.9381.093,1.3156.279.3776.187.674.442.8898.765.2154.323.3233.701.3233,1.132,0,.441-.1272.83-.3823,1.168-.2551.339-.6078.606-1.0583.802-.451.196-.9704.294-1.5584.294h-2.2348v4.116h2.2348c.6466,0,1.2131.096,1.698.287.4853.191.8623.455,1.1318.793.2696.339.4043.733.4043,1.184s-.1154.848-.3453,1.191c-.2302.343-.554.613-.9702.808-.4165.197-.8993.294-1.4481.294-.5685,0-1.0781-.092-1.5287-.279-.451-.186-.8037-.443-1.0588-.772-.2549-.3279-.3823-.7029-.3823-1.124h-5.9682c0,1.362.3797,2.568,1.1394,3.616.7593,1.049,1.808,1.8701,3.1461,2.463,1.3376.593,2.8689.889,4.5937.889,1.7939,0,3.3741-.2791,4.7412-.838,1.3671-.559,2.4377-1.335,3.212-2.33s1.1615-2.134,1.1615-3.418c0-.892-.196-1.688-.588-2.389-.392-.701-.9799-1.274-1.7639-1.72ZM59.5404,148.974l2.0582-1.705c1.6759-1.382,2.9646-2.578,3.8662-3.587.9017-1.009,1.5266-1.929,1.8746-2.757s.5219-1.663.5219-2.506c0-1.362-.3506-2.551-1.0509-3.565-.7012-1.015-1.6936-1.801-2.9773-2.36-1.2838-.559-2.8029-.838-4.5572-.838-1.6956,0-3.1754.302-4.4395.904-1.2644.603-2.2422,1.458-2.9328,2.566-.6911,1.107-1.0364,2.43-1.0364,3.969h5.6451c0-.618.115-1.137.3453-1.558.2302-.422.5537-.743.9702-.963.4166-.221.8993-.331,1.4481-.331s1.0314.108,1.4481.323c.4162.216.7447.522.9848.919.24.397.3603.875.3603,1.434,0,.519-.1053.99-.3163,1.411-.2105.421-.5123.83-.9038,1.227-.3925.397-.858.821-1.3966,1.272l-8.1741,6.762v4.264h16.818v-4.734h-8.5559v-.147ZM70.125,136.709h10.085v.117l-8.5853,17.024h6.1154l8.6444-17.141v-4.764h-16.2595v4.764ZM105.965,136.86c.765,1.676,1.147,3.6949,1.147,6.057s-.382,4.379-1.147,6.05c-.764,1.671-1.867,2.953-3.308,3.844-1.44.892-3.1798,1.338-5.2182,1.338-2.0292,0-3.7636-.446-5.2043-1.338-1.441-.891-2.5461-2.173-3.315-3.844-.7693-1.671-1.1539-3.688-1.1539-6.05s.3845-4.3831,1.1539-6.064c.769-1.681,1.874-2.967,3.315-3.859,1.4407-.892,3.1751-1.338,5.2043-1.338s3.7662.449,5.2112,1.345c1.446.897,2.551,2.183,3.315,3.859ZM100.938,142.917c0-1.3911-.135-2.567-.405-3.528-.269-.96-.664-1.69-1.1832-2.19-.5197-.5-1.1566-.75-1.9109-.75-.7452,0-1.3799.25-1.9041.75-.5246.5-.9213,1.23-1.191,2.19-.2695.961-.4039,2.137-.4039,3.528,0,1.382.132,2.551.3969,3.506.2648.956.6588,1.679,1.1834,2.169.5241.49,1.1636.735,1.9186.735.7544,0,1.3913-.245,1.9109-.735.5192-.49.9142-1.213,1.1832-2.169.27-.955.405-2.124.405-3.506ZM109.555,153.85h15.73v-4.792h-9.791v-3.941h9.027v-4.674h-9.027v-3.705h9.85v-4.793h-15.789v21.905ZM52.9997,77.0156h-23.3591v3.344h23.3591v-3.344ZM52.9997,70.6094h-23.3591v3.3557h23.3591v-3.3557ZM36.3047,67.559h10.0195v-3.3559h-10.0195v3.3559ZM46.3242,57.8047h-10.0195v3.3559h10.0195v-3.3559ZM46.3242,51.4062h-10.0195v3.3559h10.0195v-3.3559ZM46.3242,44.9844h-10.0195v3.3559h10.0195v-3.3559ZM52.9997,38.5859h-23.3591v3.3557h23.3591v-3.3557ZM52.9997,32.1875h-23.3591v3.3555h23.3591v-3.3555ZM93.5937,70.6094h-37.2578v3.3557h35.925c.6069-1.0352,1.059-2.1658,1.3328-3.3557ZM89.4686,57.8047h-26.453v3.3557h29.2494c-.7617-1.2852-1.7018-2.4156-2.7964-3.3557ZM63.0156,54.7619h26.453c1.1186-.94,2.0585-2.0706,2.7964-3.3557h-29.2494v3.3557ZM92.2611,38.5859h-35.9252v3.3557h37.2578c-.3094-1.1899-.7615-2.3203-1.3326-3.3557ZM81.2181,32.1875h-24.8822v3.3555h33.4618c-2.2372-2.0707-5.2716-3.3555-8.5796-3.3555ZM63.0156,44.9844v3.3557h10.0077v-3.3557h-10.0077ZM83.0391,44.9844v3.3557h10.4716c.2975-1.0709.4523-2.2015.4523-3.3557h-10.9239ZM63.0156,67.559h10.0077v-3.3559h-10.0077v3.3559ZM93.5107,64.2031h-10.4716v3.3557h10.9239c0-1.1542-.1548-2.2846-.4523-3.3557ZM89.8096,77.0156h-33.4737v3.3198l24.8822.0359c3.3319,0,6.3424-1.2852,8.5915-3.3557ZM113.074,77.0156h-16.6834v3.344h16.6834v-3.344ZM113.074,70.6094h-16.6834v3.3557h16.6834v-3.3557ZM103.055,67.559h10.019v-3.3559h-10.019v3.3559ZM113.074,57.8047h-10.019v3.3559h10.019v-3.3559ZM117.715,38.5859h-21.3244v3.3557h22.4784l-1.154-3.3557ZM115.501,32.1875h-19.1104v3.3555h20.2654l-1.155-3.3555ZM133.094,80.3596h16.695v-3.344h-16.695v3.344ZM133.094,70.6094v3.3557h16.695v-3.3557h-16.695ZM133.094,67.559h10.019v-3.3559h-10.019v3.3559ZM143.113,57.8047h-10.019v3.3559h10.019v-3.3559ZM143.109,54.7621v-3.3559h-19.087l-.94,2.7134-.94-2.7134h-19.087v3.3559h10.019v-3.0819l1.059,3.0819h17.897l1.059-3.0819v3.0819h10.02ZM143.106,44.9844h-16.873l-1.155,3.3559h18.028v-3.3559ZM149.781,32.1875h-19.111l-1.154,3.3555h20.265v-3.3555ZM121.922,77.0156l1.154,3.32,1.1541-3.32h-2.308ZM120.866,73.9651h4.426l1.19-3.3557h-6.7939l1.178,3.3557ZM118.616,67.559h8.924l1.178-3.3559h-11.28l1.178,3.3559ZM116.381,61.1606h13.411l1.142-3.3559h-15.707l1.1541,3.3559ZM103.055,48.3403h18.028l-1.155-3.3559h-16.873v3.3559ZM149.783,38.5859h-21.336l-1.142,3.3557h22.478v-3.3557Z"/>
</svg>