 
<svg id="Layer_1" xmlns="http://www.w3.org/2000/svg" version="1.1" viewBox="0 0 180 180" fill="#263577">
  <path fill="inherit" d="M179.5104,159.4157c.004-1.216-.436-2.393-1.238-3.308l-68.664-78.4479c-1.234-1.4095-1.557-3.3849-.967-5.1624,5.972-17.9672,2.465-38.5323-11.0181-53.7616C73.2494-8.7944,27.4373-6.2609,7.2376,29.2769-.7153,43.2688-1.6867,60.3177,4.5792,75.1422c11.4503,27.0925,38.1046,38.7555,62.4111,33.9855,1.8368-.361,3.7537.211,4.9944,1.613l21.912,24.748c.0011.001.0024.002.0039.003h0c.0013,0,.0027.001.0041.001l14.9727.117c2.747.021,4.962,2.255,4.961,5.002l-.007,17.391c0,.001,0,.002.001.003h0s.001.001.002.001l18.718-.001c2.769,0,5.011,2.252,5,5.021l-.05,11.851c-.012,2.772,2.235,5.025,5.007,5.021l31.961-.049c2.753-.004,4.985-2.232,4.993-4.984l.047-15.45ZM30.5742,48.826c-5.5017-6.2353-4.907-15.7506,1.3284-21.2523,6.2353-5.5018,15.7509-4.9074,21.2526,1.328,5.5017,6.2353,4.907,15.7506-1.3287,21.2526-6.2358,5.502-15.7502,4.9074-21.2523-1.3283Z"/>
</svg>