 
<svg id="Layer_1" xmlns="http://www.w3.org/2000/svg" version="1.1" xmlns:xlink="http://www.w3.org/1999/xlink" viewBox="0 0 180 180" fill="#a397f1">
  <defs>
    <radialGradient id="radial-gradient" cx="17.911" cy="23.2236" fx="17.911" fy="23.2236" r=".6689" gradientTransform="translate(-171.3716 -207.0755) scale(13.3977 12.6557)" gradientUnits="userSpaceOnUse">
      <stop offset="0" stop-color="#000"/>
      <stop offset="1" stop-color="#000" stop-opacity=".25"/>
    </radialGradient>
    <radialGradient id="radial-gradient1" cx="13.7094" cy="23.032" fx="13.7094" fy="23.032" r=".6689" gradientTransform="translate(-129.1042 -199.7523) scale(16.6412 12.6557)" xlink:href="#radial-gradient"/>
    <radialGradient id="radial-gradient2" cx="34.1956" cy="42.3947" fx="34.1956" fy="42.3947" r=".6689" gradientTransform="translate(-141.2702 -208.2809) scale(6.5929 7.0309)" xlink:href="#radial-gradient"/>
    <linearGradient id="linear-gradient" x1="264.55" y1="425.8191" x2="283.8586" y2="458.3208" gradientTransform="translate(-216 -304)" gradientUnits="userSpaceOnUse">
      <stop offset="0" stop-color="#b98309"/>
      <stop offset="1" stop-color="#382605"/>
    </linearGradient>
    <linearGradient id="linear-gradient1" x1="326.2771" y1="452.2482" x2="345.724" y2="420.608" gradientTransform="translate(-216 -304)" gradientUnits="userSpaceOnUse">
      <stop offset="0" stop-color="#3e2a06"/>
      <stop offset="1" stop-color="#ad780a"/>
    </linearGradient>
    <linearGradient id="linear-gradient2" x1="293.9468" y1="374.1105" x2="316.1794" y2="364.9725" gradientTransform="translate(-216 -304)" gradientUnits="userSpaceOnUse">
      <stop offset="0" stop-color="#d2940a"/>
      <stop offset=".75" stop-color="#d89c08"/>
      <stop offset=".87" stop-color="#b67e07"/>
      <stop offset="1" stop-color="#946106"/>
    </linearGradient>
    <linearGradient id="linear-gradient3" x1="292.5254" y1="366.2487" x2="315.4932" y2="366.0682" gradientTransform="translate(-216 -304)" gradientUnits="userSpaceOnUse">
      <stop offset="0" stop-color="#ad780a"/>
      <stop offset=".12" stop-color="#d89e08"/>
      <stop offset=".25" stop-color="#edb80b"/>
      <stop offset=".39" stop-color="#ebc80d"/>
      <stop offset=".53" stop-color="#f5d838"/>
      <stop offset=".77" stop-color="#f6d811"/>
      <stop offset="1" stop-color="#f5cd31"/>
    </linearGradient>
    <linearGradient id="linear-gradient4" x1="306.3832" y1="354.362" x2="316.6791" y2="354.443" gradientTransform="translate(-216 -304)" gradientUnits="userSpaceOnUse">
      <stop offset="0" stop-color="#747474"/>
      <stop offset=".13" stop-color="#8c8c8c"/>
      <stop offset=".25" stop-color="#a4a4a4"/>
      <stop offset=".5" stop-color="#d4d4d4"/>
      <stop offset=".62" stop-color="#d4d4d4"/>
      <stop offset="1" stop-color="#7c7c7c"/>
    </linearGradient>
    <linearGradient id="linear-gradient5" x1="292.5448" y1="355.6515" x2="300.3651" y2="355.7129" xlink:href="#linear-gradient4"/>
    <linearGradient id="linear-gradient6" x1="339.2891" y1="417.8404" x2="333.6607" y2="430.5185" gradientTransform="translate(-216 -304)" gradientUnits="userSpaceOnUse">
      <stop offset="0" stop-color="#110800"/>
      <stop offset="1" stop-color="#ff921e" stop-opacity="0"/>
    </linearGradient>
  </defs>
  <path fill="inherit" d="M0,13.0002C0,5.8205,5.8203.0002,13,.0002h154c7.18,0,13,5.8203,13,13v153.9996c0,7.18-5.82,13-13,13H13c-7.1797,0-13-5.82-13-13V13.0002Z"/>
  <g>
    <path fill="#000d13" d="M90.1455,29.8037c-2.8246,0-5.6491.5556-8.2425,1.9355-2.6855,1.4632-4.9546,3.8062-6.2976,6.5706-1.3894,2.7644-1.945,5.7185-2.0371,8.9737-.1391,6.1816.1849,12.6596.6478,18.5355.0927,1.7874.3244,2.8292.0927,4.6675-.7406,3.9034-4.1676,6.5288-6.0194,9.9554-1.9914,3.783-2.8709,8.0568-4.3531,12.0622-1.3888,3.6672-3.3803,7.1028-4.6769,10.7935-1.8524,5.1582-2.4081,10.8308-1.1577,16.1742.9264,4.07,2.8246,7.8898,5.4644,11.1592-.3707.6762-.7411,1.3705-1.1577,2.042-1.2041,2.0835-2.6861,4.0606-3.3801,6.3715-.3245,1.1531-.4636,2.3845-.2318,3.5697.2317,1.1852.8338,2.3203,1.7596,3.07.602.4909,1.3894.8107,2.1298.9866.7874.1759,1.5749.2174,2.3617.2033,3.0099-.0649,5.9273-.9725,8.8446-1.7363,1.7132-.4488,3.4265-.8521,5.1862-1.2126,6.2048-1.2641,13.1043-.7551,18.8463.0689,1.945.297,3.8901.6809,5.7883,1.1437,3.0098.727,6.0197,1.6487,9.0764,1.7363.8327.0234,1.6668-.0134,2.454-.1893.7872-.1766,1.5283-.4956,2.1765-1.0006.9257-.7498,1.5745-1.8888,1.7598-3.0747.2308-1.1852.0923-2.4213-.2321-3.579-.6943-2.3149-2.2226-4.2834-3.4265-6.3575-.509-.8247-.9718-1.6628-1.4354-2.4821,3.7041-4.1723,6.7146-8.9968,8.4276-14.2988,1.8989-5.7829,2.2688-12.016,1.4815-18.049-.8327-6.0335-2.7316-11.8817-5.2779-17.4243-3.149-6.941-5.8344-9.4507-7.7333-15.5535-2.0841-6.589-.3705-14.3913-1.945-20.3692-.5558-2.0328-1.4354-3.9729-2.547-5.7509-1.3431-2.0837-3.0098-3.9451-5.0478-5.3944-3.1945-2.3151-7.1767-3.5467-11.2981-3.5467Z"/>
    <path fill="#fdfdfb" d="M78.9358,64.6059c-.4166.5279-.6947,1.1714-.8796,1.829-.1853.6576-.2317,1.3382-.2781,2.0188-.0463,1.3614.0464,2.7459-.3239,4.0562-.3708,1.403-1.2505,2.6208-2.0841,3.8016-1.4816,2.0466-2.963,4.1534-3.6576,6.5659-.4629,1.4584-.602,3.0052-.4171,4.5239-1.6669,2.3986-3.0558,4.9546-4.2598,7.6124-1.7596,4.0285-3.01,8.3165-3.4266,12.7009-.5093,5.3669.1386,10.8863,2.269,15.8452,1.5279,3.5844,3.8432,6.8624,6.8069,9.4235,1.4815,1.2962,3.149,2.4032,4.9545,3.2781,6.159,3.0326,13.7997,3.0373,19.9116-.1946,3.149-1.6902,5.8344-4.1576,8.4282-6.6538,1.5738-1.5049,3.1021-3.0466,4.3061-4.8525,2.2688-3.4867,3.056-7.7186,3.5657-11.8541.8795-7.223.8795-14.8586-2.2688-21.4107-1.1116-2.2549-2.5477-4.334-4.3068-6.1353-.4628-3.1533-1.3892-6.2418-2.7323-9.1311-.9718-2.0928-2.1296-4.0841-3.0098-6.2001-.3705-.8705-.6949-1.7642-1.111-2.6162-.4167-.852-.9264-1.6669-1.6206-2.3199-.6949-.6714-1.5745-1.1437-2.4546-1.4447-.9259-.3056-1.8986-.4445-2.8709-.4908-1.9451-.0973-3.8896.1573-5.8346.074-1.5279-.0601-3.0564-.3287-4.5843-.2361-.7874.0464-1.5742.1805-2.2689.4723-.7411.2871-1.3897.7362-1.8527,1.3382h0Z"/>
    <path style="fill: url(#radial-gradient); isolation: isolate; opacity: .32;" d="M72.0851,83.971c.4166.6158-.2317,2.7459,9.4002,1.3845,0,0-1.7132.1805-3.3801.5649-2.5934.8658-4.816,1.8335-6.5757,3.1116-1.7133,1.2687-3.01,2.9218-4.5843,4.3341,0,0,2.5928-4.6629,3.1948-6.0705.6485-1.4076-.0921-1.3382.4171-3.4079.5093-2.0697,1.7596-4.061,1.7596-4.061,0,0-1.0191,2.9264-.2316,4.1443Z"/>
    <path style="isolation: isolate; opacity: .32; fill: url(#radial-gradient1);" d="M103.0649,83.4101c-1.9912,1.366-3.149,1.2041-5.5107,1.4679-2.3617.2686-8.7981.1714-8.7981.1714,0,0,.9264-.0138,2.9636.3658,2.084.3844,6.2973.7502,8.6591,1.6485,2.4079.903,3.2419,1.1623,4.6773,2.0698,2.0835,1.2918,3.565,3.32,5.5568,4.7414,0,0,.0916-1.88-.6949-3.2876-.8341-1.4076-2.9637-3.621-3.5657-5.6908-.6481-2.0697-.9264-6.1307-.9264-6.1307,0,0-.4167,3.2875-2.3611,4.6441Z"/>
    <path style="isolation: isolate; opacity: .32; fill: url(#radial-gradient2);" d="M84.5831,80.5061c-.0458.5881-.1386,1.1761-.2775,1.7595-.0463.2871-.0928.5742-.2318.8474-.0921.2732-.2311.5372-.4628.7316-.1853.1714-.4166.2918-.6484.3982-.9259.4122-1.8981.69-2.9173.8196.4171.0278.7874.0649,1.2041.1065.2782.0279.5093.0556.741.1158.2317.0695.5093.1621.6947.3057.2312.1667.4166.3889.5093.6297.2775.4816.3703,1.0372.4166,1.5883.0464.6945.0464,1.3984,0,2.0975.0464-.4677.1391-.9306.2782-1.3752.2775-.8103.694-1.5605,1.2961-2.1855.2317-.2454.4635-.477.741-.6668.8338-.5926,1.9451-.8519,2.9636-.713-1.065.0417-2.1298-.2825-2.9173-.9076-.4629-.3194-.8331-.7131-1.065-1.1761-.4166-.7131-.5095-1.5837-.3246-2.3754Z"/>
    <path style="isolation: isolate; opacity: .32;" fill="#000d13" d="M82.0839,94.3012c-.5093,1.8984-.8338,3.8341-1.0185,5.7878-.2782,2.7644-.1854,5.5428-.3245,8.3119-.1391,2.3477-.4166,4.7228,0,7.0384.1854,1.1063.5093,2.1851,1.0185,3.1904.0928-.3846.1391-.7739.1853-1.1625.1854-1.8802-.1391-3.765-.2775-5.6491-.1853-3.3015.2776-6.6029.4629-9.8997.1386-2.5376.1386-5.0793-.0463-7.6171Z"/>
    <path fill="#000d13" d="M69.9022,77.2617c-2.8709,3.2506-5.8345,6.4085-7.4551,9.9322-.8338,1.7874-1.2041,3.7276-1.7596,5.6074-.602,2.1346-1.4821,4.2042-2.408,6.2188-.8801,1.8567-1.8523,3.672-2.8245,5.4819-.6947,1.3243-1.4358,2.6674-1.667,4.1442-.1854,1.1672-.0928,2.3711.2312,3.5148.2781,1.1391.741,2.232,1.2966,3.2827,2.3152,4.4867,5.7419,8.3533,9.8631,11.317,1.8523,1.3424,3.8432,2.5002,5.9273,3.4587,1.1113.5097,2.3152.9725,3.5656.9906.602.014,1.2498-.0876,1.8054-.3378.5562-.2501,1.0654-.6481,1.4357-1.1712.4166-.6394.5557-1.4354.4629-2.1905-.0928-.7591-.3702-1.4815-.7868-2.1296-.9728-1.5932-2.5008-2.7456-3.9828-3.8807-3.1949-2.4634-6.2513-5.0606-9.2149-7.7975-.8332-.7779-1.667-1.5698-2.2226-2.551-.602-.9491-.8796-2.0286-1.1114-3.1162-.5556-2.9777-.4166-6.108.602-8.9693.4166-1.1203.926-2.1858,1.4358-3.2598.8796-1.8569,1.7133-3.7506,2.8709-5.4546,1.4353-2.1207,3.3339-3.9174,4.5378-6.1909.9722-1.9262,1.3888-4.0841,1.7596-6.2094.2775-1.6669.8795-3.2922,1.1576-4.9545-.5556,1.0789-2.4075,2.8523-3.5188,4.2646h0Z"/>
    <path fill="#000d13" d="M116.4901,89.5894c2.454,1.9818,4.0285,4.9776,4.5382,8.1077.3705,2.436.0923,4.9408-.4635,7.344-.509,2.4079-1.3885,4.7321-2.2226,7.0517-.3237.9264-.6949,1.8614-.8334,2.8339-.1385.9772-.0462,2.0099.4635,2.8707.509.9959,1.5277,1.6761,2.5925,1.9959,1.1116.3197,2.2688.3104,3.3342.0415,1.0655-.2682,2.9175-.616,3.7971-1.3009,2.2226-1.7363,2.7784-4.7509,3.2874-7.3949.5558-2.7597.2782-5.6491-.1846-8.441-.6949-3.8018-1.8059-7.5201-3.1958-11.1087-1.0648-2.6393-2.4079-5.1628-3.9817-7.5058-1.5745-2.2967-3.7971-4.0887-5.4184-6.3391-.602-.7779-1.2494-1.5883-1.8514-2.38-1.2046-1.6994-.9264-1.3798-1.6675-2.4865-.5558-.7963-1.3892-1.0697-2.3156-1.4216-.8795-.3473-1.8982-.4492-2.8246-.1899-1.2494.3427-2.2226,1.3104-2.7784,2.4634-.509,1.1576-.602,2.4819-.416,3.7367.2769,1.6207,1.018,3.1255,1.8521,4.5332.9257,1.5976,2.0373,3.1348,3.4727,4.3202,1.4822,1.2364,3.2874,2.0561,4.8158,3.2693h0Z"/>
    <path style="fill: url(#linear-gradient);" d="M56.2008,112.2588c.6478-.2682,1.3887-.319,2.0835-.1946.6947.1298,1.343.4307,1.9451.82,1.1577.7919,1.991,1.9403,2.8246,3.0747,1.8981,2.6065,3.7504,5.2692,5.4174,8.0336,1.343,2.246,2.5471,4.5656,4.1213,6.6678,1.0185,1.3798,2.1304,2.6533,3.149,4.0238,1.0185,1.3705,1.9445,2.8567,2.408,4.5007.5557,2.1437.3239,4.496-.6947,6.4685-.6947,1.3892-1.806,2.5791-3.149,3.3804-1.3425.806-2.7319,1.1625-4.3062,1.1625-2.5007,0-4.9087-1.329-7.224-2.246-4.7232-1.8755-9.8168-2.4587-14.6786-3.9128-1.4821-.4488-2.9637-.9812-4.4457-1.3892-.6947-.1846-1.3425-.3424-1.9909-.6294-.6485-.2823-1.2041-.7083-1.5748-1.3009-.2775-.4635-.3703-1.0053-.3703-1.5377s.1391-1.0601.3239-1.5604c.3708-.9999.9264-1.9076,1.343-2.8988.6485-1.6206.7411-3.4031.6947-5.1395-.0928-1.7363-.3702-3.4633-.5093-5.1997-.0463-.7732-.0928-1.5604.0928-2.3249.1385-.7638.4628-1.5089,1.0185-2.0467.5093-.4996,1.2041-.7959,1.8987-.9397.6941-.1478,1.4352-.1525,2.1763-.1391.6947.014,1.4352.0555,2.1298-.0047.741-.0555,1.4358-.2174,2.084-.5739.602-.3378,1.0651-.8428,1.4816-1.3892.3702-.5511.6947-1.1531,1.0649-1.7504.3245-.5926.6485-1.1852,1.1114-1.7129.4171-.5277.9728-.9819,1.575-1.2414h0Z"/>
    <path fill="#d99a03" d="M57.2169,113.3738c.602-.2361,1.2967-.2635,1.8981-.1251.602.1438,1.2041.4448,1.7139.8341,1.0185.7779,1.7133,1.8654,2.3611,2.945,1.6212,2.6065,3.1953,5.2411,4.6769,7.9266,1.1576,2.0286,2.2231,4.0934,3.6121,5.9501.9264,1.232,1.9451,2.3664,2.9173,3.5844.9259,1.2173,1.7596,2.5417,2.1763,4.0238.5556,1.9076.3245,4.0192-.602,5.7649-.6941,1.2635-1.7133,2.3336-2.9173,3.0513-1.2497.713-2.6855,1.0695-4.1207,1.0046-2.2696-.1017-4.3532-1.236-6.483-2.0052-4.1213-1.4862-8.5664-1.6848-12.7805-2.8426-1.482-.412-2.9636-.9538-4.4915-1.3384-.6484-.1665-1.343-.3104-1.9914-.5786-.6485-.2642-1.2504-.6809-1.5742-1.2782-.2782-.4441-.3709-.9678-.3709-1.4815.0464-.5097.1855-1.0187.3709-1.5002.3239-.9585.9258-1.8246,1.2961-2.7831.5562-1.4494.6484-3.042.5099-4.5883-.0928-1.5464-.3708-3.0888-.4636-4.6352-.0463-.6949-.0463-1.3939.0928-2.0748.1391-.6802.4628-1.3377.9264-1.8286.5556-.5277,1.2962-.8153,2.0373-.9357.741-.111,1.482-.0602,2.2689.0047.741.0696,1.482.1532,2.2689.1117.741-.0508,1.4821-.2321,2.1305-.6575.5557-.3799.9722-.9404,1.2961-1.5377.3245-.5973.5557-1.2407.8339-1.8708.2317-.6341.5093-1.2635.8796-1.8286.3707-.5605.9261-1.0514,1.5281-1.311h0Z"/>
    <path fill="#f5bd0c" d="M56.7128,111.905c.5556-.2829,1.2497-.3384,1.8518-.2134.6485.1298,1.2041.4354,1.7133.8334.9728.8013,1.6212,1.9403,2.2232,3.0607,1.2961,2.5704,2.5928,5.191,4.167,7.6129,1.1576,1.7544,2.5007,3.3891,3.7047,5.1348,1.5742,2.3664,2.9173,4.9729,3.4265,7.7607.3703,1.8795.3703,3.9081-.5556,5.5976-.602,1.1163-1.5742,2.0286-2.6855,2.5931-1.1576.5745-2.4543.806-3.751.6949-2.0372-.1759-3.8432-1.1625-5.7419-1.8521-3.3802-1.218-6.9923-1.5143-10.4652-2.436-1.4352-.3886-2.8708-.8889-4.3524-1.1946-.6484-.1391-1.343-.2361-1.9451-.4722-.6484-.2361-1.2041-.6254-1.5279-1.1993-.2317-.4033-.3245-.8755-.2781-1.3337.0463-.4588.1853-.903.3707-1.3337.3239-.8474.8796-1.6253,1.1577-2.5002.4166-1.2922.2312-2.6908-.0463-4.0151-.3245-1.315-.7874-2.6065-.9264-3.9543-.0463-.5973-.0464-1.2086.0927-1.7965.1391-.5879.4166-1.1478.8339-1.5698.602-.5418,1.3888-.8147,2.1763-.8889.7874-.0742,1.5742.0281,2.3617.1438.7868.111,1.5741.2314,2.3616.1946.7868-.0328,1.6206-.2361,2.2226-.7224.602-.4816.9722-1.1906,1.2041-1.9216.2312-.7411.3239-1.5049.3702-2.2694.0927-.7638.2318-1.5323.5093-2.2407.3245-.713.7871-1.3658,1.5281-1.7129Z"/>
    <path style="fill: url(#linear-gradient1);" d="M140.381,134.6374c-1.0648,1.2595-2.547,2.0928-4.0285,2.8473-2.5008,1.2735-5.0933,2.3985-7.4551,3.9362-1.6206,1.0274-3.0567,2.236-4.4452,3.5423-1.1578,1.111-2.2694,2.3009-3.5657,3.246-1.3431.9585-2.8707,1.6481-4.4914,1.8888-.4174.0649-.8802.0977-1.3431.0977-1.5283,0-3.0567-.3659-4.4452-.9772-1.2969-.5511-2.5008-1.3477-3.2419-2.5236-.7411-1.1852-.9264-2.6253-.9264-4.0238,0-2.4587.4635-4.8947.8802-7.3206.3705-2.0193.7411-4.0379.9264-6.0752.4167-3.6954.4167-7.4316.1385-11.1498-.0462-.6207-.0923-1.2461,0-1.8621.093-.6153.3705-1.2314.8334-1.634.4167-.3752,1.0187-.5465,1.5745-.5745.602-.0321,1.1578.0555,1.7598.1391,1.3431.1993,2.6861.3471,3.9817.699.8341.2134,1.6675.505,2.5008.7317,1.3899.3705,2.8246.5511,4.2606.3846,1.5277-.1759,3.0092-.7505,4.5375-.713.6488.0134,1.2508.1298,1.8527.3237.6475.1946,1.2494.4729,1.6668.931.3705.3471.602.7872.7866,1.2407.2782.6809.4174,1.4033.4642,2.1256.0455.6434.0455,1.3009.1846,1.935.1853,1.0374.7411,1.9912,1.4354,2.8065.6949.8194,1.4822,1.5089,2.3156,2.1898.7866.6856,1.6206,1.3618,2.5002,1.9591.4167.2823.8334.5458,1.2039.8521.4174.3097.7872.6662,1.0193,1.0969.2308.3846.3237.8107.3237,1.2501,0,.2408-.0462.4863-.093.7317-.2308.6715-.602,1.3243-1.111,1.8989h0Z"/>
    <path fill="#cd8907" d="M140.2954,131.4396c-.2769.6254-.602,1.2133-1.0648,1.723-.9718,1.1384-2.3149,1.8888-3.658,2.5604-2.3156,1.1484-4.6773,2.153-6.8538,3.5376-1.4347.9257-2.7778,2.0092-4.0285,3.1858-1.0648,1.0046-2.0835,2.0741-3.2874,2.9216-1.2039.8615-2.5931,1.4768-4.0747,1.6949-1.8066.2595-3.6586-.0789-5.3254-.7872-1.1578-.5003-2.2694-1.2039-2.9175-2.2734-.6949-1.0608-.8334-2.357-.8334-3.6165,0-2.2132.4167-4.4037.7872-6.5802.3244-1.8099.6481-3.6252.8334-5.4592.3705-3.3289.3705-6.6859.1391-10.0241-.0462-.5605-.0923-1.1257,0-1.6768.0923-.5552.3244-1.1063.7411-1.4721.4167-.3425.9264-.4956,1.4815-.5184.5097-.0281,1.0187.0555,1.5745.1291,1.2039.1806,2.454.315,3.6586.6254.7404.1993,1.4815.4628,2.2688.6622,1.2501.3384,2.5463.4956,3.8432.3471,1.4354-.1619,2.7778-.6755,4.1676-.6434.602.014,1.1571.1204,1.7129.2916.5558.1712,1.1116.4214,1.5277.8334.3251.315.5558.713.6949,1.1203.2782.6066.4167,1.2548.4628,1.9129,0,.6896-.1385,1.3752-.0462,2.0554.0462.5511.2782,1.0742.602,1.5424.2782.4722.6481.8983,1.0193,1.3237.6936.8247,1.3885,1.6581,2.2688,2.2875,1.0187.7224,2.1765,1.1437,3.1951,1.8106.3244.204.6013.4307.8334.727.3705.5003.4635,1.1765.2776,1.7598h0Z"/>
    <path fill="#f5c021" d="M140.1509,130.7312c-.3237.6341-.6481,1.2227-1.1116,1.7457-.9718,1.2133-2.3617,2.0467-3.7503,2.5838-2.3617.8842-4.9087.9999-7.2236,2.0046-1.3892.6113-2.6393,1.533-3.9362,2.4079-1.0187.7036-2.0835,1.3845-3.1945,1.8755-1.2969.5558-2.64.8655-4.0292,1.0882-.8802.1391-1.7591.2408-2.6393.1946-.8334-.0468-1.7136-.2548-2.5002-.7043-.602-.3378-1.1116-.8194-1.436-1.4541-.3699-.7036-.4167-1.523-.4167-2.3243.0468-2.1163.5097-4.2131.4635-6.3341,0-1.8474-.3705-3.6673-.4635-5.51-.2314-3.5469.5558-7.1494-.1391-10.6274-.0923-.5598-.2314-1.111-.2314-1.6802,0-.2829.0462-.5699.1391-.8341.1391-.2588.2782-.4996.5097-.6662.1853-.1391.3705-.2227.6013-.2642.2321-.0368.4167-.0281.6488.0047.4628.0696.8802.2408,1.2969.3659,1.2501.3659,2.5463.3565,3.7964.6341.7411.1712,1.5283.4588,2.3156.6622,1.2962.3612,2.6393.5097,3.9817.3565,1.436-.1712,2.8252-.6896,4.2606-.6528.602.014,1.2039.1251,1.7598.2916.5552.1719,1.1571.4127,1.5738.8474.3244.315.5097.7177.6949,1.1297.2782.6066.4628,1.2641.4628,1.931,0,.3471-.0462.6949-.093,1.0421-.0455.3471-.0455.699.0468,1.0327.0923.3378.2776.6434.4635.921.1846.2782.416.5284.602.8013.6013.7551,1.018,1.6394,1.4815,2.4915.416.8521.9257,1.6942,1.6206,2.3102.9718.8334,2.2226,1.1671,3.3336,1.8286.3244.1946.602.4174.8341.727.1853.2455.2776.5418.3237.8521.0462.3057.0462.6301-.0462.9217h0Z"/>
    <path fill="#fff" d="M79.9068,49.1623c-.6947.0371-1.3888.3704-1.9445.8658-.5098.4909-.8801,1.1391-1.1118,1.8244-.4629,1.3706-.3703,2.8571-.2775,4.3017.0928,1.3012.1854,2.6348.6947,3.8479.2312.6111.602,1.1807,1.065,1.6485.4166.4677,1.0185.8288,1.6669.9863.602.1481,1.2041.1204,1.8061-.0649.602-.1851,1.1112-.5186,1.5742-.9493.6484-.6251,1.065-1.4446,1.2967-2.3013.2774-.8613.3239-1.7642.3239-2.6625,0-1.1205-.1848-2.2458-.5093-3.3062-.3703-1.065-.926-2.0698-1.7133-2.8755-.3703-.3889-.7868-.727-1.2967-.9678-.4629-.2409-1.0189-.3751-1.5745-.3472Z"/>
    <path fill="#000d13" d="M82.547,47.0009c1.0185.9493,1.7596,2.1253,2.269,3.3662-.2317-1.3659-.602-2.4726-1.4816-3.3662-.5557-.514-1.1576-.9632-1.8987-1.2779-.6019-.2778-1.2966-.4539-1.6669-.4584-.4166-.0093-.5093,0-.5556.0046-.0928.0047-.1855.0047.0927.0417.2312.0278.8332.1806,1.4353.4539.602.2732,1.2502.7222,1.8058,1.2362Z"/>
    <path fill="#fff" d="M92.636,48.8777c-1.1911.7955-2.1439,1.9058-2.6209,3.2303-.6194,1.6724-.381,3.5401.1908,5.2123.6194,1.72,1.6198,3.3542,3.0971,4.3833.7625.5193,1.6199.8719,2.5254.9767.905.1096,1.8583-.0429,2.6677-.4573.9538-.5145,1.7156-1.4102,2.1925-2.4108.4762-1.0053.6662-2.1155.7143-3.2207.095-1.4055-.0482-2.8349-.5244-4.169-.4762-1.4437-1.4287-2.7824-2.7155-3.6115-.6194-.4193-1.3819-.7052-2.1443-.8099-.762-.1048-1.5245-.0238-2.2393.2525-.4286.1571-.8101.3764-1.1433.6242h0Z"/>
    <path fill="#000d13" d="M96.3041,44.4663c-.2312.2454-.3703.5047-.5093.7963.8338.1898,1.6672.5463,2.4083,1.0418,1.4815.9539,2.547,2.3476,3.3336,3.8989.1853-.1991.3244-.4121.4628-.6437-.7404-1.6206-1.8514-3.0839-3.3804-4.0701-.6943-.4677-1.4813-.8334-2.315-1.0232Z"/>
    <path style="isolation: isolate; opacity: .2588;" fill="#000d13" d="M77.9648,71.8201c.6947,2.0003,2.0836,3.7089,3.7505,5.0378.5557.4491,1.1118.8567,1.7596,1.1437.6484.2916,1.343.4584,2.084.3936.6484-.0554,1.3425-.3288,1.9444-.6667.602-.3379,1.1577-.7454,1.7133-1.116,1.0192-.6343,2.084-1.1437,3.149-1.7086,1.2504-.6807,2.4544-1.4586,3.5193-2.417.4629-.4399.9259-.9169,1.4352-1.2965.5564-.3797,1.2039-.6529,1.852-.6065.4635.037.927.2409,1.3899.3472.2776.0509.509.0742.7411.0371.2308-.0371.509-.1389.6475-.3149.2321-.2176.3244-.5279.2782-.8288,0-.2964-.093-.5881-.2314-.8521-.2776-.5325-.6943-.9864-.8795-1.5558-.1859-.5093-.1391-1.0557-.1391-1.5835,0-.5371,0-1.0927-.2314-1.5697-.1853-.3565-.5097-.6436-.8802-.8288-.3699-.1944-.7411-.2916-1.1578-.3288-.8327-.0787-1.6204.0833-2.454.1251-1.065.0602-2.1298-.0695-3.2411-.0093-1.343.0833-2.6397.4723-3.9822.4769-1.5742.0047-3.1027-.5-4.6306-.2593-.6484.1019-1.2504.3381-1.8987.5418-.602.213-1.2504.3982-1.8986.3889-.7868-.0138-1.4816-.2732-2.2226-.3242-.3703-.0277-.7868,0-1.1113.1297-.3703.1343-.6947.3703-.8331.7038-.1391.1898-.1854.4074-.1854.6204s.0463.4261.0928.639c.0928.4121.2775.801.4166,1.1993.602,1.44.6944,3.0191,1.2037,4.4823Z"/>
    <path fill="#000d13" d="M82.9669,57.3264c.6947-.8011,1.2041-1.7874,1.8987-2.6115.324-.4168.741-.7965,1.2041-1.0651s1.0185-.4167,1.5279-.3703c.602.0509,1.1576.3472,1.6206.7547.4171.4121.741.9308,1.0192,1.4679.2312.5232.4628,1.0742.7868,1.5234.4171.4816.9264.8056,1.4358,1.1853.2312.1898.4629.3937.6485.6297.1849.2409.324.5186.4166.8197.0463.3056,0,.6251-.0928.9168-.0928.2918-.2774.5558-.5093.7733-.4629.4307-1.065.6668-1.667.7503-1.2504.1759-2.5008-.1899-3.751-.1576-1.2498.0372-2.5.477-3.7505.4353-.6484-.0231-1.2967-.176-1.806-.537-.2317-.1806-.4629-.4121-.6485-.6807-.1391-.2686-.2312-.5788-.2774-.8937,0-.3009.0921-.602.1849-.8751.1391-.2778.3245-.5233.5093-.7593.3708-.4677.8337-.8521,1.2502-1.3059Z"/>
    <path fill="#000d13" d="M94.9582,51.2131c-.4171.0278-.8338.176-1.2041.3983-.3707.2268-.6485.5324-.8801.8844-.5093.7038-.741,1.5604-.741,2.4077-.0458.639.0464,1.2827.2318,1.8846.2317.602.6019,1.1623,1.0649,1.5651.5093.4168,1.1577.6668,1.8061.6992.6484.0279,1.3429-.1574,1.8523-.5324.4168-.2965.7874-.7038,1.0188-1.1623.2314-.4584.4167-.9678.4628-1.4816.1391-.9075,0-1.8614-.4167-2.6763-.4167-.8196-1.1577-1.491-2.0372-1.8058-.3708-.1389-.741-.2085-1.1575-.1807Z"/>
    <path fill="#000d13" d="M77.7769,53.7844c-.1391.9123-.1391,1.866.1853,2.732.1854.5741.5557,1.0928.9722,1.5419.2781.2916.5557.5556.9264.727.3703.176.7869.2454,1.1577.1528.3703-.088.694-.3194.9258-.6066.2318-.2871.3703-.6297.4629-.9816.3245-1.0419.2782-2.1764-.0463-3.2136-.2312-.7593-.602-1.4863-1.2041-1.9957-.3239-.2455-.6477-.4353-1.0185-.5186-.3702-.0926-.7411-.0694-1.1113.088-.3703.1714-.6947.5047-.8796.8751-.1854.3703-.278.7826-.3706,1.1993Z"/>
    <path fill="#000d13" d="M76.0643,66.1135c1.343.8242,2.547,1.8476,3.5655,3.0052.9259,1.0742,1.7133,2.2965,2.9636,3.0931.8332.5649,1.8987.8798,2.9637.977,1.204.1158,2.4543-.0695,3.6577-.3937,1.1118-.2963,2.1769-.7223,3.1954-1.2733,1.8523-1.0604,3.4265-2.6115,5.4644-3.3062.4628-.1574.9257-.2639,1.3424-.4537.4628-.1805.8802-.4631,1.0648-.8612.1853-.3844.1859-.8197.2782-1.2409.0462-.4491.1853-.8844.2776-1.329.093-.4491.093-.9214-.0923-1.3335-.1853-.338-.5097-.6065-.8795-.7779-.3244-.1714-.7411-.2455-1.1578-.264-.8334-.0371-1.6208.1528-2.4545.2223-1.065.0879-2.1298-.0417-3.2411-.0046-1.343.0371-2.6397.3148-3.9822.3751-1.5284.0649-3.0564-.1621-4.6306-.2084-.6484-.0231-1.2967-.0138-1.9451.0926-.6947.1065-1.2966.3056-1.8523.6483-.5556.3241-.9722.7686-1.4815,1.1483-.2317.1944-.5093.3703-.7874.5047-.2775.1297-.602.2269-.9259.2409-.1854.0045-.3245-.0047-.5093.0185-.2781.037-.5093.1852-.6947.3889-.1391.213-.2317.4817-.1391.7317Z"/>
    <path style="fill: url(#linear-gradient2);" d="M76.1106,65.0976c0,.1251.0464.2362.1391.3427.0928.1805.2312.3287.4165.4491.1854.1251.3709.2316.5558.338.9264.5974,1.7132,1.4309,2.4079,2.3151.8801,1.1853,1.7133,2.4958,2.9637,3.3571.8331.6112,1.8986.9539,2.9636,1.0603,1.2041.1249,2.4543-.0742,3.6577-.4261,1.1118-.3241,2.1769-.7825,3.1954-1.3891,1.8523-1.1437,3.4265-2.8291,5.4644-3.5885.4628-.1621.9257-.2777,1.3424-.4816.4628-.2084.8802-.5093,1.0648-.94.1853-.4167.1859-.8937.2782-1.352.0462-.4816.1853-.9539.2776-1.44.093-.4814.093-1.0002-.0923-1.4446-.1853-.3704-.5097-.6622-.8795-.8428-.3244-.1898-.7411-.2732-1.1578-.2916-.8334-.0371-1.6208.1667-2.4545.2455-1.065.0972-2.1298-.0417-3.2411-.0093-1.343.0417-2.6397.3427-3.9822.4074-1.5284.0695-3.0564-.1621-4.6306-.2269-.6484-.0277-1.2966-.0185-1.9914.0972-.6485.1065-1.2966.3335-1.806.7085-.5557.3658-.9722.8658-1.4816,1.2873-.2317.213-.5093.4074-.7874.5463-.2775.1435-.602.2316-.9259.2223-.1854-.0045-.3245-.0278-.5093.0185-.0927.0324-.1854.0926-.2782.1621-.0464.0788-.0928.1621-.1849.2455-.1391.1991-.2317.4122-.3245.6298h0Z"/>
    <path fill="#604405" d="M79.4887,61.7169c-.5556.3195-1.065.6714-1.6206,1.0372-.2317.1898-.5093.3937-.6484.69-.0928.2084-.1391.4398-.1391.6714v.6946c-.0458.1574-.0921.3102-.0921.4677,0,.0787,0,.1575.0464.2361,0,.074.0457.1482.092.2037.0928.0787.1855.1251.2782.1528.0928.0278.1853.0417.2775.0648.4635.1158.8801.4028,1.2504.7363.3707.3241.6947.6946,1.1112,1.0001,1.0192.8381,2.3617,1.1854,3.7047,1.204,1.3431.0231,2.6392-.2548,3.9359-.5464,1.0185-.2316,2.0377-.4631,3.01-.8288,1.5279-.5558,2.9173-1.3891,4.1213-2.4402.5556-.4723,1.065-.9955,1.667-1.3798.5556-.3473,1.1576-.5695,1.7134-.8937.0462-.0278.0923-.0649.1391-.0972.0462-.0371.0923-.0833.1385-.1297.0462-.088.0462-.1991,0-.2917-.0462-.0926-.0923-.1805-.1385-.2593-.093-.0833-.1391-.1574-.2321-.2362-.602-.4909-1.3887-.6714-2.1297-.7316-.7874-.0556-1.5284-.0138-2.2689-.1435-.741-.1158-1.3895-.3796-2.0841-.5973-.6941-.2269-1.4352-.4074-2.1763-.5279-1.7596-.287-3.5656-.2316-5.2789.1249-1.6669.3427-3.2411.963-4.6769,1.8197Z"/>
    <path style="fill: url(#linear-gradient3);" d="M79.3051,59.8789c-.7874.5279-1.482,1.1716-2.084,1.8984-.3703.4214-.6484.8751-.8331,1.3845-.1391.4028-.1854.8288-.2781,1.2456,0,.1574-.0464.3102-.0464.4723,0,.0742,0,.1528.0464.2316,0,.0788.0462.1481.0927.2039.0928.0925.2317.1481.3703.176.1391.0231.2317.0277.3707.0417.602.0694,1.1577.3519,1.6206.69.5093.3334.9722.727,1.4816,1.0465,1.065.6992,2.4079,1.0094,3.751,1.0603,1.2966.0509,2.5928-.1435,3.8895-.4028,1.0185-.2039,2.0377-.4491,3.01-.8288,1.4815-.5881,2.8246-1.4864,4.1213-2.4402.602-.4353,1.1576-.8797,1.6669-1.3844.1854-.1714.3703-.3473.5556-.5048.1854-.1575.4164-.2918.6485-.3703.3237-.1112.7411-.0788,1.111-.0185.2776.0463.5558.1112.8334.1019.1391-.0093.2782-.0372.4174-.0881.1385-.0509.2308-.1296.3237-.2409.1391-.1435.1853-.3334.1853-.5139,0-.1898-.0462-.3703-.1391-.5325-.1853-.3194-.509-.537-.8334-.6852-.5097-.2084-.9725-.3057-1.4815-.4307-1.5281-.3658-3.0102-.9076-4.3991-1.6022-.6947-.3427-1.3894-.7224-2.084-1.0928-.6941-.3751-1.4352-.7362-2.1763-.9723-1.7132-.5186-3.5655-.3474-5.2788.2408-1.8987.6483-3.5658,1.8054-4.862,3.3148Z"/>
    <path fill="#735421" d="M83.4281,57.5751c-.3239-.1158-.926.5186-.7406.8427.0463.088.2312.2038.3239.1435.1854-.0926.3245-.4214.463-.5463.1391-.0833.0927-.3982-.0464-.4398Z"/>
    <path fill="#735421" d="M88.1048,57.7508c.0928.3011.5557.2501.8339.3936.2774.1297.4628.4029.741.4168.2775.0046.6483-.0973.694-.3612.0464-.3427-.4628-.5649-.7868-.69-.4166-.1574-.9264-.2455-1.343-.0278-.0928.0509-.1855.1714-.1391.2685Z"/>
    <path style="fill: url(#linear-gradient4);" d="M90.1565,51.6734s1.2986-4.5993,5.5539-4.0343c4.2551.565,5.4262,5.615,5.4262,5.615,0,0-1.3885-2.379-5.4061-2.6241-4.0179-.2451-5.574,1.0433-5.574,1.0433Z"/>
    <path style="fill: url(#linear-gradient5);" d="M76.4684,54.8155s-1.0218-5.6992,3.4096-6.2764c3.268-.4256,4.8356,5.1604,4.8356,5.1604,0,0-.8214-2.4447-3.887-2.6896-3.0657-.2451-4.3583,3.8056-4.3583,3.8056Z"/>
    <path style="fill: url(#linear-gradient6);" d="M128.2232,115.9582c-.2321-.4441-.6488-.7779-1.1116-.9725-.4628-.194-.9725-.2588-1.4822-.2542-.9718.0094-1.9905.2682-3.0092.1846-.8341-.0783-1.6213-.3933-2.454-.5926-.8341-.208-1.7598-.2869-2.5938-.0602-.9257.2455-1.7129.8521-2.2226,1.644-.4167.6943-.6481,1.519-.6949,2.343-.0923.8194.0007,1.644.093,2.4681.0462.5926.093,1.1852.2782,1.7644.1385.5786.3237,1.1437.6943,1.6253.5097.699,1.2501,1.1946,2.0841,1.4909,1.2962.4863,2.7778.4628,4.0747-.0696,2.3149-.9953,4.2599-2.7831,5.4639-4.987.4167-.7872.7411-1.63.9725-2.4955.093-.3478.1385-.6996.1385-1.0561s-.0455-.7177-.2308-1.0327h0Z"/>
    <path fill="#000d13" d="M129.1329,113.8527c-.1853-.4448-.4635-.8428-.8334-1.1625-.3705-.3197-.7872-.5645-1.2039-.7498-.8802-.3705-1.8527-.5143-2.7784-.6856-.8802-.1665-1.7598-.3705-2.64-.5184-.9257-.1578-1.8982-.2595-2.8246-.0508-.7866.1759-1.5277.5926-2.1296,1.1391-.602.5511-1.0648,1.2407-1.3892,1.9818-.602,1.3103-.7872,2.7824-.6943,4.2178.0923,1.0702.3699,2.1671,1.0648,2.9731.5558.6528,1.3892,1.0601,2.2226,1.3056,1.4354.4261,2.9637.4027,4.3991-.0602,2.3617-.7872,4.3991-2.343,5.8344-4.3663.4628-.6762.8341-1.4033,1.0187-2.1952.1391-.6013.1391-1.2501-.0462-1.8286h0Z"/>
  </g>
</svg>