 
<svg id="Layer_1" xmlns="http://www.w3.org/2000/svg" version="1.1" viewBox="0 0 180 180" fill="#000">
  <!-- Generator: Adobe Illustrator 29.4.0, SVG Export Plug-In . SVG Version: 2.1.0 Build 152)  -->
  <defs>
    <style>
      .st0 {
        fill: #fff;
      }
    </style>
  </defs>
  <path fill="inherit" d="M0,13.0002C0,5.8205,5.8203.0002,13,.0002h154c7.18,0,13,5.8203,13,13v153.9996c0,7.18-5.82,13-13,13H13c-7.1797,0-13-5.82-13-13V13.0002Z"/>
  <path fill="#fff" d="M89.5473,53.1293c-.0101-.1773-.0161-.3593-.0161-.5414,0-6.1809,3.1678-12.2789,6.5616-16.1371,3.7628-4.3643,9.6812-7.7984,15.1262-8.7648,1.374-.244,2.619.7353,2.619,2.1314,0,6.0972-2.621,12.1952-6.324,16.5896-3.93,4.8708-10.7302,8.4911-16.1372,8.4911-.9908,0-1.7732-.7798-1.8295-1.7689ZM134.632,112.7208c-4.732-3.064-12.138-9.822-12.138-22.0314,0-10.059,5.285-16.4738,9.094-19.836,1.995-1.7615,2.63-4.6089.764-6.507-7.782-7.9176-17.598-8.1577-20.588-8.1577-8.956,0-16.2922,5.4781-20.9961,5.4781-4.9425,0-11.5043-5.1684-19.3762-5.1684-14.815,0-29.8683,12.2782-29.8683,35.4294,0,14.434,5.5618,29.642,12.4451,39.431,5.9432,8.337,11.1115,15.125,18.519,15.125s10.6465-4.859,19.7575-4.859c9.349,0,11.4319,4.705,19.5309,4.705s13.422-7.325,18.519-14.661c3.288-4.796,5.477-9.541,6.757-12.778.919-2.326-.32-4.811-2.42-6.17Z"/>
</svg>