 
<svg id="Layer_1" xmlns="http://www.w3.org/2000/svg" version="1.1" viewBox="0 0 180 180" fill="#000d13">
  <path fill="inherit" d="M-.0002,13.2426C-.0002,6.0629,5.8201.2426,12.9998.2426h134.7464c7.18,0,13,5.8203,13,13v134.7468c0,7.179-5.82,13-13,13H12.9998C5.8201,160.9894-.0002,155.1684-.0002,147.9894V13.2426Z"/>
  <path style="isolation: isolate; opacity: .45;" fill="#fff" d="M-.0002,13.2426C-.0002,6.0629,5.8201.2426,12.9998.2426h134.7464c7.18,0,13,5.8203,13,13v134.7468c0,7.179-5.82,13-13,13H12.9998C5.8201,160.9894-.0002,155.1684-.0002,147.9894V13.2426Z"/>
  <path fill="inherit" d="M19.2537,32.0111c0-7.1797,5.8203-13,13-13h134.7465c7.18,0,13,5.8203,13,13v134.7463c0,7.18-5.82,13-13,13H32.2537c-7.1797,0-13-5.82-13-13V32.0111Z"/>
  <path fill="#fff" d="M90.8229,93.6868c1.324,1.3241,1.3654,3.4454.124,4.8193l-.124.1299-20.2178,20.2184-.1299.124c-1.3738,1.242-3.4951,1.2-4.8193-.124-1.3668-1.366-1.3668-3.583,0-4.95l17.7422-17.743-17.7422-17.7432-.124-.1299c-1.2418-1.3739-1.2002-3.495.124-4.8193,1.3243-1.3242,3.4454-1.3658,4.8193-.124l.1299.124,20.2178,20.2178ZM131.5462,120.6054l-.18-.004h-34.3479c-1.933,0-3.5,1.567-3.5,3.5s1.567,3.5,3.5,3.5h34.3479l.18-.005c1.85-.094,3.32-1.623,3.32-3.495,0-1.873-1.47-3.402-3.32-3.496Z"/>
</svg>