 
<svg xmlns="http://www.w3.org/2000/svg" version="1.1" viewBox="0 0 180 180" fill="#00a2fa">
  <g style="isolation: isolate;">
    <g id="Layer_1">
      <path fill="inherit" d="M102.3738.0016c-2.762,0-5.0005,2.2386-5.0005,5v166.2118c0,2.729,2.2125,4.942,4.9425,4.942h72.885c2.761,0,5-2.238,5-5V5.0016C180.2008,2.2401,177.9618.0016,175.2008.0016h-72.827Z"/>
      <path style="isolation: isolate; fill-opacity: .58; mix-blend-mode: multiply;" fill="#455055" d="M97.3274,5.0986C97.3274,2.282,99.6108-.0014,102.4278-.0014h72.63c2.816,0,5.1,2.2834,5.1,5.1v165.9497c0,2.817-2.284,5.1-5.1,5.1h-72.63c-2.817,0-5.1004-2.283-5.1004-5.1V5.0986Z"/>
      <path fill="#fff" d="M-.1872,139.1044h131.983v5.68H-.1872v-5.68Z"/>
      <path fill="inherit" d="M175.3408,21.0944v12.759c0,1.1046-.896,2-2,2h-67.9579c-1.104,0-2-.8954-2-2v-12.759c0-1.1046.896-2,2-2h67.9579c1.104,0,2,.8954,2,2ZM128.4149,65.0015H3.1837c-1.8692,0-3.3845,1.53-3.3845,3.4173v71.7635h131.9996v-71.7635c0-1.8873-1.515-3.4173-3.384-3.4173Z"/>
      <path fill="#fff" d="M139.7518,48.0545c-1.55,0-2.806-1.2518-2.806-2.7959s1.256-2.7961,2.806-2.7961,2.806,1.2519,2.806,2.7961-1.256,2.7959-2.806,2.7959Z"/>
      <path fill="#455055" d="M89.5593,180.0013h-47.5198c0-3.521,2.8367-6.377,6.3359-6.377h34.848c3.4992,0,6.3359,2.856,6.3359,6.377ZM-.2008,142.3173v6.148c0,1.887,1.5201,3.417,3.3952,3.417h125.2084c1.876,0,3.396-1.53,3.396-3.417v-6.148H-.2008ZM62.4036,154.0063v18.555h6.7906v-18.555h-6.7906Z"/>
    </g>
  </g>
</svg>