 
<svg xmlns="http://www.w3.org/2000/svg" version="1.1" viewBox="0 0 180 180" fill="#00a2fa">
  <g style="isolation: isolate;">
    <g id="Layer_1">
      <path fill="#455055" d="M180,78.7077H0v54.373c0,2.975,2.4116,5.387,5.3865,5.387h169.2265c2.975,0,5.387-2.412,5.387-5.387v-54.373Z"/>
      <path fill="#455055" d="M155.038,59.7516H24.9832c-3.4234,0-6.7132,1.3285-9.1766,3.7058L.002,78.7094h179.997l-15.779-15.2462c-2.464-2.3808-5.756-3.7115-9.182-3.7115Z"/>
      <path style="isolation: isolate; fill-opacity: .58; mix-blend-mode: multiply;" fill="#455055" d="M157.246,59.7516H22.7763c-2.0077,0-3.937.7791-5.3817,2.1733L.002,78.7094h179.997l-17.367-16.781c-1.445-1.3962-3.376-2.1767-5.386-2.1767Z"/>
      <path fill="#455055" d="M146.005,59.7473H33.9961v-21.946c0-2.4611,2.0009-4.4559,4.4693-4.4559h103.0706c2.468,0,4.469,1.9949,4.469,4.4559v21.946Z"/>
      <path fill="#455055" d="M133.941,138.4527H46.0596v4.12c0,2.255,2.2386,4.082,5,4.082h77.8804c2.761,0,5-1.827,5-4.082l.001-4.12Z"/>
      <path style="isolation: isolate; fill-opacity: .58; mix-blend-mode: multiply;" fill="#455055" d="M133.941,138.4657H46.0596v4.113c0,2.251,2.2386,4.076,5,4.076h77.8804c2.761,0,5-1.825,5-4.076l.001-4.113Z"/>
      <path fill="#455055" d="M28.7588,112.9297h122.4832v14.421c0,1.644-1.338,2.979-2.988,2.979H31.7461c-1.648,0-2.9873-1.335-2.9873-2.979v-14.421Z"/>
      <path style="isolation: isolate; fill-opacity: .58; mix-blend-mode: multiply;" fill="#455055" d="M30.972,112.9297h118.057c1.222,0,2.213.991,2.213,2.213v12.974c0,1.222-.991,2.213-2.213,2.213H30.972c-1.2223,0-2.2132-.991-2.2132-2.213v-12.974c0-1.222.9909-2.213,2.2132-2.213Z"/>
      <path fill="inherit" d="M149.302,134.8877H30.6712c-.5918,0-.9437-.729-.6134-1.271l7.0877-11.627c.1374-.225.3673-.36.6134-.36h104.2251c.242,0,.469.131.607.35l7.318,11.627c.34.541-.01,1.281-.607,1.281Z"/>
      <path fill="#fff" d="M26.8043,93.191h-9.1202c-1.4036,0-2.5415,1.1379-2.5415,2.5415s1.1379,2.5415,2.5415,2.5415h9.1202c1.4036,0,2.5415-1.1379,2.5415-2.5415s-1.1379-2.5415-2.5415-2.5415Z"/>
      <path fill="inherit" d="M131.383,51.1901H48.6172v8.5574h82.7658v-8.5574Z"/>
    </g>
  </g>
</svg>