 
<svg id="Layer_1" xmlns="http://www.w3.org/2000/svg" version="1.1" viewBox="0 0 180 180" fill="#0daf67">
  <path fill="inherit" d="M0,13.0002C0,5.8204,5.8203.0001,13,.0001h154c7.18,0,13,5.8203,13,13v153.9997c0,7.18-5.82,13-13,13H13c-7.1797,0-13-5.82-13-13V13.0002Z"/>
  <path fill="#fff" d="M110.3,24.5936c0-2.5407,2.059-4.6004,4.6-4.6004s4.601,2.0597,4.601,4.6004-2.06,4.6003-4.601,4.6003-4.6-2.0596-4.6-4.6003ZM129.899,19.9932c-2.541,0-4.6,2.0597-4.6,4.6004s2.059,4.6003,4.6,4.6003,4.6-2.0596,4.6-4.6003-2.059-4.6004-4.6-4.6004ZM144.903,19.9932c-2.541,0-4.601,2.0597-4.601,4.6004s2.06,4.6003,4.601,4.6003,4.6-2.0596,4.6-4.6003-2.059-4.6004-4.6-4.6004ZM120.322,64.0654c-1.324-1.3242-3.445-1.3656-4.819-.1241l-.131.1241-22.6298,22.6299c-.6564.6563-1.0254,1.5473-1.0254,2.4755.0001.9281.3691,1.8184,1.0254,2.4746l22.6298,22.6295.131.124c1.374,1.242,3.495,1.201,4.819-.124,1.324-1.324,1.366-3.445.124-4.819l-.124-.13-20.156-20.156,20.156-20.1553c1.367-1.3668,1.367-3.5825,0-4.9492ZM63.9833,85.8438l-.1299-.124c-1.3739-1.2418-3.4951-1.2002-4.8193.124-1.3243,1.3243-1.3658,3.4454-.1241,4.8193l.1241.1299,20.1543,20.1548-20.1543,20.157c-1.3668,1.366-1.3669,3.582,0,4.949,1.3668,1.367,3.5824,1.367,4.9492,0l22.6308-22.63c1.3668-1.367,1.3668-3.583,0-4.95l-22.6308-22.6301Z"/>
</svg>