 
<svg xmlns="http://www.w3.org/2000/svg" version="1.1" viewBox="0 0 180 180" fill="#a397f1">
  <g style="isolation: isolate;">
    <g id="Layer_1">
      <g>
        <path fill="#455055" d="M110.458,109.6619h6.791v18.556h-6.791v-18.556Z"/>
        <path fill="#455055" d="M131.278,129.2799c3.499,0,6.336,2.856,6.336,6.377h-47.5198c0-3.521,2.8368-6.377,6.336-6.377h34.8478Z"/>
        <path fill="#fff"  d="M47.8677,94.7597h131.9833v5.6802H47.8677v-5.6802Z"/>
        <path fill="inherit" d="M47.854,24.0744c0-1.8873,1.5154-3.4173,3.3846-3.4173h125.2314c1.869,0,3.384,1.53,3.384,3.4173v71.7635H47.854V24.0744Z"/>
        <path fill="#455055" style="isolation: isolate; fill-opacity: .58; mix-blend-mode: multiply;" d="M47.8501,24.0744c0-1.8873,1.5154-3.4173,3.3846-3.4173h125.2313c1.869,0,3.384,1.53,3.384,3.4173v71.7635H47.8501V24.0744Z"/>
        <path fill="#455055" d="M47.854,97.9726h132v6.1483c0,1.887-1.521,3.417-3.396,3.417H51.2492c-1.8751,0-3.3952-1.53-3.3952-3.417v-6.1483Z"/>
        <path fill="#455055" d="M107.216,144.9969H15.929L.1538,155.8269h122.7262l-15.664-10.83Z"/>
        <path fill="inherit" d="M17.7733,87.9687h87.4597c1.058,0,1.917.8587,1.917,1.9163v53.0219H15.8569v-53.0219c0-1.0576.8587-1.9163,1.9164-1.9163Z"/>
        <path fill="#455055" d="M122.88,155.8249H.146v1.761h122.734v-1.761Z"/>
        <path fill="#455055" d="M.146,157.5829h122.734c0,.972-.789,1.76-1.761,1.76H1.9063c-.9716,0-1.7603-.788-1.7603-1.76Z"/>
        <path fill="#fff" style="opacity: .27; isolation: isolate;" d="M107.224,144.9969H15.9373L.1621,155.8269h122.7259l-15.664-10.83Z"/>
      </g>
    </g>
  </g>
</svg>