 
<svg id="Layer_1" xmlns="http://www.w3.org/2000/svg" version="1.1" viewBox="0 0 180 180" fill="#0daf67">
  <path style="opacity: .45; isolation: isolate;" fill="#fff" d="M141.865,69.1963c0,36.4684-29.563,66.0324-66.032,66.0324S9.8008,105.6647,9.8008,69.1963,39.3644,3.164,75.833,3.164s66.032,29.5636,66.032,66.0322Z"/>
  <path fill="inherit" d="M171.465,165.5846l-43.7-50c-1.0853,1.1475,6.9312-8.1954,10.492-15.105,4.247-8.2371,6.74-17.1231,7.411-26.4105.672-9.2875-.517-18.4395-3.535-27.202-2.91-8.4543-7.39-16.1783-13.316-22.9574-5.925-6.7791-13.002-12.2787-21.036-16.3467C99.455,3.3473,90.4771.8656,81.0951.1874c-9.382-.6783-18.6234.4861-27.4692,3.4606-8.5354,2.8698-16.3299,7.2946-23.1688,13.1509-6.8386,5.8563-12.3832,12.8558-16.4804,20.8034-4.246,8.2372-6.7386,17.1232-7.41,26.4107-.6714,9.2875.5171,18.4395,3.5342,27.2017,2.9112,8.4539,7.3914,16.1789,13.3168,22.9579,5.9253,6.779,13.0024,12.279,21.0363,16.346,8.3259,4.2159,17.3038,6.698,26.6858,7.376s18.6235-.486,27.4693-3.46c8.5359-2.87,18.3379-9.252,15.7759-7.535l43.771,50.082c1.592,1.821,3.778,2.833,6.026,2.995,2.247.163,4.556-.524,6.394-2.097,3.675-3.148,4.073-8.652.889-12.295ZM72.3969,120.5066c-28.7123-2.076-50.3218-26.8002-48.267-55.2241,2.0549-28.4239,26.996-49.7832,55.7082-47.7075,28.7119,2.0757,50.3219,26.8004,48.2669,55.2242-2.055,28.4234-26.997,49.7834-55.7081,47.7074Z"/>
</svg>