 
<svg id="Layer_1" xmlns="http://www.w3.org/2000/svg" version="1.1" viewBox="0 0 180 180" fill="#0daf67">
  <path fill="inherit" d="M92.7925,28.9856c-1.9155-.4891-3.9228-.491-5.8392-.0057-12.2229,3.094-59.1843,15.478-72.2077,18.9149-2.0397.5383-3.3697,2.2893-3.3725,4.3988-.0097,7.341-.0257,23.642-.0257,23.6535.2241,10.7504,2.4109,24.5638,16.9528,49.9098,7.1706,12.49,16.2855,23.069,25.3407,31.474,13.705,13.799,25.8768,20.061,32.6342,21.99.3396.097.6139.194.9523.275.3791.09.7751.165,1.1019.233.5477.114,1.0271.171,1.4254.171.0758,0,.1633-.006.2446-.008.0822.002.1677.008.2422.008.6406,0,1.4789-.147,2.4825-.432,6.5109-1.58,19.2397-7.744,33.6337-22.237,9.054-8.405,18.171-18.984,25.341-31.474,14.542-25.346,16.954-41.4545,16.954-52.2048,0-2.398-.069-14.5827-.106-20.902-.013-2.2564-1.509-4.2091-3.69-4.7873-13.451-3.5663-59.917-15.8774-72.0642-18.9772Z"/>
  <path fill="#455055" d="M11.3787,23.385c0-2.0492,1.516-3.8541,3.7358-4.4396L88.2775.1655c.8659-.1952,1.8419-.2446,2.7633,0l73.8129,18.7798c2.165.5363,3.736,2.3904,3.736,4.4396l-.067,22.5841-76.3449-19.9492c-1.4638-.3412-2.9789-.3412-4.4417,0L11.3785,45.9711l.0002-22.5861Z"/>
</svg>