 
<svg id="Layer_1" xmlns="http://www.w3.org/2000/svg" version="1.1" viewBox="0 0 180 180" fill="#000d13">
  <path fill="inherit" d="M0,13C0,5.8203,5.8203,0,13,0h154c7.18,0,13,5.8203,13,13v154c0,7.18-5.82,13-13,13H13c-7.1797,0-13-5.82-13-13V13Z"/>
  <g>
    <path fill="#fff" d="M46.5493,138.971c-.5857-.551-1.3019-1.024-2.1484-1.42-.8464-.395-1.8101-.708-2.8918-.939l-1.9379-.45c-.6615-.151-1.2429-.3311-1.7432-.541-.5012-.211-.8862-.474-1.1566-.789-.2704-.316-.4061-.704-.4061-1.165,0-.42.1207-.793.3612-1.119.2396-.325.6007-.581,1.0817-.766.4801-.186,1.071-.278,1.7723-.278,1.0614,0,1.8877.225,2.4796.676.5901.451.9213,1.082.9909,1.893h5.0932c-.0193-1.382-.3807-2.597-1.0817-3.644-.7011-1.046-1.6879-1.863-2.9597-2.449-1.2719-.585-2.7748-.8781-4.5074-.8781-1.692,0-3.1922.288-4.4994.863-1.3072.577-2.336,1.385-3.0874,2.427s-1.1266,2.254-1.1266,3.636c0,1.683.5506,3.025,1.6525,4.026,1.101,1.002,2.6187,1.723,4.5522,2.164l2.3739.556c.821.18,1.4975.386,2.0277.616.5311.23.9292.496,1.1944.796.2661.301.3982.666.3982,1.097,0,.481-.1427.902-.4281,1.262-.2854.361-.6933.641-1.2244.841-.5311.201-1.1618.301-1.893.301-.8112,0-1.5204-.123-2.1255-.368-.6068-.246-1.0817-.614-1.4278-1.105-.3453-.4901-.5436-1.096-.5937-1.8181h-5.0933c.03,1.723.4308,3.155,1.2025,4.297.7707,1.142,1.848,1.994,3.2301,2.5551,1.3821.56,3.0046.841,4.8676.841,1.8533,0,3.438-.27,4.7558-.811,1.3169-.541,2.3281-1.32,3.0345-2.336.7065-1.017,1.0597-2.231,1.0597-3.644,0-.891-.1533-1.698-.4589-2.419s-.7505-1.357-1.3372-1.908Z"/>
    <path fill="#fff" d="M66.8696,138.971c-.5858-.551-1.3019-1.024-2.1484-1.42-.8464-.395-1.8111-.708-2.8928-.939l-1.9378-.45c-.6607-.151-1.2421-.3311-1.7423-.541-.5012-.211-.8871-.474-1.1575-.789-.2704-.316-.4052-.704-.4052-1.165,0-.42.1198-.793.3603-1.119.2404-.325.6007-.581,1.0817-.766.4809-.186,1.0719-.278,1.7731-.278,1.0615,0,1.8877.225,2.4787.676.591.451.9214,1.082.9919,1.893h5.0931c-.0202-1.382-.3806-2.597-1.0817-3.644-.701-1.046-1.6877-1.863-2.9596-2.449-1.2719-.585-2.7748-.8781-4.5074-.8781-1.6929,0-3.1931.288-4.5003.863-1.3072.577-2.336,1.385-3.0874,2.427s-1.1267,2.254-1.1267,3.636c0,1.683.5507,3.025,1.6526,4.026,1.1019,1.002,2.6196,1.723,4.5522,2.164l2.3739.556c.822.18,1.4976.386,2.0287.616.5302.23.9283.496,1.1944.796.2652.301.3981.666.3981,1.097,0,.481-.1427.902-.4281,1.262-.2854.361-.6942.641-1.2243.841-.5311.201-1.1627.301-1.893.301-.8113,0-1.5204-.123-2.1264-.368-.6059-.246-1.0817-.614-1.427-1.105-.3462-.4901-.5435-1.096-.5937-1.8181h-5.0931c.03,1.723.4308,3.155,1.2015,4.297.7716,1.142,1.848,1.994,3.2301,2.5551,1.3829.56,3.0055.841,4.8685.841,1.8524,0,3.4379-.27,4.7549-.811,1.3169-.541,2.3289-1.32,3.0354-2.336.7056-1.017,1.0588-2.231,1.0588-3.644,0-.891-.1524-1.698-.458-2.419s-.7514-1.357-1.3372-1.908Z"/>
    <polygon fill="#fff" points="85.735 127.398 85.735 136.188 76.7959 136.188 76.7959 127.398 71.4922 127.398 71.4922 149.785 76.7959 149.785 76.7959 140.515 85.735 140.515 85.735 149.785 91.0237 149.785 91.0237 127.398 85.735 127.398"/>
    <path fill="#fff" d="M30.4832,74.5672c1.0361,1.0358,2.6757,1.1006,3.7871.1943l.2149-.1943,12.9551-12.9551.1875-.208c.4125-.5035.6415-1.1363.6416-1.7929,0-.6569-.2289-1.2904-.6416-1.794l-.1875-.207-12.9551-12.9551-.2149-.1943c-1.1115-.9066-2.751-.8418-3.7871.1943-1.0361,1.0361-1.1009,2.6756-.1943,3.7871l.1943.2149,10.9531,10.9531-10.9531,10.9541c-1.1052,1.1052-1.1052,2.8977,0,4.0029Z"/>
    <path fill="#fff" d="M73.002,80.3457l.289-.0146c1.427-.145,2.541-1.3502,2.541-2.8155s-1.114-2.6705-2.541-2.8154l-.289-.0146h-22.0098c-1.563,0-2.8301,1.2672-2.8301,2.8301s1.2671,2.8301,2.8301,2.8301h22.0098Z"/>
  </g>
</svg>