 
<svg id="Layer_1" xmlns="http://www.w3.org/2000/svg" version="1.1" viewBox="0 0 180 180" fill="#00a2fa">
  <path fill="inherit" d="M72.5051,1.7054c-1.2196-1.3822-3.1008-1.9813-4.895-1.5589L23.1106,10.6228c-1.6286.3834-2.9574,1.5559-3.5406,3.124L3.6341,56.5954c-.6426,1.7277-.2824,3.6688.9372,5.051l102.9236,116.6476c1.827,2.071,4.987,2.269,7.057.442l60.436-53.325c2.07-1.827,2.268-4.987.441-7.057L72.5051,1.7054ZM35.6064,47.1239c-4.5244-5.1277-4.0354-12.9529,1.0928-17.4776,5.1281-4.5247,12.9529-4.0354,17.4773,1.0925,4.5245,5.1279,4.0354,12.9529-1.0924,17.4773-5.1282,4.5248-12.9529,4.0359-17.4777-1.0922Z"/>
</svg>