 
<svg id="Layer_1" xmlns="http://www.w3.org/2000/svg" version="1.1" viewBox="0 0 180 180" fill="#000d13">
  <path  fill="inherit" d="M-.0002,13C-.0002,5.8203,5.8201,0,12.9998,0h154.0004c7.179,0,13,5.8203,13,13v154c0,7.18-5.821,13-13,13H12.9998C5.8201,180-.0002,174.18-.0002,167V13Z"/>
  <path  fill="#fff" d="M79.6208,83.6864c.6562.6563,1.0253,1.5465,1.0253,2.4746s-.369,1.8192-1.0253,2.4756l-22.6309,22.6294c-1.3668,1.367-3.5824,1.367-4.9492,0-1.3668-1.366-1.3668-3.582,0-4.949l20.1543-20.156-20.1543-20.1553-.124-.1298c-1.2418-1.374-1.2003-3.4951.124-4.8194s3.4454-1.3658,4.8193-.124l.1299.124,22.6309,22.6299ZM125.4712,113.95l-.18-.005h-38.4477c-1.933,0-3.5,1.567-3.5,3.5s1.567,3.5,3.5,3.5h38.4477l.18-.005c1.849-.094,3.32-1.622,3.32-3.495,0-1.872-1.471-3.401-3.32-3.495Z"/>
</svg>