 
<svg id="Layer_1" xmlns="http://www.w3.org/2000/svg" version="1.1" viewBox="0 0 180 180" fill="#007dc1">
  <path fill="inherit" d="M0,13.0002C0,5.8205,5.8203.0002,13,.0002h154c7.18,0,13,5.8203,13,13v153.9996c0,7.18-5.82,13-13,13H13c-7.1797,0-13-5.82-13-13V13.0002Z"/>
  <path fill="#fff" d="M114.775,96.0945c.0004-.0014.0005-.0029.0009-.0043.0009.0002.0022.0006.0031.0009l-.004.0034ZM113.453,88.4159h.006l.098.0568c1.766,1.0192,2.716,2.7791,2.744,5.099.025,2.0383-.646,4.4218-1.95,6.8972-.937,1.788-2.013,3.456-3.152,5.225-2.44,3.783-4.96,7.695-6.628,13.477,1,.839,2.08,1.592,3.219,2.248,1.291-16.836,16.038-27.2203,29.189-27.2203,4.152,0,7.561,1.1078,10.505,3.4499-.561-.8166-1.156-1.6047-1.788-2.358-5.85-6.9949-14.443-11.0051-23.571-11.0051-3.529,0-6.995.5982-10.306,1.7756-1.798.6393-3.523,1.4434-5.159,2.4023,1.238-.421,2.583-.7249,3.874-.7249,1.111,0,2.092.2281,2.919.6776ZM142.192,118.0638c1.332,1.291,2.934,2.25,4.558,2.25.696,0,1.395-.177,2.079-.579,3.495-2.057,4.327-11.7141,1.478-16.743-1.336,7.688-6.343,13.347-8.115,15.069v.003ZM106.819,95.0563c3.6525,0,6.6196.6477,7.9568,1.0339.6447-2.5655.4479-5.2758-1.8679-6.5792-.627-.3544-1.415-.519-2.307-.519-4.143,0-10.505,3.507-12.9297,7.6057,3.1687-1.1615,6.3587-1.5414,9.1477-1.5414ZM109.452,130.8218c.0004.0013.0009.0032.0012.0046.0006-.0002.0012-.0004.0018-.0006l-.003-.004ZM104.688,135.7338c.032,4.058,7.976,9.604,13.756,9.651-5.9656-4.9951-8.3911-12.1642-8.9908-14.5583-2.5443.7242-4.7842,2.256-4.7652,4.9073ZM152.779,115.2058v-.004c-.617,2.783-1.7531,4.669-3.377,5.612-.832.481-1.722.728-2.643.728-2.754,0-5.722-2.1931-8.147-6.013-1.076-1.7-1.981-3.466-2.943-5.334-2.058-4.007-4.185-8.147-8.353-12.4734-1.232.4495-2.422,1.0097-3.555,1.6644,13.93,9.508,15.5569,27.467,8.986,38.868-2.083,3.599-4.741,5.994-8.229,7.371.981-.075,1.962-.199,2.931-.37,4.086-.718,7.906-2.212,11.359-4.444,3.337-2.155,6.188-4.906,8.48-8.172,2.291-3.267,3.902-6.884,4.795-10.755.538-2.33.797-4.694.778-7.068-.025.13-.054.26-.082.39ZM124.587,129.2708c3.599,0,6.774-.3701,9.964-1.158.225-1.288.336-2.599.336-3.909-4.004,1.924-8.255,2.9-12.639,2.9-10.397,0-20.415-5.713-25.5201-14.554-2.0827-3.595-2.8295-7.099-2.2726-10.821-.4272.889-.8102,1.801-1.149,2.728-1.4211,3.893-2.0415,7.951-1.8357,12.059.1962,3.966,1.1521,7.812,2.8328,11.429,1.6807,3.618,4.0071,6.824,6.9126,9.534,1.738,1.62,3.64,3.02,5.685,4.187-.089-.076-.174-.155-.263-.234-2.105-1.924-3.171-3.855-3.171-5.735,0-3.88,3.826-6.447,9.998-6.701.507-.022,1.026-.031,1.586-.031,1.487,0,2.959.072,4.516.149,1.611.079,3.276.161,5.02.161v-.004ZM61.4473,82.4533c-1.933,0-3.5,1.567-3.5,3.5v20.9774l-28.3351-28.3349-.1299-.1241c-1.3739-1.2417-3.4951-1.2002-4.8193.1241-1.3243,1.3242-1.3658,3.4454-.1241,4.8193l.1241.1299,28.6161,28.6158h-21.5399c-1.9329,0-3.4998,1.567-3.5,3.5,0,1.933,1.567,3.5,3.5,3.5h29.708c1.9327-.001,3.5-1.568,3.5-3.5v-29.7075c0-1.9328-1.5673-3.4998-3.5-3.5ZM93.2899,71.4376l.1299.124c1.3739,1.2415,3.4951,1.2001,4.8193-.124,1.3242-1.3242,1.3656-3.4455.1241-4.8194l-.1241-.1308-28.613-28.6122h21.532l.1797-.0049c1.8492-.0938,3.3203-1.6226,3.3203-3.4951s-1.4711-3.4014-3.3203-3.4951l-.1797-.0049h-29.708c-1.8727,0-3.4016,1.4708-3.4951,3.3203l-.0049.1797v29.707c0,1.933,1.567,3.5,3.5,3.5s3.5-1.567,3.5-3.5v-20.9844l28.3397,28.3398Z"/>
</svg>