 
<svg id="Layer_1" xmlns="http://www.w3.org/2000/svg" version="1.1" viewBox="0 0 180 180" fill="#000d13">
  <path fill="inherit" d="M0,13.0001C0,5.8204,5.8203,0,13,0h154c7.18,0,13,5.8203,13,13v153.9998c0,7.18-5.82,13-13,13H13c-7.1797,0-13-5.82-13-13V13.0001Z"/>
  <path fill="#fff" d="M30.75,102.1719h19.0232v4.793h-6.5417v17.112h-5.9392v-17.112h-6.5423v-4.793ZM59.5641,113.5289c.4162.789.8989,1.639,1.4477,2.55l4.8664,7.998h6.4681v-21.905h-6.1154v8.027c0,.696.0294,1.551.088,2.565.059,1.015.125,2.044.1986,3.087.0224.3173.0413.6006.0613.8948-.1638-.4502-.3268-.8839-.4877-1.2768-.3678-.896-.7474-1.717-1.1394-2.462-.392-.745-.8134-1.49-1.2644-2.235l-5.2187-8.6h-6.4687v21.905h6.116v-7.998c0-.597-.022-1.333-.066-2.205-.0446-.872-.103-1.818-.1766-2.837-.0325-.4494-.0671-.9037-.1004-1.3552.2068.4751.4034.9257.5856,1.3402.3866.882.7888,1.718,1.2055,2.507ZM46.681,139.3989c-.7844-.446-1.7643-.732-2.9404-.86v-.147c1.3033-.147,2.3788-.615,3.2267-1.404s1.272-1.791,1.272-3.006c0-1.235-.3507-2.332-1.0513-3.293-.7009-.96-1.6738-1.715-2.9184-2.264-1.2446-.549-2.6752-.823-4.2925-.823-1.6565,0-3.1266.291-4.4105.875-1.2839.583-2.2907,1.389-3.021,2.418s-1.0954,2.215-1.0954,3.558h5.7041c0-.451.1202-.846.3603-1.184s.5735-.603.9998-.794c.4263-.191.9136-.286,1.4627-.286.4999,0,.9381.093,1.3155.279.3776.186.674.441.8897.764.2154.324.3233.701.3233,1.132,0,.441-.1272.831-.3823,1.169-.255.338-.6077.605-1.0584.801-.451.196-.9704.294-1.5583.294h-2.2348v4.117h2.2348c.6466,0,1.213.095,1.698.2859.4852.191.8623.4561,1.1318.794.2695.338.4043.733.4043,1.184s-.1155.847-.3453,1.19c-.2302.344-.554.613-.9702.809-.4166.196-.8993.294-1.4481.294-.5686,0-1.0781-.093-1.5287-.2791-.451-.187-.8037-.444-1.0588-.772-.2549-.328-.3823-.703-.3823-1.125h-5.9682c0,1.363.3797,2.568,1.1394,3.617.7593,1.049,1.808,1.869,3.146,2.462,1.3376.593,2.869.889,4.5938.889,1.7939,0,3.374-.279,4.7411-.838,1.3671-.558,2.4377-1.335,3.2121-2.33.7743-.994,1.1614-2.134,1.1614-3.418,0-.8911-.1959-1.688-.5879-2.389-.392-.7-.9799-1.274-1.764-1.72ZM59.767,144.9279l2.0582-1.706c1.6759-1.382,2.9645-2.577,3.8662-3.587.9016-1.009,1.5265-1.928,1.8745-2.756.348-.828.5219-1.664.5219-2.507,0-1.362-.3505-2.55-1.0508-3.565-.7012-1.014-1.6936-1.801-2.9774-2.36-1.2837-.558-2.8029-.837-4.5571-.837-1.6956,0-3.1755.301-4.4395.904-1.2645.602-2.2423,1.458-2.9328,2.565-.6912,1.108-1.0364,2.431-1.0364,3.969h5.6451c0-.617.1149-1.137.3453-1.558.2302-.421.5536-.743.9702-.963.4165-.22.8993-.331,1.4481-.331s1.0313.108,1.4481.324c.4162.215.7447.521.9848.919.2399.396.3603.874.3603,1.433,0,.519-.1054.9901-.3163,1.411-.2104.421-.5123.831-.9037,1.228-.3926.396-.858.821-1.3967,1.271l-8.174,6.763v4.263h16.818v-4.734h-8.5559v-.146ZM70.3516,132.6619h10.085v.117l-8.5853,17.024h6.1154l8.6443-17.141v-4.763h-16.2594v4.763ZM106.192,132.8059c.764,1.676,1.147,3.695,1.147,6.057s-.383,4.378-1.147,6.049c-.765,1.672-1.867,2.953-3.308,3.845-1.441.892-3.1803,1.337-5.2186,1.337-2.0292,0-3.7636-.445-5.2043-1.337-1.441-.892-2.5462-2.173-3.3151-3.845-.7694-1.67-1.1538-3.687-1.1538-6.049s.3844-4.383,1.1538-6.065c.7691-1.68,1.8741-2.967,3.3151-3.858,1.4407-.892,3.175-1.338,5.2043-1.338s3.7656.448,5.2116,1.345c1.445.897,2.55,2.183,3.315,3.859ZM101.164,138.8629c0-1.392-.135-2.568-.404-3.529-.27-.96-.664-1.69-1.1836-2.19-.5198-.5-1.1566-.75-1.911-.75-.7453,0-1.3799.25-1.904.75-.5246.5-.9213,1.23-1.191,2.19-.2695.961-.4039,2.137-.4039,3.529,0,1.382.132,2.55.3968,3.506.2649.956.6589,1.678,1.1835,2.168.524.491,1.1636.736,1.9186.736.7544,0,1.3912-.245,1.911-.736.5196-.49.9136-1.213,1.1836-2.168.269-.955.404-2.124.404-3.506ZM125.571,132.6909v-4.792h-15.79v21.904h15.73v-4.792h-9.79v-3.94h9.026v-4.675h-9.026v-3.705h9.85ZM49.9637,57.3407l-.1875-.207-12.9551-12.9551-.2148-.1943c-1.1116-.9066-2.751-.8418-3.7871.1943-1.0362,1.0361-1.101,2.6756-.1944,3.7871l.1944.2149,10.9531,10.9531-10.9531,10.9541c-1.1052,1.1052-1.1052,2.8977,0,4.0029,1.1051,1.1048,2.8968,1.1048,4.0019,0l12.9551-12.955.1875-.2081c.4126-.5035.6415-1.1363.6416-1.7929,0-.6569-.2288-1.2903-.6416-1.794ZM53.3281,79.8692h22.0098l.2891-.0146c1.427-.145,2.541-1.3502,2.541-2.8155s-1.114-2.6704-2.541-2.8154l-.2891-.0146h-22.0098c-1.5629,0-2.8301,1.2671-2.8301,2.83s1.2672,2.8301,2.8301,2.8301Z"/>
</svg>