 
<svg id="Layer_1" xmlns="http://www.w3.org/2000/svg" version="1.1" viewBox="0 0 180 180" fill="#000d13">
  <path fill="inherit" d="M0,13.0002C0,5.8204,5.8203.0001,13,.0001h154c7.18,0,13,5.8203,13,13v153.9997c0,7.18-5.82,13-13,13H13c-7.1797,0-13-5.82-13-13V13.0002Z"/>
  <path fill="#fff" d="M30.8047,102.1408h19.0232v4.793h-6.5417v17.112h-5.9391v-17.112h-6.5423v-4.793ZM59.6188,113.4978c.4162.789.8989,1.639,1.4477,2.55l4.8664,7.998h6.4681v-21.905h-6.1154v8.027c0,.696.0294,1.551.088,2.565.059,1.015.125,2.0439.1986,3.087.0223.3172.0413.6005.0613.8947-.1638-.4501-.3267-.8838-.4876-1.2767-.3678-.897-.7474-1.717-1.1394-2.462-.392-.745-.8134-1.49-1.2644-2.235l-5.2187-8.6h-6.4688v21.905h6.116v-7.998c0-.598-.022-1.333-.066-2.205-.0446-.872-.103-1.818-.1766-2.837-.0325-.4498-.0671-.9037-.1004-1.3552.2068.4752.4035.9257.5856,1.3403.3866.882.7887,1.718,1.2055,2.507ZM46.483,140.7388c-.6123-.633-1.3328-1.12-2.1608-1.463-.8286-.343-1.7276-.515-2.6978-.515-1.1075,0-2.0827.216-2.9257.647-.8429.431-1.4358.98-1.7784,1.647h-.1177l.4114-4.823h9.8499v-4.763h-14.7304l-.8527,12.055,5.2333,1.029c.2549-.529.6442-.945,1.1688-1.249.5242-.304,1.1051-.456,1.7419-.456.6078,0,1.1395.13,1.5954.389.4558.26.8136.628,1.0734,1.103.2594.476.3892,1.0359.3892,1.683,0,.638-.1298,1.191-.3892,1.661-.26.471-.6176.836-1.0734,1.096-.4559.2599-.9876.389-1.5954.389-.5289,0-1.0142-.1-1.4551-.301-.4409-.201-.7941-.487-1.0584-.86-.2646-.372-.3972-.808-.3972-1.308h-5.7922c.0196,1.362.4016,2.568,1.1468,3.616.7447,1.049,1.7687,1.87,3.0724,2.463,1.3034.593,2.7982.889,4.4837.889,1.7741,0,3.3202-.333,4.6384-1,1.3182-.666,2.34-1.587,3.0654-2.763.7248-1.176,1.0878-2.5291,1.0878-4.058,0-1.038-.169-1.992-.5073-2.859-.3382-.868-.8134-1.617-1.4261-2.249ZM59.142,148.4978l2.0582-1.705c1.6759-1.382,2.9645-2.578,3.8662-3.587.9016-1.01,1.5265-1.929,1.8745-2.757s.5219-1.664.5219-2.507c0-1.362-.3505-2.55-1.0508-3.565-.7012-1.014-1.6936-1.8-2.9774-2.359-1.2837-.559-2.8029-.838-4.5571-.838-1.6956,0-3.1754.301-4.4395.904-1.2645.603-2.2422,1.458-2.9328,2.565-.6911,1.108-1.0364,2.431-1.0364,3.97h5.6451c0-.618.1149-1.137.3453-1.559.2302-.421.5536-.742.9702-.963.4165-.22.8993-.33,1.4481-.33s1.0314.108,1.4481.323c.4162.216.7447.522.9848.9189.2399.397.3603.875.3603,1.433,0,.52-.1054.99-.3163,1.411-.2105.422-.5123.831-.9038,1.228-.3925.397-.858.821-1.3967,1.272l-8.174,6.762v4.263l16.818.001v-4.734h-8.5559v-.147ZM85.4049,140.7388c-.6123-.633-1.3328-1.12-2.1609-1.463-.8286-.343-1.7275-.515-2.6977-.515-1.1077,0-2.0828.216-2.9258.647-.8428.431-1.4359.98-1.7784,1.647h-.1176l.4113-4.823h9.85v-4.763h-14.7304l-.8528,12.055,5.2333,1.029c.2549-.529.6442-.945,1.1688-1.249.5243-.304,1.1052-.456,1.7419-.456.6078,0,1.1394.13,1.5953.389.4559.26.8136.628,1.0734,1.103.2594.476.3893,1.0359.3893,1.683,0,.638-.1299,1.191-.3893,1.661-.2599.471-.6175.836-1.0734,1.096-.4559.2599-.9875.389-1.5953.389-.5289,0-1.0142-.1-1.4551-.301-.4409-.201-.7942-.487-1.0584-.86-.2647-.372-.3973-.808-.3973-1.308h-5.7921c.0196,1.362.4015,2.568,1.1468,3.616.7447,1.049,1.7686,1.87,3.0724,2.463,1.3033.593,2.7982.889,4.4836.889,1.7741,0,3.3201-.333,4.6383-1,1.3182-.666,2.34-1.587,3.0654-2.763.7249-1.176,1.0879-2.5291,1.0879-4.058,0-1.038-.1691-1.992-.5073-2.859-.3383-.868-.8135-1.617-1.4261-2.249ZM107.598,136.3838c.764,1.676,1.147,3.695,1.147,6.057s-.383,4.379-1.147,6.049c-.765,1.672-1.867,2.953-3.308,3.845-1.44.892-3.18,1.338-5.2184,1.338-2.0292,0-3.7635-.446-5.2043-1.338-1.441-.892-2.5462-2.173-3.315-3.845-.7694-1.67-1.1539-3.687-1.1539-6.049s.3845-4.383,1.1539-6.064c.769-1.681,1.874-2.967,3.315-3.859,1.4407-.892,3.1751-1.338,5.2043-1.338s3.7654.448,5.2114,1.345c1.445.897,2.55,2.183,3.315,3.8589ZM102.57,142.4408c0-1.392-.134-2.568-.404-3.528-.269-.961-.664-1.691-1.183-2.191-.52-.499-1.157-.749-1.9114-.749-.7452,0-1.3799.25-1.904.749-.5246.5-.9213,1.23-1.191,2.191-.2695.96-.4039,2.136-.4039,3.528,0,1.382.132,2.551.3969,3.506.2648.956.6588,1.679,1.1834,2.169.5241.49,1.1636.735,1.9186.735.7544,0,1.3914-.245,1.9114-.735.519-.4901.914-1.213,1.183-2.169.27-.955.404-2.124.404-3.506ZM53.3278,76.5391h-23.359v3.344h23.359v-3.344ZM53.3278,70.133h-23.359v3.3557h23.359v-3.3557ZM36.6406,67.0825h10.0196v-3.3559h-10.0196v3.3559ZM46.6602,57.3283h-10.0196v3.3559h10.0196v-3.3559ZM46.6602,50.9298h-10.0196v3.3559h10.0196v-3.3559ZM46.6602,44.508h-10.0196v3.3559h10.0196v-3.3559ZM53.3278,38.1095h-23.359v3.3557h23.359v-3.3557ZM53.3278,31.711h-23.359v3.3555h23.359v-3.3555ZM93.9218,70.133h-37.2577v3.3557h35.9249c.6069-1.0352,1.059-2.1658,1.3328-3.3557ZM89.7967,57.3283h-26.4529v3.3557h29.2493c-.7617-1.2852-1.7017-2.4156-2.7964-3.3557ZM63.3438,54.2854h26.4529c1.1187-.94,2.0585-2.0706,2.7964-3.3556h-29.2493v3.3556ZM92.5892,38.1095h-35.9251v3.3557h37.2577c-.3094-1.1899-.7615-2.3203-1.3326-3.3557ZM81.5462,31.711h-24.8821v3.3555h33.4617c-2.2372-2.0707-5.2715-3.3555-8.5796-3.3555ZM63.3438,44.508v3.3557h10.0076v-3.3557h-10.0076ZM83.3672,44.508v3.3557h10.4716c.2975-1.0709.4523-2.2015.4523-3.3557h-10.9239ZM63.3438,67.0825h10.0076v-3.3559h-10.0076v3.3559ZM93.8388,63.7266h-10.4716v3.3557h10.9239c0-1.1542-.1548-2.2846-.4523-3.3557ZM90.1377,76.5391h-33.4736v3.3198l24.8821.0359c3.3319,0,6.3424-1.2852,8.5915-3.3557ZM96.7188,79.8831h16.6832v-3.344h-16.6832v3.344ZM96.7188,73.4887h16.6832v-3.3557h-16.6832v3.3557ZM103.383,67.0825h10.019v-3.3559h-10.019v3.3559ZM103.383,60.6842h10.019v-3.3559h-10.019v3.3559ZM118.043,38.1095h-21.3242v3.3557h22.4782l-1.154-3.3557ZM115.829,31.711h-19.1102v3.3555h20.2652l-1.155-3.3555ZM133.414,79.8831h16.695v-3.344h-16.695v3.344ZM133.414,73.4887h16.695v-3.3557h-16.695v3.3557ZM133.414,67.0825h10.019v-3.3559h-10.019v3.3559ZM143.433,57.3283h-10.019v3.3559h10.019v-3.3559ZM133.418,54.2857h10.019v-3.3559h-19.087l-.94,2.7133-.94-2.7133h-19.087v3.3559h10.019v-3.082l1.059,3.082h17.897l1.06-3.082v3.082ZM143.434,44.508h-16.874l-1.154,3.3559h18.028v-3.3559ZM150.109,31.711h-19.111l-1.1541,3.3555h20.265v-3.3555ZM123.412,79.8591l1.154-3.32h-2.308l1.1541,3.32ZM121.194,73.4887h4.426l1.19-3.3557h-6.794l1.178,3.3557ZM118.951,67.0825h8.925l1.178-3.3559h-11.281l1.178,3.3559ZM116.709,60.6842h13.4109l1.142-3.3559h-15.707l1.1541,3.3559ZM103.383,47.8638h18.028l-1.154-3.3559h-16.874v3.3559ZM128.775,38.1095l-1.142,3.3557h22.478v-3.3557h-21.336Z"/>
</svg>