 
<svg id="Layer_1" xmlns="http://www.w3.org/2000/svg" version="1.1" viewBox="0 0 180 180" fill="#ffc930">
  <path fill="inherit" d="M90.2148,14.051c7.1796.0002,13.0002,5.8204,13.0002,13v12.1055h63.785c7.18,0,13,5.8203,13,13v100.7924c0,7.179-5.82,13-13,13H13c-7.1797,0-13-5.821-13-13V27.051c0-7.1797,5.8203-13,13-13h77.2148Z"/>
  <g>
    <path fill="#fff" d="M79.5275,107.084l-14.2118,14.2106v-38.6194c0-1.933-1.567-3.5-3.5-3.5s-3.5,1.567-3.5,3.5v38.9906l-14.5822-14.5818-.1299-.124c-1.3739-1.242-3.495-1.2-4.8193.124-1.3243,1.324-1.3658,3.446-.124,4.82l.124.129,20.3711,20.373c1.3668,1.366,3.5834,1.366,4.9502,0l20.3712-20.373c1.3668-1.366,1.3668-3.582,0-4.949-1.3668-1.367-3.5824-1.367-4.9492,0Z"/>
    <path fill="#fff" d="M140.218,92.084l-20.371-20.3711c-1.324-1.3242-3.446-1.3655-4.819-.124l-.131.124-20.3714,20.3711c-1.3668,1.3668-1.3668,3.5833,0,4.9502,1.3668,1.3664,3.5825,1.3664,4.9492,0l14.2003-14.2012v38.608c0,1.933,1.567,3.5,3.5,3.5s3.5-1.567,3.5-3.5v-39.0003l14.594,14.5936c1.367,1.3663,3.582,1.3665,4.949,0,1.367-1.3669,1.367-3.5834,0-4.9502Z"/>
  </g>
</svg>