 
<svg id="Layer_1" xmlns="http://www.w3.org/2000/svg" version="1.1" viewBox="0 0 180 180" fill="#000d13">
  <path fill="inherit" d="M-.0002,13C-.0002,5.8203,5.8201,0,12.9998,0h154.0004c7.179,0,13,5.8203,13,13v154c0,7.18-5.821,13-13,13H12.9998C5.8201,180-.0002,174.18-.0002,167V13Z"/>
  <path fill="#1ea048" d="M53.3864,70.5078h5.0724v22.1457c0,3.8522-.4357,6.9114-1.3073,9.1775-.8716,2.266-2.4489,4.113-4.7324,5.543-2.2661,1.412-5.2467,2.118-8.9421,2.118-3.5908,0-6.5278-.619-8.8113-1.857-2.2835-1.237-3.9133-3.024-4.8893-5.36-.9762-2.3527-1.4641-5.56-1.4641-9.6213v-22.1458h5.0724v22.1197c0,3.3294.3049,5.787.9151,7.3734.6275,1.568,1.6908,2.78,3.1899,3.634,1.5165.854,3.3641,1.281,5.543,1.281,3.7301,0,6.3883-.845,7.9747-2.536,1.5863-1.691,2.3792-4.9415,2.3792-9.7524l-.0002-22.1198Z"/>
  <path fill="#1ea048" d="M66.8513,108.838v-38.3302h5.2031l20.1325,30.0942v-30.0942h4.8632v38.3302h-5.2031l-20.1325-30.1204v30.1204h-4.8632Z"/>
  <path fill="#1ea048" d="M106.4372,108.838v-38.3302h5.072v38.3302h-5.072Z"/>
  <path fill="#1ea048" d="M116.5542,108.838l14.825-19.9755-13.073-18.3547h6.04l6.955,9.831c1.446,2.0394,2.475,3.6083,3.085,4.7063.854-1.3944,1.865-2.8499,3.033-4.3664l7.713-10.1709h5.517l-13.466,18.0671,14.512,20.2631h-6.275l-9.648-13.6743c-.541-.7844-1.098-1.6386-1.674-2.5624-.854,1.3945-1.464,2.3532-1.83,2.876l-9.622,13.3607h-6.092Z"/>
</svg>