 
<svg id="Layer_1" xmlns="http://www.w3.org/2000/svg" version="1.1" viewBox="0 0 180 180" fill="#007dc1">
  <path fill="inherit" d="M0,13C0,5.8203,5.8203,0,13,0h154c7.18,0,13,5.8203,13,13v154c0,7.18-5.82,13-13,13H13c-7.1797,0-13-5.82-13-13V13Z"/>
  <path fill="#fff" d="M111.994,25.1129c0-2.5406,2.06-4.6002,4.6-4.6002s4.601,2.0596,4.601,4.6002-2.06,4.6003-4.601,4.6003-4.6-2.0596-4.6-4.6003ZM131.597,29.7132c2.541,0,4.601-2.0596,4.601-4.6003s-2.06-4.6002-4.601-4.6002-4.6,2.0596-4.6,4.6002,2.06,4.6003,4.6,4.6003ZM146.598,20.5127c-2.54,0-4.6,2.0596-4.6,4.6002s2.06,4.6003,4.6,4.6003,4.601-2.0596,4.601-4.6003-2.06-4.6002-4.601-4.6002ZM75.8144,56.7923h.0105l.1607.0932c2.8915,1.6686,4.4461,4.5498,4.4928,8.348.0415,3.3371-1.0572,7.239-3.1921,11.2912-1.5339,2.9277-3.2957,5.6587-5.1611,8.5552-3.9952,6.1923-8.1199,12.5971-10.8506,22.0641,1.6375,1.373,3.4043,2.607,5.2699,3.679,2.1141-27.562,26.2563-44.5634,47.7865-44.5634,6.799,0,12.379,1.8136,17.198,5.6482-.917-1.337-1.891-2.6272-2.927-3.8604-9.576-11.4518-23.645-18.0171-38.5892-18.0171-5.7777,0-11.4517.9794-16.8719,2.907-2.9433,1.0467-5.7675,2.3628-8.4465,3.9329,2.0261-.6892,4.2283-1.1867,6.3426-1.1867,1.8189,0,3.425.3729,4.7774,1.1088ZM122.866,105.325v.005c2.181,2.115,4.803,3.684,7.461,3.684,1.14,0,2.285-.289,3.4041-.948,5.722-3.368,7.084-19.1776,2.42-27.4115-2.186,12.5866-10.384,21.8515-13.285,24.6705ZM77.9858,69.3582c-.0012-.0004-.0027-.0007-.0039-.0011-.0005.0021-.0009.0042-.0015.0063l.0054-.0052ZM140.199,100.646c-1.011,4.555-2.871,7.643-5.53,9.188-1.362.787-2.819,1.192-4.327,1.192-4.508,0-9.368-3.591-13.337-9.846-1.763-2.7826-3.244-5.6741-4.819-8.7314-3.369-6.5602-6.851-13.3381-13.6755-20.4216-2.0156.7359-3.9642,1.6529-5.8192,2.7256,22.8057,15.5662,25.4687,44.9674,14.7117,63.6334-3.41,5.891-7.763,9.813-13.4733,12.068,1.6065-.124,3.2126-.326,4.7984-.607,6.6899-1.176,12.9439-3.622,18.5979-7.275,5.462-3.528,10.13-8.032,13.882-13.38,3.751-5.347,6.389-11.27,7.85-17.607.881-3.814,1.306-7.685,1.275-11.571-.042.212-.088.425-.135.637l.001-.005ZM77.9819,69.3571c1.0551-4.2006.7324-8.638-3.0588-10.7718-1.026-.5804-2.3162-.8499-3.7775-.8499-6.7829,0-17.1984,5.7415-21.1675,12.4519,5.1869-1.9016,10.4102-2.5234,14.9755-2.5234,5.9817,0,10.8398,1.0609,13.0284,1.6932ZM69.2665,126.225c-4.1649,1.1864-7.8315,3.6941-7.8005,8.0349.0519,6.644,13.0582,15.722,22.5201,15.8-9.7676-8.1776-13.7375-19.9166-14.7196-23.835ZM94.0441,123.679c5.8917,0,11.0889-.606,16.312-1.896.368-2.11.55-4.255.55-6.4-6.556,3.15-13.5147,4.7469-20.6913,4.7469-17.0224,0-33.4228-9.353-41.781-23.8264-3.4096-5.8865-4.6326-11.623-3.7206-17.7168-.6996,1.4561-1.3265,2.9485-1.8811,4.4668-2.3266,6.3736-3.3423,13.0167-3.0053,19.7424.3213,6.493,1.8863,12.789,4.6378,18.712,2.7515,5.923,6.5601,11.172,11.3172,15.608,2.8447,2.652,5.959,4.943,9.3063,6.855-.1451-.124-.2849-.254-.4301-.383-3.4459-3.151-5.1922-6.312-5.1922-9.39,0-6.3521,6.2646-10.5551,16.3694-10.97.8289-.037,1.6788-.052,2.596-.052,2.4354,0,4.8448.119,7.3945.244,2.6374.13,5.3632.264,8.2184.264v-.005ZM69.2646,126.218c.0005.0021.0013.005.0019.0071.0011-.0003.0022-.0007.0033-.001l-.0052-.006Z"/>
</svg>