 
<svg id="Layer_1" xmlns="http://www.w3.org/2000/svg" version="1.1" viewBox="0 0 180 180" fill="#263577" width="3rem">
  <rect style="fill:none"/>
  <g>
    <path fill="inherit" d="M92.2173,86.9648c-1.3924.7109-3.0414.7109-4.4339,0L11.909,48.2259c-3.5427-1.8088-3.5451-6.8701-.0041-8.6822L87.7794.715c1.3946-.7137,3.0473-.7137,4.442,0l75.8739,38.8287c3.541,1.8121,3.539,6.8734-.004,8.6822l-75.874,38.7389Z"/>
    <path fill="inherit" d="M171.0943,142.8963c1.641-.83,2.675-2.512,2.675-4.35l.006-80.465c.001-3.6322-3.828-5.9893-7.071-4.353l-72.0415,36.3504c-1.6444.8298-2.6809,2.5154-2.6791,4.3574l.0771,80.5072c.0034,3.632,3.8346,5.985,7.0757,4.346l71.9578-36.393Z"/>
    <path fill="inherit" d="M8.9061,142.8963c-1.6406-.83-2.6749-2.512-2.675-4.35l-.0064-80.465c-.0003-3.6322,3.8288-5.9893,7.0716-4.353l72.0414,36.3504c1.6444.8298,2.6808,2.5154,2.6791,4.3574l-.0771,80.5072c-.0035,3.632-3.8346,5.985-7.0757,4.346L8.9061,142.8963Z"/>
  </g>
</svg>