 
<svg id="Layer_1" xmlns="http://www.w3.org/2000/svg" version="1.1" viewBox="0 0 180 180" fill="#000000">
  <!-- Generator: Adobe Illustrator 29.4.0, SVG Export Plug-In . SVG Version: 2.1.0 Build 152)  -->
  <path fill="inherit" d="M163.2799,132.0573c-.108.576-3.727,12.944-12.367,25.545-7.706,11.0909-15.753,22.163-27.995,22.163s-15.392-7.112-29.5239-7.112c-13.7729,0-18.669,7.345-29.8667,7.345s-19.0105-10.261-27.9945-22.864c-10.4052-14.798-18.8127-37.787-18.8127-59.6069,0-34.997,22.7558-53.5577,45.1509-53.5577,11.8997,0,21.8188,7.8129,29.2902,7.8129,7.111,0,18.2007-8.2809,31.7387-8.2809,5.131,0,23.565.468,35.699,17.8586-1.044.8105-19.479,11.1977-19.479,34.295,0,26.7161,23.458,36.1681,24.16,36.4021ZM92.0726,41.534c8.1733,0,18.4532-5.4726,24.3932-12.8356,5.599-6.6428,9.56-15.8609,9.56-25.0779,0-1.2786-.108-2.5743-.342-3.6188-9.11.3425-19.947,6.0663-26.4824,13.6462-5.1302,5.8323-9.9189,15.0503-9.9189,24.394,0,1.4041.234,2.8083.3415,3.2582.5765.1075,1.5124.2339,2.4485.2339Z"/>
</svg>