 
<svg id="Layer_1" xmlns="http://www.w3.org/2000/svg" version="1.1" xmlns:xlink="http://www.w3.org/1999/xlink" viewBox="0 0 180 180">
  <defs>
    <radialGradient id="radial-gradient" cx="17.0475" cy="156.9002" fx="17.0475" fy="156.9002" r="1" gradientTransform="translate(-171.3716 2070.9504) scale(13.3977 -12.6557)" gradientUnits="userSpaceOnUse">
      <stop offset="0" stop-color="#000"/>
      <stop offset="1" stop-color="#000" stop-opacity=".25"/>
    </radialGradient>
    <radialGradient id="radial-gradient1" cx="13.9198" fx="13.9198" r="1" gradientTransform="translate(-129.1042 2078.2738) scale(16.6412 -12.6557)" xlink:href="#radial-gradient"/>
    <radialGradient id="radial-gradient2" cx="33.611" cy="137.6199" fx="33.611" fy="137.6199" r="1" gradientTransform="translate(-141.2702 1057.2811) scale(6.5929 -7.0309)" xlink:href="#radial-gradient"/>
    <linearGradient id="linear-gradient" x1="243.0562" y1="-261.5726" x2="271.9244" y2="-310.1656" gradientTransform="translate(-216 -124) scale(1 -1)" gradientUnits="userSpaceOnUse">
      <stop offset="0" stop-color="#b98309"/>
      <stop offset="1" stop-color="#382605"/>
    </linearGradient>
    <linearGradient id="linear-gradient1" x1="335.344" y1="-301.0865" x2="364.419" y2="-253.7815" gradientTransform="translate(-216 -124) scale(1 -1)" gradientUnits="userSpaceOnUse">
      <stop offset="0" stop-color="#3e2a06"/>
      <stop offset="1" stop-color="#ad780a"/>
    </linearGradient>
    <linearGradient id="linear-gradient2" x1="289.5858" y1="-146.0522" x2="297.2701" y2="-153.8893" gradientTransform="translate(-216 -124) scale(1 -1)" gradientUnits="userSpaceOnUse">
      <stop offset="0" stop-color="#646464" stop-opacity="0"/>
      <stop offset=".31" stop-color="#646464" stop-opacity=".58"/>
      <stop offset=".47" stop-color="#646464"/>
      <stop offset=".73" stop-color="#646464" stop-opacity=".26"/>
      <stop offset="1" stop-color="#646464" stop-opacity="0"/>
    </linearGradient>
    <linearGradient id="linear-gradient3" x1="314.3296" y1="-145.7344" x2="322.9135" y2="-153.9036" xlink:href="#linear-gradient2"/>
    <radialGradient id="radial-gradient3" cx=".4015" cy="129.9269" fx=".4015" fy="129.9269" r="1" gradientTransform="translate(636.6103 812.6175) rotate(-35.9213) scale(8.0585 -7.3058)" gradientUnits="userSpaceOnUse">
      <stop offset="0" stop-color="#020204"/>
      <stop offset=".73" stop-color="#020204"/>
      <stop offset="1" stop-color="#5c5c5c"/>
    </radialGradient>
    <linearGradient id="linear-gradient4" x1="287.0073" y1="-184.2634" x2="320.247" y2="-170.6013" gradientTransform="translate(-216 -124) scale(1 -1)" gradientUnits="userSpaceOnUse">
      <stop offset="0" stop-color="#d2940a"/>
      <stop offset=".75" stop-color="#d89c08"/>
      <stop offset=".87" stop-color="#b67e07"/>
      <stop offset="1" stop-color="#946106"/>
    </linearGradient>
    <linearGradient id="linear-gradient5" x1="284.8821" y1="-172.5093" x2="319.2212" y2="-172.2394" gradientTransform="translate(-216 -124) scale(1 -1)" gradientUnits="userSpaceOnUse">
      <stop offset="0" stop-color="#ad780a"/>
      <stop offset=".12" stop-color="#d89e08"/>
      <stop offset=".25" stop-color="#edb80b"/>
      <stop offset=".39" stop-color="#ebc80d"/>
      <stop offset=".53" stop-color="#f5d838"/>
      <stop offset=".77" stop-color="#f6d811"/>
      <stop offset="1" stop-color="#f5cd31"/>
    </linearGradient>
    <linearGradient id="linear-gradient6" x1="305.6009" y1="-154.7376" x2="320.9942" y2="-154.8587" gradientTransform="translate(-216 -124) scale(1 -1)" gradientUnits="userSpaceOnUse">
      <stop offset="0" stop-color="#747474"/>
      <stop offset=".13" stop-color="#8c8c8c"/>
      <stop offset=".25" stop-color="#a4a4a4"/>
      <stop offset=".5" stop-color="#d4d4d4"/>
      <stop offset=".62" stop-color="#d4d4d4"/>
      <stop offset="1" stop-color="#7c7c7c"/>
    </linearGradient>
    <linearGradient id="linear-gradient7" x1="284.9111" y1="-156.6654" x2="296.6032" y2="-156.7573" xlink:href="#linear-gradient6"/>
    <linearGradient id="linear-gradient8" x1="354.7982" y1="-249.6436" x2="346.3832" y2="-268.5986" gradientTransform="translate(-216 -124) scale(1 -1)" gradientUnits="userSpaceOnUse">
      <stop offset="0" stop-color="#110800"/>
      <stop offset="1" stop-color="#ff921e" stop-opacity="0"/>
    </linearGradient>
  </defs>
  <path fill="#000d13" d="M89.2455.001c-4.223,0-8.446.8307-12.3233,2.8937-4.0151,2.1876-7.4076,5.6906-9.4155,9.8236-2.0773,4.1331-2.908,8.5497-3.0457,13.4165-.208,9.2421.2764,18.9273.9685,27.7123.1386,2.6723.485,4.2299.1386,6.9783-1.1072,5.8359-6.2309,9.7612-8.9995,14.8842-2.9774,5.656-4.2923,12.0457-6.5083,18.0341-2.0764,5.4828-5.0538,10.6193-6.9924,16.1373-2.7695,7.712-3.6003,16.193-1.7308,24.182,1.3851,6.085,4.223,11.796,8.1698,16.684-.5543,1.011-1.108,2.049-1.7308,3.053-1.8002,3.115-4.0159,6.071-5.0536,9.526-.4851,1.724-.6931,3.565-.3465,5.337.3464,1.772,1.2466,3.469,2.6308,4.59.9.734,2.0773,1.212,3.1842,1.475,1.1772.263,2.3546.325,3.531.304,4.5001-.097,8.8618-1.454,13.2235-2.596,2.5614-.671,5.1229-1.274,7.7538-1.813,9.2768-1.89,19.5922-1.129,28.1769.103,2.908.444,5.816,1.018,8.654,1.71,4.5,1.087,9,2.465,13.57,2.596,1.245.035,2.492-.02,3.669-.283,1.177-.264,2.285-.741,3.254-1.496,1.384-1.121,2.354-2.824,2.631-4.597.345-1.772.138-3.62-.347-5.351-1.038-3.461-3.323-6.404-5.123-9.505-.761-1.233-1.453-2.486-2.146-3.711,5.538-6.238,10.039-13.451,12.6-21.378,2.839-8.646,3.392-17.965,2.215-26.985-1.245-9.0206-4.084-17.7642-7.891-26.051-4.708-10.3774-8.723-14.1296-11.562-23.254-3.116-9.8512-.554-21.5163-2.908-30.4539-.831-3.0392-2.146-5.9398-3.808-8.5982-2.008-3.1153-4.5-5.8983-7.547-8.0652C101.3612,1.8424,95.4073.001,89.2455.001Z"/>
  <path fill="#fdfdfb" d="M72.4859,52.0335c-.6228.7893-1.0387,1.7514-1.3151,2.7345-.2771.9831-.3464,2.0008-.4158,3.0183-.0692,2.0354.0693,4.1053-.4842,6.0644-.5544,2.0976-1.8696,3.9183-3.116,5.6838-2.2151,3.0598-4.43,6.2097-5.4685,9.8166-.6921,2.1805-.9,4.493-.6236,6.7637-2.4922,3.5861-4.5687,7.4076-6.3688,11.3812-2.6308,6.023-4.5002,12.434-5.1231,18.989-.7615,8.024.2072,16.276,3.3923,23.69,2.2843,5.359,5.7459,10.26,10.1769,14.089,2.215,1.938,4.7081,3.593,7.4075,4.901,9.2083,4.534,20.6318,4.541,29.7697-.291,4.708-2.527,8.723-6.216,12.601-9.948,2.353-2.25,4.638-4.555,6.438-7.255,3.392-5.213,4.569-11.54,5.331-17.723,1.315-10.799,1.315-22.215-3.392-32.011-1.662-3.3713-3.809-6.4798-6.439-9.1729-.692-4.7145-2.077-9.3321-4.085-13.6519-1.453-3.129-3.184-6.1061-4.5-9.2697-.554-1.3015-1.039-2.6377-1.661-3.9114-.623-1.2738-1.385-2.4922-2.423-3.4684-1.039-1.0038-2.354-1.71-3.6699-2.1599-1.3843-.4569-2.8386-.6646-4.2922-.7338-2.9081-.1454-5.8153.2352-8.7232.1106-2.2843-.0899-4.5696-.4915-6.8539-.353-1.1772.0693-2.3536.2699-3.3922.7061-1.108.4292-2.0778,1.1007-2.7699,2.0008Z"/>
  <path style="fill: url(#radial-gradient); isolation: isolate; opacity: .32;" d="M62.2434,80.9861c.6229.9207-.3464,4.1053,14.0542,2.0699,0,0-2.5614.2699-5.0536.8446-3.8774,1.2944-7.2003,2.7413-9.8313,4.6521-2.5615,1.8969-4.5002,4.3684-6.8539,6.4799,0,0,3.8765-6.9715,4.7765-9.0759.9695-2.1045-.1377-2.0008.6236-5.0952.7615-3.0944,2.6308-6.0715,2.6308-6.0715,0,0-1.5236,4.3752-.3463,6.1961Z"/>
  <path style="isolation: isolate; opacity: .32; fill: url(#radial-gradient1);" d="M108.5612,80.1475c-2.977,2.0423-4.708,1.8002-8.239,2.1947-3.5309.4016-13.154.2562-13.154.2562,0,0,1.3851-.0207,4.4309.5469,3.1158.5747,9.4151,1.1216,12.9461,2.4646,3.6,1.35,4.847,1.7377,6.993,3.0946,3.115,1.9313,5.33,4.9637,8.308,7.0889,0,0,.137-2.8108-1.039-4.9152-1.247-2.1045-4.431-5.4137-5.331-8.5082-.969-3.0944-1.385-9.1659-1.385-9.1659,0,0-.623,4.9151-3.53,6.9434Z"/>
  <path style="isolation: isolate; opacity: .32; fill: url(#radial-gradient2);" d="M80.9292,75.8057c-.0685.8792-.2072,1.7584-.4149,2.6306-.0692.4293-.1387.8585-.3465,1.2669-.1377.4084-.3455.8031-.692,1.0938-.2771.2562-.6228.4362-.9694.5954-1.3843.6162-2.8379,1.0316-4.3617,1.2254.6236.0415,1.1772.097,1.8002.1592.4159.0417.7615.0832,1.1079.1731.3464.1039.7615.2424,1.0387.457.3457.2492.6228.5815.7615.9414.4149.72.5536,1.5507.6228,2.3746.0693,1.0384.0693,2.0908,0,3.136.0693-.6992.2079-1.3914.4159-2.0561.4149-1.2115,1.0376-2.3331,1.9378-3.2675.3464-.3669.693-.7131,1.1079-.997,1.2466-.886,2.9081-1.2737,4.4309-1.066-1.5922.0624-3.1843-.4223-4.3616-1.3569-.6921-.4776-1.2456-1.0662-1.5922-1.7584-.6228-1.0662-.7617-2.3678-.4853-3.5515Z"/>
  <path style="isolation: isolate; opacity: .32;" fill="#000d13" d="M77.1926,96.4307c-.7615,2.8383-1.2466,5.7323-1.5228,8.6533-.4159,4.133-.2772,8.287-.4851,12.427-.2079,3.51-.6228,7.061,0,10.523.2772,1.654.7615,3.267,1.5228,4.77.1387-.575.2079-1.157.2771-1.738.2772-2.811-.2079-5.629-.4149-8.446-.2771-4.936.415-9.872.6921-14.801.2072-3.794.2072-7.594-.0692-11.3883Z"/>
  <path fill="#000d13" d="M58.9799,70.9551c-4.2922,4.8599-8.7231,9.5813-11.1461,14.8496-1.2466,2.6723-1.8002,5.5731-2.6308,8.3836-.9,3.1915-2.2159,6.2857-3.6002,9.2977-1.3158,2.776-2.7694,5.49-4.2229,8.196-1.0387,1.98-2.1466,3.988-2.4923,6.196-.2772,1.745-.1387,3.545.3457,5.255.4158,1.703,1.1079,3.337,1.9386,4.908,3.4615,6.708,8.5847,12.489,14.7463,16.92,2.7694,2.007,5.746,3.738,8.8618,5.171,1.6615.762,3.4615,1.454,5.3309,1.481.9.021,1.8686-.131,2.6993-.505.8315-.374,1.5929-.969,2.1465-1.751.6228-.956.8308-2.146.6921-3.275-.1387-1.135-.5535-2.215-1.1763-3.184-1.4544-2.382-3.7389-4.105-5.9547-5.802-4.7766-3.683-9.3462-7.566-13.7771-11.658-1.2457-1.163-2.4923-2.347-3.323-3.814-.9-1.419-1.3151-3.033-1.6616-4.659-.8307-4.452-.6228-9.132.9-13.41.6228-1.675,1.3844-3.268,2.1466-4.8737,1.3151-2.7762,2.5616-5.6075,4.2923-8.1552,2.1459-3.1707,4.9845-5.8569,6.7845-9.256,1.4535-2.8798,2.0764-6.1061,2.6307-9.2836.4149-2.4922,1.315-4.9221,1.7307-7.4074-.8307,1.6131-3.5995,4.2645-5.261,6.376Z"/>
  <path fill="#000d13" d="M128.6331,89.3862c3.669,2.963,6.023,7.442,6.785,12.1218.554,3.642.138,7.387-.693,10.98-.761,3.6-2.076,7.075-3.323,10.543-.484,1.385-1.039,2.783-1.246,4.237-.207,1.461-.069,3.005.693,4.292.761,1.489,2.284,2.506,3.876,2.984,1.662.478,3.392.464,4.985.062,1.593-.401,4.362-.921,5.677-1.945,3.323-2.596,4.154-7.103,4.915-11.056.831-4.126.416-8.446-.276-12.62-1.039-5.684-2.7-11.2432-4.778-16.6085-1.592-3.946-3.6-7.7189-5.953-11.2219-2.354-3.4338-5.677-6.113-8.101-9.4775-.9-1.163-1.868-2.3746-2.768-3.5583-1.801-2.5407-1.385-2.063-2.493-3.7176-.831-1.1906-2.077-1.5993-3.462-2.1254-1.315-.5192-2.838-.6716-4.223-.2839-1.868.5123-3.323,1.9592-4.154,3.683-.761,1.7307-.9,3.7107-.622,5.5867.414,2.4231,1.522,4.6729,2.769,6.7776,1.384,2.3885,3.046,4.6868,5.192,6.4591,2.216,1.8485,4.915,3.0741,7.2,4.8879Z"/>
  <path style="fill: url(#linear-gradient);" d="M38.4949,123.279c.9685-.401,2.0763-.477,3.115-.291,1.0387.194,2.0079.644,2.9081,1.226,1.7308,1.184,2.9767,2.901,4.2231,4.597,2.8379,3.897,5.6072,7.878,8.0995,12.011,2.0079,3.358,3.8081,6.826,6.1617,9.969,1.5228,2.063,3.1852,3.967,4.708,6.016,1.5228,2.049,2.9072,4.271,3.6002,6.729.8308,3.205.4843,6.722-1.0387,9.671-1.0387,2.077-2.7001,3.856-4.708,5.054-2.0071,1.205-4.0845,1.738-6.4381,1.738-3.7388,0-7.339-1.987-10.8005-3.358-7.0616-2.804-14.677-3.676-21.9458-5.85-2.2159-.671-4.431-1.467-6.6468-2.077-1.0387-.276-2.0072-.512-2.9766-.941-.9695-.422-1.8002-1.059-2.3545-1.945-.4149-.693-.5536-1.503-.5536-2.299s.2079-1.585.4843-2.333c.5544-1.495,1.3851-2.852,2.0079-4.334.9695-2.423,1.108-5.088,1.0387-7.684-.1387-2.596-.5535-5.178-.7615-7.774-.0692-1.156-.1387-2.333.1387-3.476.2071-1.142.692-2.256,1.5228-3.06.7615-.747,1.8002-1.19,2.8387-1.405,1.0377-.221,2.1458-.228,3.2537-.208,1.0387.021,2.1458.083,3.1843-.007,1.1079-.083,2.1466-.325,3.1158-.858.9-.505,1.5924-1.26,2.2152-2.077.5535-.824,1.0386-1.724,1.5921-2.617.4852-.886.9695-1.772,1.6616-2.561.6236-.789,1.4545-1.468,2.3547-1.856Z"/>
  <path fill="#d99a03" d="M40.0142,124.946c.9-.353,1.9387-.394,2.8379-.187.9.215,1.8002.665,2.5625,1.247,1.5228,1.163,2.5615,2.789,3.53,4.403,2.4238,3.897,4.7773,7.836,6.9924,11.851,1.7307,3.033,3.3238,6.12,5.4004,8.896,1.3851,1.842,2.9081,3.538,4.3616,5.359,1.3843,1.82,2.6307,3.8,3.2538,6.016.8307,2.852.4851,6.009-.9,8.619-1.0377,1.889-2.5615,3.489-4.3617,4.562-1.8684,1.066-4.015,1.599-6.1608,1.502-3.3933-.152-6.5084-1.848-9.6927-2.998-6.1617-2.222-12.8076-2.519-19.108-4.25-2.2158-.616-4.4309-1.426-6.7152-2.001-.9694-.249-2.0079-.464-2.9773-.865-.9695-.395-1.8694-1.018-2.3535-1.911-.4159-.664-.5545-1.447-.5545-2.215.0693-.762.2773-1.523.5545-2.243.4843-1.433,1.3842-2.728,1.9378-4.161.8315-2.167.9694-4.548.7623-6.86-.1387-2.312-.5544-4.618-.6931-6.93-.0692-1.039-.0692-2.084.1387-3.102.208-1.017.692-2,1.3851-2.734.8307-.789,1.9379-1.219,3.0459-1.399,1.1079-.166,2.2158-.09,3.3922.007,1.1079.104,2.2158.229,3.3922.167,1.1079-.076,2.2159-.347,3.1853-.983.8308-.568,1.4535-1.406,1.9378-2.299.4851-.893.8308-1.855,1.2467-2.797.3464-.948.7615-1.889,1.3151-2.734.5543-.838,1.3846-1.572,2.2846-1.96Z"/>
  <path fill="#f5bd0c" d="M39.2604,122.75c.8307-.423,1.8684-.506,2.7686-.319.9695.194,1.8002.651,2.5615,1.246,1.4544,1.198,2.4239,2.901,3.3239,4.576,1.9378,3.843,3.8765,7.761,6.2301,11.382,1.7307,2.623,3.7388,5.067,5.5388,7.677,2.3536,3.538,4.3616,7.435,5.1229,11.603.5536,2.81.5536,5.843-.8307,8.369-.9,1.669-2.3536,3.033-4.0151,3.877-1.7307.859-3.6694,1.205-5.6081,1.039-3.0458-.263-5.7459-1.738-8.5846-2.769-5.0537-1.821-10.4541-2.264-15.6464-3.642-2.1458-.581-4.2921-1.329-6.5072-1.786-.9694-.208-2.0079-.353-2.9081-.706-.9694-.353-1.8003-.935-2.2844-1.793-.3464-.603-.4851-1.309-.4158-1.994.0692-.686.2771-1.35.5543-1.994.4843-1.267,1.3151-2.43,1.7308-3.738.6228-1.932.3456-4.023-.0692-6.003-.4852-1.966-1.1772-3.897-1.3851-5.912-.0692-.893-.0693-1.807.1386-2.686.208-.879.6229-1.716,1.2467-2.347.9-.81,2.0764-1.218,3.2537-1.329,1.1772-.111,2.3536.042,3.531.215,1.1764.166,2.3534.346,3.5308.291,1.1764-.049,2.423-.353,3.323-1.08.9-.72,1.4536-1.78,1.8003-2.873.3456-1.108.4842-2.25.5535-3.393.1386-1.142.3465-2.291.7615-3.35.4852-1.066,1.1768-2.042,2.2847-2.561Z"/>
  <path style="fill: url(#linear-gradient1);" d="M164.3522,156.737c-1.592,1.883-3.808,3.129-6.023,4.257-3.739,1.904-7.615,3.586-11.146,5.885-2.423,1.536-4.57,3.343-6.646,5.296-1.731,1.661-3.393,3.44-5.331,4.853-2.008,1.433-4.292,2.464-6.715,2.824-.624.097-1.316.146-2.008.146-2.285,0-4.57-.547-6.646-1.461-1.939-.824-3.739-2.015-4.847-3.773-1.108-1.772-1.385-3.925-1.385-6.016,0-3.676.693-7.318,1.316-10.945.554-3.019,1.108-6.037,1.385-9.083.623-5.525.623-11.111.207-16.67-.069-.928-.138-1.863,0-2.784.139-.92.554-1.841,1.246-2.443.623-.561,1.523-.817,2.354-.859.9-.048,1.731.083,2.631.208,2.008.298,4.016.519,5.953,1.045,1.247.319,2.493.755,3.739,1.094,2.078.554,4.223.824,6.37.575,2.284-.263,4.499-1.122,6.784-1.066.97.02,1.87.194,2.77.484.968.291,1.868.707,2.492,1.392.554.519.9,1.177,1.176,1.855.416,1.018.624,2.098.694,3.178.068.962.068,1.945.276,2.893.277,1.551,1.108,2.977,2.146,4.196,1.039,1.225,2.216,2.256,3.462,3.274,1.176,1.025,2.423,2.036,3.738,2.929.623.422,1.246.816,1.8,1.274.624.463,1.177.996,1.524,1.64.345.575.484,1.212.484,1.869,0,.36-.069.727-.139,1.094-.345,1.004-.9,1.98-1.661,2.839Z"/>
  <path fill="#cd8907" d="M164.2242,151.956c-.414.935-.9,1.814-1.592,2.576-1.453,1.702-3.461,2.824-5.469,3.828-3.462,1.717-6.993,3.219-10.247,5.289-2.145,1.384-4.153,3.004-6.023,4.763-1.592,1.502-3.115,3.101-4.915,4.368-1.8,1.288-3.877,2.208-6.092,2.534-2.701.388-5.47-.118-7.962-1.177-1.731-.748-3.393-1.8-4.362-3.399-1.039-1.586-1.246-3.524-1.246-5.407,0-3.309.623-6.584,1.177-9.838.485-2.706.969-5.42,1.246-8.162.554-4.977.554-9.996.208-14.987-.069-.838-.138-1.683,0-2.507.138-.83.485-1.654,1.108-2.201.623-.512,1.385-.741,2.215-.775.762-.042,1.523.083,2.354.193,1.8.27,3.669.471,5.47.935,1.107.298,2.215.692,3.392.99,1.869.506,3.807.741,5.746.519,2.146-.242,4.153-1.01,6.231-.962.9.021,1.73.18,2.561.436.831.256,1.662.63,2.284,1.246.486.471.831,1.066,1.039,1.675.416.907.623,1.876.692,2.86,0,1.031-.207,2.056-.069,3.073.069.824.416,1.606.9,2.306.416.706.969,1.343,1.524,1.979,1.037,1.233,2.076,2.479,3.392,3.42,1.523,1.08,3.254,1.71,4.777,2.707.485.305.899.644,1.246,1.087.554.748.693,1.759.415,2.631Z"/>
  <path fill="#f5c021" d="M164.0081,150.897c-.484.948-.969,1.828-1.662,2.61-1.453,1.814-3.531,3.06-5.607,3.863-3.531,1.322-7.339,1.495-10.8,2.997-2.077.914-3.946,2.292-5.885,3.6-1.523,1.052-3.115,2.07-4.776,2.804-1.939.831-3.947,1.294-6.024,1.627-1.316.208-2.63.36-3.946.291-1.246-.07-2.562-.381-3.738-1.053-.9-.505-1.662-1.225-2.147-2.174-.553-1.052-.623-2.277-.623-3.475.07-3.164.762-6.299.693-9.47,0-2.762-.554-5.483-.693-8.238-.346-5.303.831-10.689-.208-15.889-.138-.837-.346-1.661-.346-2.512,0-.423.069-.852.208-1.247.208-.387.416-.747.762-.996.277-.208.554-.333.899-.395.347-.055.623-.042.97.007.692.104,1.316.36,1.939.547,1.869.547,3.807.533,5.676.948,1.108.256,2.285.686,3.462.99,1.938.54,3.946.762,5.953.533,2.147-.256,4.224-1.031,6.37-.976.9.021,1.8.187,2.631.436.83.257,1.73.617,2.353,1.267.485.471.762,1.073,1.039,1.689.416.907.692,1.89.692,2.887,0,.519-.069,1.039-.139,1.558-.068.519-.068,1.045.07,1.544.138.505.415.962.693,1.377.276.416.622.79.9,1.198.899,1.129,1.522,2.451,2.215,3.725.622,1.274,1.384,2.533,2.423,3.454,1.453,1.246,3.323,1.745,4.984,2.734.485.291.9.624,1.247,1.087.277.367.415.81.484,1.274.069.457.069.942-.069,1.378Z"/>
  <path fill="#fff" d="M73.9376,28.9439c-1.0387.0554-2.0764.5538-2.9072,1.2945-.7622.7339-1.3158,1.7031-1.6622,2.7276-.6921,2.0492-.5536,4.2716-.4149,6.4314.1387,1.9454.2772,3.9392,1.0387,5.753.3456.9137.9,1.7653,1.5923,2.4646.6228.6992,1.5227,1.2391,2.4921,1.4746.9.2214,1.8003.18,2.7003-.097.9-.2768,1.6614-.7754,2.3535-1.4193.9694-.9346,1.5922-2.1598,1.9387-3.4406.4148-1.2877.4843-2.6377.4843-3.9807,0-1.6753-.2763-3.3577-.7614-4.943-.5536-1.5922-1.3844-3.0946-2.5615-4.2991-.5536-.5815-1.1764-1.0869-1.9387-1.4469-.6921-.3601-1.5233-.5608-2.354-.5191Z"/>
  <path fill="#000d13" d="M77.885,25.7123c1.5228,1.4193,2.6308,3.1775,3.3923,5.0328-.3464-2.0422-.9001-3.6968-2.2151-5.0328-.8308-.7685-1.7307-1.44-2.8387-1.9106-.8999-.4153-1.9386-.6786-2.4922-.6854-.6228-.0139-.7615,0-.8307.0069-.1387.007-.2773.007.1386.0623.3456.0415,1.2457.27,2.1459.6786.9.4084,1.8691,1.0797,2.6999,1.8482Z"/>
  <path fill="#fff" d="M92.9689,28.5183c-1.7808,1.1894-3.2053,2.8493-3.9185,4.8296-.926,2.5004-.5696,5.2928.2853,7.7929.926,2.5716,2.4218,5.0148,4.6304,6.5534,1.14.7764,2.4219,1.3035,3.7757,1.4603,1.353.1638,2.7784-.0641,3.9884-.6837,1.426-.7693,2.565-2.1084,3.278-3.6044.712-1.503.996-3.1628,1.068-4.8153.142-2.1013-.072-4.2385-.784-6.233-.712-2.1585-2.136-4.16-4.06-5.3996-.926-.6269-2.066-1.0543-3.206-1.2109-1.1393-.1567-2.2792-.0356-3.3479.3775-.6408.2349-1.2112.5627-1.7094.9332Z"/>
  <path fill="#000d13" d="M98.4531,21.9229c-.3457.3669-.5536.7546-.7615,1.1906,1.2466.2838,2.4926.8168,3.6006,1.5576,2.215,1.4261,3.808,3.5099,4.984,5.8292.277-.2977.485-.6161.692-.9624-1.107-2.4229-2.768-4.6107-5.054-6.0852-1.038-.6993-2.2147-1.246-3.4611-1.5298Z"/>
  <path style="isolation: isolate; opacity: .2588;" fill="#000d13" d="M71.0341,62.8194c1.0387,2.9907,3.1152,5.5452,5.6074,7.532.8308.6715,1.6623,1.2808,2.6308,1.7099.9694.436,2.0079.6854,3.1158.5884.9694-.0829,2.0071-.4916,2.9071-.9968.9-.5052,1.7308-1.1145,2.5615-1.6685,1.5238-.9484,3.1158-1.7099,4.7081-2.5545,1.8694-1.0177,3.6695-2.1808,5.2617-3.6137.6921-.6577,1.3843-1.3708,2.1458-1.9384.8319-.5677,1.7999-.9761,2.7689-.9068.693.0553,1.386.3601,2.078.5191.415.0761.761.1109,1.108.0555.345-.0555.761-.2077.968-.4708.347-.3253.485-.7892.416-1.2391,0-.4431-.139-.8792-.346-1.2739-.415-.7961-1.038-1.4747-1.315-2.3261-.278-.7615-.208-1.5783-.208-2.3675,0-.803,0-1.6337-.346-2.3469-.277-.533-.762-.9622-1.316-1.2391-.553-.2907-1.108-.436-1.731-.4916-1.245-.1177-2.4226.1246-3.669.187-1.5922.09-3.1843-.1039-4.8458-.0139-2.0079.1246-3.9466.7061-5.9537.713-2.3535.007-4.6388-.7476-6.9232-.3877-.9694.1524-1.8695.5055-2.8387.81-.9.3185-1.8694.5954-2.8386.5815-1.1764-.0207-2.2151-.4084-3.323-.4847-.5536-.0414-1.1764,0-1.6615.1939-.5536.2008-1.0387.5537-1.2456,1.0523-.208.2838-.2772.6091-.2772.9275s.0692.6371.1387.9554c.1387.6161.4149,1.1976.6228,1.793.9,2.153,1.0382,4.5139,1.7997,6.7015Z"/>
  <path fill="#000d13" d="M78.5128,41.15c1.0387-1.1977,1.8003-2.6723,2.8387-3.9044.4844-.6232,1.1079-1.1908,1.8002-1.5924.6923-.4016,1.5228-.623,2.2843-.5537.9.0761,1.7307.5191,2.423,1.1283.6236.6162,1.1079,1.3916,1.5238,2.1947.3456.7822.692,1.6061,1.1763,2.2776.6236.72,1.3851,1.2045,2.1466,1.7721.3457.2838.6921.5886.9695.9414.2764.3601.4844.7754.6229,1.2255.0692.4569,0,.9346-.1388,1.3707-.1387.4362-.4148.8309-.7614,1.1562-.6921.6439-1.5923.9969-2.4923,1.1217-1.8694.263-3.7389-.2839-5.6081-.2356-1.8685.0556-3.7378.7132-5.6073.6508-.9694-.0346-1.9387-.2631-2.7002-.8029-.3464-.27-.6921-.6162-.9695-1.0177-.2079-.4016-.3456-.8654-.4148-1.3362,0-.4499.1377-.9.2764-1.3084.2079-.4153.4851-.7824.7615-1.1352.5544-.6993,1.2464-1.274,1.8692-1.9525Z"/>
  <path fill="#000d13" d="M96.4408,32.01c-.6236.0415-1.2466.2631-1.8002.5955-.5543.3391-.9695.796-1.3159,1.3222-.7615,1.0523-1.1079,2.333-1.1079,3.5997-.0685.9553.0693,1.9177.3465,2.8176.3464.9.8999,1.7377,1.5921,2.3399.7615.6232,1.7308.997,2.7003,1.0453.9694.0417,2.0078-.2353,2.7693-.796.6232-.4433,1.1772-1.0523,1.5232-1.7377.346-.6854.623-1.4469.692-2.2152.208-1.3568,0-2.7829-.623-4.0013-.623-1.2254-1.7308-2.2292-3.0458-2.6998-.5544-.2077-1.1078-.3118-1.7306-.2702Z"/>
  <path fill="#000d13" d="M70.7533,35.8543c-.2079,1.364-.208,2.7899.2771,4.0846.2772.8584.8308,1.6338,1.4536,2.3053.4158.436.8308.8307,1.3851,1.087.5536.2631,1.1765.3669,1.7308.2284.5536-.1316,1.0376-.4776,1.3842-.9069.3465-.4292.5537-.9415.6921-1.4676.4852-1.5578.4159-3.2539-.0692-4.8046-.3456-1.1352-.9-2.2222-1.8002-2.9837-.4843-.367-.9684-.6508-1.5228-.7754-.5535-.1384-1.108-.1038-1.6615.1315-.5536.2562-1.0387.7546-1.3151,1.3084-.2772.5537-.4156,1.17-.5541,1.793Z"/>
  <path fill="#000d13" d="M68.1927,54.2875c2.0079,1.2323,3.808,2.7623,5.3308,4.493,1.3843,1.6061,2.5615,3.4335,4.4309,4.6244,1.2457.8446,2.8387,1.3154,4.431,1.4607,1.8001.1731,3.6694-.1039,5.4686-.5886,1.6623-.443,3.2546-1.0799,4.7774-1.9037,2.7694-1.5854,5.1229-3.9044,8.1698-4.9431.692-.2353,1.384-.3945,2.007-.6783.692-.2699,1.316-.6924,1.592-1.2876.277-.5747.278-1.2255.416-1.8553.069-.6715.277-1.3223.415-1.987.139-.6715.139-1.3776-.138-1.9937-.277-.5054-.762-.9068-1.315-1.163-.485-.2563-1.108-.367-1.731-.3947-1.246-.0554-2.4233.2284-3.6697.3323-1.5923.1314-3.1843-.0624-4.8458-.0069-2.0079.0554-3.9466.4706-5.9537.5608-2.2851.097-4.5696-.2423-6.9232-.3116-.9694-.0346-1.9387-.0207-2.9081.1385-1.0387.1592-1.9386.4569-2.7694.9692-.8307.4845-1.4535,1.1492-2.215,1.7168-.3464.2907-.7615.5537-1.1772.7546-.4149.1939-.9.3392-1.3843.3601-.2772.0068-.4851-.007-.7615.0276-.4158.0553-.7615.2769-1.0387.5815-.2079.3184-.3464.7202-.2079,1.094Z"/>
  <path style="fill: url(#linear-gradient4);" d="M68.2619,52.7686c0,.187.0693.3531.208.5123.1387.2699.3456.4915.6227.6715.2772.187.5545.3462.8309.5054,1.3851.8931,2.5614,2.1393,3.6,3.4613,1.3159,1.7722,2.5615,3.7315,4.431,5.0192,1.2456.9138,2.8386,1.4261,4.4309,1.5853,1.8002.1868,3.6694-.1109,5.4686-.6371,1.6623-.4845,3.2546-1.1699,4.7774-2.0769,2.7694-1.7099,5.1229-4.2298,8.1698-5.3651.692-.2423,1.384-.4152,2.007-.72.692-.3116,1.316-.7615,1.592-1.4054.277-.623.278-1.3362.416-2.0213.069-.72.277-1.4261.415-2.153.139-.7198.139-1.4954-.138-2.1598-.277-.5538-.762-.99-1.315-1.2601-.485-.2838-1.108-.4084-1.731-.436-1.246-.0555-2.4233.2492-3.6697.367-1.5922.1453-3.1843-.0624-4.8458-.0139-2.0079.0624-3.9466.5123-5.9537.6091-2.2851.1039-4.5696-.2423-6.9232-.3392-.9694-.0414-1.9386-.0276-2.9773.1453-.9695.1592-1.9386.4986-2.7001,1.0592-.8308.5469-1.4536,1.2945-2.2151,1.9246-.3464.3184-.7615.6091-1.1772.8168-.4149.2146-.9.3462-1.3843.3323-.2772-.0068-.4851-.0415-.7615.0276-.1386.0485-.2772.1385-.4159.2423-.0693.1178-.1387.2424-.2764.367-.2079.2977-.3464.6163-.4851.9416Z"/>
  <path fill="#604405" d="M73.3125,47.7141c-.8307.4777-1.5923,1.0038-2.423,1.5507-.3464.2838-.7615.5886-.9694,1.0316-.1387.3116-.208.6576-.208,1.0038v1.0385c-.0685.2353-.1377.4638-.1377.6993,0,.1177,0,.2355.0693.353,0,.1107.0684.2215.1376.3046.1387.1177.2773.187.416.2284.1387.0415.2771.0624.4149.0969.693.1731,1.3158.6022,1.8694,1.1008.5543.4845,1.0386,1.0385,1.6614,1.4952,1.5238,1.253,3.5309,1.7723,5.5388,1.8001,2.008.0346,3.9459-.3809,5.8845-.8169,1.5228-.3462,3.0466-.6924,4.5002-1.2391,2.2843-.8309,4.3617-2.0769,6.1617-3.6483.8307-.7061,1.5923-1.4884,2.4923-2.063.8307-.5192,1.7307-.8515,2.5617-1.3362.069-.0415.138-.097.208-.1453.069-.0555.138-.1246.207-.1939.069-.1316.069-.2977,0-.4361-.069-.1385-.138-.2699-.207-.3877-.139-.1246-.208-.2353-.347-.3531-.9-.7339-2.0762-1.0038-3.1841-1.0938-1.1772-.0831-2.2851-.0207-3.3922-.2146-1.1079-.1731-2.0774-.5676-3.1159-.893-1.0377-.3392-2.1458-.6091-3.2537-.7893-2.6307-.4291-5.3309-.3462-7.8924.1868-2.4922.5123-4.8458,1.4398-6.9924,2.7206Z"/>
  <path style="fill: url(#linear-gradient5);" d="M73.0381,44.9662c-1.1772.7893-2.2158,1.7516-3.1158,2.8383-.5536.6301-.9694,1.3084-1.2456,2.0699-.2079.6022-.2772,1.2391-.4158,1.8623,0,.2353-.0693.4638-.0693.7061,0,.1109,0,.2285.0693.3462,0,.1178.0691.2214.1386.3048.1387.1383.3464.2214.5536.2631.2079.0346.3464.0414.5543.0624.9.1038,1.7308.5261,2.423,1.0316.7615.4984,1.4536,1.0869,2.2151,1.5646,1.5922,1.0453,3.6001,1.5092,5.6081,1.5853,1.9386.0761,3.8765-.2146,5.8152-.6022,1.5228-.3048,3.0466-.6715,4.5002-1.2391,2.215-.8793,4.223-2.2223,6.1617-3.6484.9-.6508,1.7307-1.3152,2.4922-2.0698.2772-.2563.5536-.5192.8307-.7547.2772-.2355.6226-.4362.9696-.5537.484-.1663,1.108-.1178,1.661-.0276.415.0692.831.1663,1.246.1524.208-.0139.416-.0556.624-.1317.207-.0761.345-.1938.484-.3601.208-.2145.277-.4984.277-.7683,0-.2838-.069-.5537-.208-.7961-.277-.4776-.761-.8029-1.246-1.0245-.762-.3116-1.454-.457-2.215-.6439-2.2846-.5469-4.5005-1.3569-6.5771-2.3954-1.0387-.5123-2.0773-1.0801-3.1158-1.6338-1.0377-.5608-2.1458-1.1007-3.2538-1.4537-2.5614-.7754-5.3308-.5194-7.8923.36-2.8387.9692-5.3312,2.6992-7.2691,4.956Z"/>
  <path fill="#735421" d="M79.2023,41.5218c-.4843-.1731-1.3844.7754-1.1072,1.2599.0692.1316.3457.3047.4843.2145.2772-.1385.4852-.63.6922-.8168.2079-.1246.1386-.5954-.0693-.6576Z"/>
  <path fill="#735421" d="M86.1944,41.7844c.1387.4501.8308.3739,1.2467.5884.4148.1939.692.6023,1.1079.6232.4149.0069.9693-.1455,1.0376-.54.0693-.5123-.692-.8446-1.1763-1.0316-.6228-.2353-1.3851-.367-2.0079-.0415-.1387.0761-.2773.2562-.208.4015Z"/>
  <path style="fill: url(#linear-gradient6);" d="M89.2619,32.6982s1.9416-6.8764,8.3036-6.0316c6.3617.8447,8.1127,8.3949,8.1127,8.3949,0,0-2.076-3.5569-8.0826-3.9232-6.0072-.3664-8.3337,1.5599-8.3337,1.5599Z"/>
  <path style="fill: url(#linear-gradient7);" d="M68.7969,37.3959s-1.5277-8.5208,5.0977-9.3838c4.8859-.6363,7.2297,7.7153,7.2297,7.7153,0,0-1.228-3.655-5.8114-4.0212-4.5835-.3664-6.516,5.6897-6.516,5.6897Z"/>
  <path style="fill: url(#linear-gradient8);" d="M146.1752,128.81c-.347-.664-.97-1.163-1.662-1.454-.692-.29-1.454-.387-2.216-.38-1.453.014-2.976.401-4.499.276-1.247-.117-2.424-.588-3.669-.886-1.247-.311-2.631-.429-3.878-.09-1.384.367-2.561,1.274-3.323,2.458-.623,1.038-.969,2.271-1.039,3.503-.138,1.225.001,2.458.139,3.69.069.886.139,1.772.416,2.638.207.865.484,1.71,1.038,2.43.762,1.045,1.869,1.786,3.116,2.229,1.938.727,4.153.692,6.092-.104,3.461-1.488,6.369-4.161,8.169-7.456.623-1.177,1.108-2.437,1.454-3.731.139-.52.207-1.046.207-1.579s-.068-1.073-.345-1.544Z"/>
  <path fill="#000d13" d="M147.5352,125.662c-.277-.665-.693-1.26-1.246-1.738-.554-.478-1.177-.844-1.8-1.121-1.316-.554-2.77-.769-4.154-1.025-1.316-.249-2.631-.554-3.947-.775-1.384-.236-2.838-.388-4.223-.076-1.176.263-2.284.886-3.184,1.703-.9.824-1.592,1.855-2.077,2.963-.9,1.959-1.177,4.16-1.038,6.306.138,1.6.553,3.24,1.592,4.445.831.976,2.077,1.585,3.323,1.952,2.146.637,4.431.602,6.577-.09,3.531-1.177,6.577-3.503,8.723-6.528.692-1.011,1.247-2.098,1.523-3.282.208-.899.208-1.869-.069-2.734Z"/>
</svg>