 
<svg id="Layer_1" xmlns="http://www.w3.org/2000/svg" version="1.1" viewBox="0 0 180 180" fill="#a397f1">
  <path fill="inherit" d="M0,13.0002C0,5.8205,5.8203.0002,13,.0002h154c7.18,0,13,5.8203,13,13v153.9996c0,7.18-5.82,13-13,13H13c-7.1797,0-13-5.82-13-13V13.0002Z"/>
  <path fill="#fff" d="M93.4961,100.9358v29.707c0,1.933-1.5672,3.5-3.5,3.5h-29.7079c-1.933,0-3.5-1.567-3.5-3.5.0002-1.933,1.5672-3.5,3.5-3.5h21.5388l-28.6152-28.6154-.124-.1299c-1.2418-1.3739-1.2003-3.4951.124-4.8193,1.3242-1.3243,3.4454-1.3658,4.8193-.124l.1299.124,28.3351,28.3354v-20.9778c0-1.9331,1.567-3.5001,3.5-3.5001,1.9328.0003,3.5,1.5672,3.5,3.5001ZM126.912,81.6006l-.124-.1308-28.613-28.6122h21.532l.18-.0049c1.849-.0938,3.32-1.6225,3.32-3.4951s-1.471-3.4013-3.32-3.4951l-.18-.0049h-29.708c-1.8727,0-3.4016,1.4708-3.4951,3.3203l-.0049.1797v29.707c0,1.933,1.567,3.5,3.5,3.5s3.5-1.567,3.5-3.5v-20.9843l28.34,28.3397.13.124c1.374,1.2415,3.495,1.2001,4.819-.124,1.324-1.3242,1.366-3.4454.124-4.8194Z"/>
</svg>