 
<svg id="Layer_1" xmlns="http://www.w3.org/2000/svg" version="1.1" viewBox="0 0 180 180" fill="#000d13">
  <path fill="inherit" d="M0,13.0002C0,5.8204,5.8203.0001,13,.0001h154c7.18,0,13,5.8203,13,13v153.9997c0,7.18-5.82,13-13,13H13c-7.1797,0-13-5.82-13-13V13.0002Z"/>
  <path fill="#a80c30" d="M29.8203,44.1876h16.2007v36.0516h-16.2007v-36.0516ZM64.6797,80.2393h16.2007v-36.0516h-16.2007v36.0516ZM134.938,44.1876v36.0516h15.031v-36.0516h-15.031ZM116.922,80.2393h16.201v-36.0516h-16.201v36.0516ZM47.8359,80.2393h15.0312v-36.0516h-15.0312v36.0516ZM82.7031,80.2393h15.0311v-36.0516h-15.0311v36.0516ZM99.5156,80.2393h15.5714v-36.0516h-15.5714v36.0516Z"/>
  <path fill="#fff" d="M39.9031,59.0604c.0043.0365.0743.2478.0729.2478,0,0-.0816-.185-.1152-.2229-.6379-.7312-1.5643-1.1216-2.7149-1.1216-2.358,0-5.0096,2.1017-5.0204,6.1274-.0117,4.9549,2.6072,6.882,5.1401,6.8719,1.0414-.0044,2.0594-.3772,2.5707-1.0762.0218-.0276.0888-.185.0888-.1881,0,0-.0511.1911-.0511.3453-.0029.0175-.0015.0728.0014.7179l3.1651-.0057.0014-18.1702-3.1375.0029-.0014,6.4715ZM37.5394,68.2498c-1.1491,0-2.275-1.2426-2.2766-3.7827-.0029-2.6669,1.0999-3.8569,2.2766-3.8569,1.1783,0,2.2823,1.2221,2.2779,3.8569-.0043,2.9218-1.0997,3.7827-2.2779,3.7827ZM144.068,52.586v18.173h-3.17v-18.173h3.17ZM53.7578,58.1016h3.1693v12.6542h-3.1693v-12.6542ZM57.1482,53.625c0,.9961-.8082,1.8046-1.8046,1.8046s-1.8045-.8083-1.8045-1.8046c0-.9977.8083-1.8045,1.8045-1.8045s1.8046.8067,1.8046,1.8045ZM74.981,59.0578c.0045.035.0743.2477.0729.2477,0,0-.0816-.1849-.1151-.2228-.6379-.7312-1.5643-1.1216-2.7149-1.1216-2.3582,0-5.0105,2.1016-5.0207,6.126-.0116,4.9566,2.6075,6.8826,5.1403,6.8724,1.0415-.0029,2.0595-.3759,2.5708-1.0749.0218-.0292.0887-.1852.0887-.1881,0,0-.0452.1646-.051.2039-.0029.0249-.0029.6235-.0029,1.8309,0,1.6036-1.1477,2.2764-2.3348,2.2925-1.0456.0144-1.8846-.5113-2.0448-1.3968l-3.0122.9131c.6423,1.8251,2.5168,2.9669,5.0569,2.9989,3.3515.0437,5.1809-1.8309,5.3222-5.2187l.0014-13.2208-2.9568.0014v.9568ZM72.617,68.247c-1.1767,0-2.275-1.2149-2.2765-3.7842-.0028-2.6654,1.0996-3.8553,2.2765-3.8553,1.1782,0,2.2823,1.222,2.278,3.8553-.0044,2.9233-1.0996,3.7842-2.278,3.7842ZM88.6328,58.1016h3.1693v12.6542h-3.1693v-12.6542ZM92.0153,53.625c0,.9961-.8067,1.8046-1.8045,1.8046-.9962,0-1.8046-.8083-1.8046-1.8046,0-.9977.8082-1.8045,1.8046-1.8045.9976,0,1.8045.8067,1.8045,1.8045ZM109.472,68.4083c.587.0247,1.152-.2346,1.411-.418v2.4209c-.526.3232-1.493.5766-2.374.565-2.263-.0276-3.071-1.4333-3.004-3.5656v-7.3032h-1.591v-2.1513h1.591v-4.7031l3.033-.9249v5.628h2.236v2.1513h-2.236v7.0147c-.013.9774.295,1.257.934,1.2861ZM129.878,68.57v-7.6204c-.003-2.8242-2.828-3.4986-4.559-3.4885-1.931.0132-4.208.8899-4.882,3.1417l2.638.7996c.128-.823.823-1.5922,2.2-1.5951,1.34-.0043,1.847.5288,1.841,1.1784-.005.6583-.403,1.0823-1.025,1.2905-.768.2578-1.409.4255-2.819.7837-2.6461.6744-3.471,2.5373-3.451,3.8567.032,1.9736,1.144,4.1511,3.926,4.1861,1.182.0146,2.726-.5506,3.387-1.442l.066.0016v1.0982h2.932v-.0714c-.316-.3074-.251-1.8498-.254-2.1192ZM127.185,65.5037c-.014,1.7494-.998,3.0385-2.649,3.0661-1.352.0218-1.886-.9104-1.879-1.6867.007-.8884.581-1.5291,1.35-1.7346,1.878-.4995,3.086-.8275,3.178-1.0938v1.449Z"/>
  <path fill="#fff" d="M38.2161,124.3399l-7.6927-22.387h5.9649l3.1103,9.781c.4906,1.623.9637,3.326,1.4196,5.109.2614,1.0222.5237,2.0844.7866,3.169.2541-1.0894.5059-2.1547.7535-3.177.4302-1.777.8812-3.478,1.3521-5.1l2.9901-9.7809h5.8895l-7.4822,22.386h-7.0917ZM61.2683,124.3319h5.2887v-18.059h6.7761v-4.327h-18.8409v4.327h6.7761v18.059ZM31.1875,134.6289v4.658l5.0332-3.4709h.1503v17.774h5.2888v-22.387h-5.4839l-4.9883,3.426ZM62.3317,136.2178c.7413,1.712,1.1122,3.776,1.1122,6.19s-.3709,4.475-1.1122,6.183c-.7413,1.707-1.8128,3.017-3.2151,3.928-1.4023.912-3.095,1.368-5.0782,1.368-1.9736,0-3.6587-.456-5.0557-1.368-1.3976-.911-2.4717-2.221-3.2228-3.929-.7513-1.707-1.1271-3.768-1.1271-6.182s.373-4.48,1.1195-6.198c.7462-1.718,1.8203-3.032,3.2228-3.944,1.4022-.9109,3.0896-1.367,5.0632-1.367s3.6635.458,5.0707,1.375c1.4071.916,2.4814,2.231,3.2227,3.944ZM57.9901,142.4079c0-1.543-.1527-2.847-.4585-3.914s-.7511-1.881-1.3372-2.442c-.5858-.561-1.3045-.841-2.156-.841-.8412,0-1.5552.28-2.141.841-.5858.561-1.0319,1.375-1.3372,2.442-.3056,1.066-.4585,2.371-.4585,3.914,0,1.532.1506,2.829.451,3.891.3004,1.062.7462,1.868,1.3372,2.419.5906.551,1.3074.826,2.1486.826.8513,0,1.5702-.275,2.156-.826.5863-.551,1.0316-1.357,1.3372-2.419s.4585-2.359.4585-3.891ZM84.733,142.4079c0,2.414-.3709,4.475-1.1122,6.183-.7412,1.707-1.8129,3.017-3.2152,3.928-1.4022.912-3.0948,1.368-5.0781,1.368-1.9736,0-3.6587-.456-5.0557-1.368-1.3976-.911-2.4717-2.221-3.2227-3.929-.7514-1.707-1.1273-3.768-1.1273-6.182s.3731-4.48,1.1196-6.198c.7461-1.718,1.8202-3.032,3.2227-3.944,1.4022-.9109,3.0896-1.367,5.0632-1.367s3.6636.458,5.0707,1.375c1.407.916,2.4814,2.231,3.2227,3.944.7413,1.712,1.1122,3.776,1.1122,6.19ZM79.2792,142.4079c0-1.543-.1526-2.847-.4585-3.914-.3058-1.067-.751-1.881-1.3372-2.442-.5857-.561-1.3045-.841-2.156-.841-.8412,0-1.5552.28-2.141.841-.5857.561-1.0319,1.375-1.3371,2.442-.3056,1.066-.4586,2.371-.4586,3.914,0,1.532.1507,2.829.451,3.891.3004,1.062.7461,1.868,1.3371,2.419.5907.551,1.3074.826,2.1486.826.8514,0,1.5703-.275,2.156-.826.5863-.551,1.0316-1.357,1.3372-2.419s.4585-2.359.4585-3.891Z"/>
</svg>