 
<svg id="Layer_1" xmlns="http://www.w3.org/2000/svg" version="1.1" viewBox="0 0 180 180" fill="#000d13">
  <path fill="inherit" d="M0,13.0002C0,5.8204,5.8203.0001,13,.0001h154c7.18,0,13,5.8203,13,13v153.9997c0,7.18-5.82,13-13,13H13c-7.1797,0-13-5.82-13-13V13.0002Z"/>
  <path fill="#a80c30" d="M29.9141,44.1876h16.2006v36.0516h-16.2006v-36.0516ZM64.7734,80.2392h16.2007v-36.0516h-16.2007v36.0516ZM135.031,44.1876v36.0516h15.031v-36.0516h-15.031ZM117.016,80.2392h16.2v-36.0516h-16.2v36.0516ZM47.9297,80.2392h15.0311v-36.0516h-15.0311v36.0516ZM82.7969,80.2392h15.0311v-36.0516h-15.0311v36.0516ZM99.6094,80.2392h15.5716v-36.0516h-15.5716v36.0516Z"/>
  <path fill="#fff" d="M39.9968,59.0604c.0043.0365.0744.2478.0729.2478,0,0-.0816-.185-.1151-.2229-.6379-.7312-1.5643-1.1216-2.7148-1.1216-2.358,0-5.0098,2.1017-5.0204,6.1274-.0117,4.9549,2.6072,6.882,5.14,6.8719,1.0415-.0044,2.0595-.3772,2.5707-1.0762.0219-.0276.0888-.185.0888-.1881,0,0-.0511.1911-.0511.3453-.0028.0175-.0014.0728.0015.7179l3.165-.0057.0014-18.1702-3.1374.0029-.0014,6.4715ZM37.6332,68.2497c-1.1492,0-2.2751-1.2425-2.2766-3.7827-.0029-2.6669,1.0997-3.8569,2.2766-3.8569,1.1784,0,2.2822,1.2221,2.2779,3.8569-.0043,2.9218-1.0997,3.7827-2.2779,3.7827ZM144.162,52.586v18.173h-3.17v-18.173h3.17ZM53.8516,58.1016h3.1693v12.6542h-3.1693v-12.6542ZM57.242,53.625c0,.9961-.8083,1.8046-1.8046,1.8046s-1.8046-.8083-1.8046-1.8046c0-.9977.8084-1.8045,1.8046-1.8045s1.8046.8067,1.8046,1.8045ZM75.0748,59.0578c.0045.035.0743.2477.0728.2477,0,0-.0815-.1849-.1151-.2228-.6379-.7312-1.5643-1.1216-2.7148-1.1216-2.3582,0-5.0106,2.1016-5.0208,6.126-.0115,4.9566,2.6076,6.8826,5.1404,6.8724,1.0415-.0029,2.0595-.3759,2.5707-1.0749.0219-.0292.0888-.1852.0888-.1881,0,0-.0453.1646-.0511.2039-.0028.0249-.0029.6235-.0029,1.8309,0,1.6036-1.1477,2.2764-2.3347,2.2925-1.0456.0144-1.8847-.5113-2.0449-1.3969l-3.0121.9132c.6422,1.8251,2.5168,2.9668,5.0568,2.9989,3.3515.0437,5.181-1.8309,5.3221-5.2187l.0015-13.2208-2.9568.0014v.9568ZM72.7108,68.247c-1.1768,0-2.2751-1.2149-2.2765-3.7842-.0029-2.6654,1.0995-3.8553,2.2765-3.8553,1.1782,0,2.2822,1.222,2.2779,3.8553-.0043,2.9233-1.0995,3.7842-2.2779,3.7842ZM88.7266,58.1016h3.1693v12.6542h-3.1693v-12.6542ZM92.1091,53.625c0,.9961-.8068,1.8046-1.8046,1.8046-.9962,0-1.8045-.8083-1.8045-1.8046,0-.9977.8082-1.8045,1.8045-1.8045.9976,0,1.8046.8067,1.8046,1.8045ZM109.566,68.4083c.587.0247,1.152-.2346,1.4109-.418v2.4209c-.526.3232-1.493.5766-2.374.565-2.263-.0276-3.072-1.4333-3.005-3.5655v-7.3032h-1.59v-2.1513h1.59v-4.7031l3.034-.9249v5.628h2.236v2.1513h-2.236v7.0146c-.013.9774.294,1.257.934,1.2861ZM129.98,68.57v-7.6204c-.003-2.8242-2.828-3.4986-4.559-3.4885-1.931.0132-4.208.8899-4.882,3.1417l2.638.7996c.128-.823.823-1.5922,2.2-1.5951,1.34-.0043,1.847.5288,1.841,1.1784-.005.6583-.403,1.0823-1.025,1.2905-.7679.2578-1.409.4255-2.819.7837-2.646.6744-3.471,2.5373-3.451,3.8567.032,1.9736,1.144,4.1511,3.926,4.1861,1.182.0146,2.726-.5506,3.387-1.442l.066.0016v1.0982h2.932v-.0713c-.316-.3074-.251-1.8498-.254-2.1192ZM127.287,65.5037c-.014,1.7494-.998,3.0385-2.649,3.0661-1.352.0218-1.886-.9104-1.879-1.6867.007-.8884.581-1.5291,1.35-1.7346,1.878-.4995,3.086-.8274,3.178-1.0938v1.449Z"/>
  <path fill="#fff" d="M38.3099,124.3399l-7.6927-22.387h5.9648l3.1104,9.781c.4907,1.623.9637,3.326,1.4195,5.109.2614,1.0222.5237,2.0844.7866,3.1691.2541-1.0894.5059-2.1548.7535-3.1771.4303-1.777.8813-3.478,1.3521-5.1l2.9902-9.781h5.8894l-7.4822,22.386h-7.0916ZM61.362,124.3319h5.2887v-18.059h6.7761v-4.327h-18.8409v4.327h6.7761v18.059ZM38.9441,149.1528l2.7796-2.584c1.6225-1.402,2.8721-2.614,3.7485-3.636.8764-1.022,1.4821-1.945,1.8182-2.772.3351-.826.5029-1.665.5029-2.516,0-1.332-.3406-2.507-1.0214-3.524-.6814-1.016-1.6455-1.8069-2.8924-2.374-1.2468-.565-2.7117-.848-4.3946-.848-1.6327,0-3.0649.3-4.2968.901-1.2324.601-2.1917,1.452-2.8774,2.554-.6863,1.102-1.0295,2.409-1.0295,3.922h5.0483c0-.682.1304-1.262.3907-1.743.2604-.481.6258-.847,1.0967-1.097.4708-.25,1.0219-.376,1.653-.376.6212,0,1.1694.12,1.6451.361.4757.24.8515.584,1.1271,1.029.2753.446.4132.979.4132,1.6,0,.571-.1155,1.092-.3459,1.563-.2303.471-.5632.944-.9988,1.419-.4361.476-.9643.995-1.5853,1.556l-8.1431,7.197v3.801h16.4969v-4.282h-9.135v-.151ZM58.569,149.1528l2.7796-2.584c1.6226-1.402,2.8722-2.614,3.7486-3.636.8764-1.022,1.482-1.945,1.8181-2.772.3352-.826.503-1.665.503-2.516,0-1.332-.3406-2.507-1.0214-3.524-.6814-1.016-1.6455-1.8069-2.8924-2.374-1.2468-.565-2.7117-.848-4.3946-.848-1.6327,0-3.0649.3-4.2969.901-1.2323.601-2.1917,1.452-2.8774,2.554-.6862,1.102-1.0294,2.409-1.0294,3.922h5.0483c0-.682.1304-1.262.3907-1.743.2603-.481.6258-.847,1.0967-1.097.4708-.25,1.0219-.376,1.653-.376.6211,0,1.1693.12,1.6451.361.4757.24.8515.584,1.1271,1.029.2753.446.4132.979.4132,1.6,0,.571-.1155,1.092-.3459,1.563-.2303.471-.5632.944-.9988,1.419-.436.476-.9642.995-1.5852,1.556l-8.1431,7.197v3.801h16.4969v-4.282h-9.1351v-.151ZM89.2017,142.4079c0,2.414-.3709,4.475-1.1122,6.183-.7413,1.707-1.8128,3.017-3.2151,3.928-1.4023.912-3.095,1.368-5.0782,1.368-1.9736,0-3.6587-.456-5.0557-1.368-1.3976-.911-2.4717-2.221-3.2227-3.929-.7514-1.707-1.1272-3.768-1.1272-6.182s.3731-4.48,1.1196-6.198c.7462-1.718,1.8203-3.032,3.2227-3.944,1.4023-.911,3.0896-1.367,5.0632-1.367s3.6636.458,5.0707,1.375c1.4071.916,2.4814,2.231,3.2227,3.944.7413,1.712,1.1122,3.776,1.1122,6.19ZM83.748,142.4079c0-1.543-.1528-2.847-.4586-3.914-.3058-1.067-.7511-1.881-1.3372-2.442-.5857-.561-1.3045-.841-2.156-.841-.8412,0-1.5552.28-2.141.841-.5857.561-1.0318,1.375-1.3371,2.442-.3056,1.066-.4586,2.371-.4586,3.914,0,1.532.1506,2.829.451,3.891.3004,1.062.7462,1.868,1.3372,2.419.5906.551,1.3073.826,2.1485.826.8514,0,1.5703-.275,2.156-.826.5863-.551,1.0316-1.357,1.3372-2.419s.4586-2.359.4586-3.891Z"/>
</svg>