 
<svg id="Layer_1" xmlns="http://www.w3.org/2000/svg" version="1.1" viewBox="0 0 180 180" fill="#000d13">
  <path fill="inherit" d="M0,13.0002C0,5.8204,5.8203.0001,13,.0001h154c7.18,0,13,5.8203,13,13v153.9997c0,7.18-5.82,13-13,13H13c-7.1797,0-13-5.82-13-13V13.0002Z"/>
  <g>
    <path fill="#a80c30" d="M47.9375,43.9924h15.0311v36.0515h-15.0311v-36.0515ZM64.7812,80.0438h16.2007v-36.0515h-16.2007v36.0515ZM29.9219,80.0438h16.2006v-36.0515h-16.2006v36.0515ZM82.8047,80.0438h15.0311v-36.0515h-15.0311v36.0515ZM135.039,43.9924v36.0515h15.031v-36.0515h-15.031ZM99.6172,80.0438h15.5718v-36.0515h-15.5718v36.0515ZM117.023,80.0438h16.201v-36.0515h-16.201v36.0515Z"/>
    <path fill="#fff" d="M40.0046,58.8651c.0043.0364.0743.2477.0729.2477,0,0-.0816-.1849-.1152-.2228-.6379-.7312-1.5641-1.1216-2.7148-1.1216-2.358,0-5.0098,2.1018-5.0204,6.1275-.0117,4.9549,2.6071,6.882,5.14,6.8719,1.0414-.0044,2.0594-.3773,2.5707-1.0764.0219-.0276.0888-.1848.0888-.1879,0,0-.051.1908-.051.3451-.0029.0175-.0015.0729.0014.718l3.165-.0058.0013-18.1701-3.1374.0029-.0014,6.4715ZM37.6409,68.0543c-1.1491,0-2.275-1.2424-2.2764-3.7826-.0029-2.6669,1.0997-3.8568,2.2764-3.8568,1.1783,0,2.2823,1.222,2.278,3.8568-.0043,2.9218-1.0998,3.7826-2.278,3.7826ZM144.169,52.3907v18.173h-3.169v-18.173h3.169ZM53.8672,57.9064h3.1693v12.6542h-3.1693v-12.6542ZM57.2498,53.4297c0,.9961-.8082,1.8044-1.8046,1.8044s-1.8046-.8081-1.8046-1.8044c0-.9977.8083-1.8046,1.8046-1.8046s1.8046.8067,1.8046,1.8046ZM75.0904,58.8624c.0045.035.0743.2477.0729.2477,0,0-.0815-.1848-.1151-.2227-.6379-.7312-1.5643-1.1216-2.7149-1.1216-2.3582,0-5.0105,2.1015-5.0208,6.1259-.0115,4.9566,2.6076,6.8825,5.1405,6.8722,1.0414-.0029,2.0594-.3758,2.5707-1.0749.0219-.0292.0887-.185.0887-.1879,0,0-.0453.1646-.051.2039-.0029.0249-.003.6235-.003,1.8309,0,1.6036-1.1477,2.2764-2.3347,2.2925-1.0456.0144-1.8847-.5114-2.0449-1.3969l-3.0121.9133c.6422,1.8251,2.5168,2.9669,5.0568,2.999,3.3515.0437,5.181-1.8312,5.3222-5.2189l.0015-13.2208-2.9568.0014v.9569ZM72.7264,68.0516c-1.1768,0-2.275-1.2148-2.2765-3.7841-.0029-2.6654,1.0996-3.8554,2.2765-3.8554,1.1782,0,2.2823,1.2221,2.278,3.8554-.0043,2.9232-1.0995,3.7841-2.278,3.7841ZM88.7344,57.9064h3.1693v12.6542h-3.1693v-12.6542ZM92.1169,53.4297c0,.9961-.8068,1.8044-1.8046,1.8044-.9962,0-1.8045-.8081-1.8045-1.8044,0-.9977.8082-1.8046,1.8045-1.8046.9977,0,1.8046.8067,1.8046,1.8046ZM109.581,68.2131c.587.0248,1.152-.2346,1.412-.4179v2.4208c-.526.3233-1.493.5766-2.374.565-2.264-.0276-3.072-1.4333-3.005-3.5655v-7.3031h-1.591v-2.1513h1.591v-4.7032l3.034-.9249v5.6279h2.235v2.1514h-2.235v7.0148c-.013.9774.294,1.257.933,1.286ZM129.988,68.3748v-7.6204c-.0031-2.8242-2.829-3.4986-4.559-3.4885-1.932.0132-4.208.89-4.883,3.1418l2.638.7995c.128-.823.823-1.5921,2.201-1.595,1.34-.0043,1.846.5288,1.841,1.1784-.006.6583-.404,1.0823-1.026,1.2905-.767.2578-1.408.4254-2.818.7836-2.647.6744-3.472,2.5373-3.451,3.8568.032,1.9736,1.1429,4.1511,3.925,4.1861,1.183.0146,2.727-.5506,3.388-1.442l.065.0015v1.0983h2.932v-.0714c-.316-.3075-.251-1.8499-.253-2.1192ZM127.295,65.3085c-.015,1.7494-.998,3.0384-2.65,3.066-1.351.0218-1.886-.9103-1.879-1.6866.008-.8884.581-1.5292,1.35-1.7347,1.878-.4996,3.087-.8274,3.179-1.0938v1.4491Z"/>
    <path fill="#fff" d="M38.3178,124.1448l-7.6928-22.387h5.9648l3.1104,9.7809c.4907,1.623.9637,3.326,1.4195,5.109.2614,1.0222.5237,2.0844.7866,3.1689.2541-1.0896.5059-2.1552.7535-3.1769.4303-1.778.8813-3.478,1.3522-5.101l2.9901-9.7809h5.8894l-7.4821,22.387h-7.0916ZM61.3698,124.1448h5.2887v-18.06h6.7761v-4.327h-18.8408v4.327h6.776v18.06ZM46.5517,142.7899c-.7713-.465-1.7279-.763-2.8695-.894v-.165c1.2917-.19,2.3457-.699,3.1622-1.525.8167-.826,1.2249-1.86,1.2249-3.1021,0-1.212-.336-2.301-1.0067-3.2679-.6713-.967-1.613-1.73-2.8246-2.291-1.2119-.561-2.6095-.842-4.192-.842-1.6027,0-3.0324.286-4.2895.8571-1.257.571-2.2488,1.364-2.9746,2.381-.7267,1.017-1.0945,2.186-1.1046,3.508h5.0937c0-.531.145-.986.4356-1.367.2903-.38.6811-.678,1.1721-.894.4907-.215,1.0416-.323,1.6525-.323.5811,0,1.0892.108,1.5253.323.4356.216.7761.516,1.0214.902.2454.385.3682.833.3682,1.344,0,.531-.1427.995-.4281,1.39-.2854.396-.6835.709-1.1944.939-.5109.231-1.0967.3459-1.7578.3459h-2.1789v3.786h2.1789c.7611,0,1.4242.118,1.9907.353.5655.236,1.0012.559,1.3068.969.3058.411.4586.887.4586,1.428,0,.54-.1405,1.014-.4207,1.419-.2805.406-.6686.724-1.1645.954-.4959.231-1.0694.346-1.7203.346-.6515,0-1.2345-.105-1.7503-.315-.5161-.211-.924-.506-1.2244-.887-.3007-.381-.4611-.816-.4809-1.307h-5.3186c.0097,1.342.3907,2.526,1.1421,3.553.7509,1.027,1.7802,1.831,3.0874,2.411,1.3073.581,2.8069.872,4.5.872,1.7427,0,3.2847-.283,4.6267-.849,1.3426-.566,2.3916-1.352,3.1479-2.359.7562-1.007,1.1345-2.151,1.1345-3.433,0-.922-.1955-1.745-.5863-2.472-.3907-.726-.9716-1.322-1.7428-1.788ZM59.1549,148.9578l2.7797-2.584c1.6225-1.402,2.8722-2.614,3.7486-3.636.8764-1.022,1.4819-1.946,1.818-2.772.3352-.826.503-1.665.503-2.517,0-1.332-.3406-2.506-1.0214-3.523-.6814-1.016-1.6455-1.808-2.8924-2.374-1.2468-.566-2.7116-.849-4.3946-.849-1.6327,0-3.0649.301-4.2968.902-1.2324.601-2.1918,1.452-2.8775,2.554-.6862,1.102-1.0293,2.409-1.0293,3.921h5.0482c0-.681.1304-1.262.3907-1.743.2603-.48.6259-.846,1.0967-1.096.4709-.251,1.0218-.376,1.653-.376.6211,0,1.1694.12,1.6451.361.4756.24.8515.583,1.1272,1.029.2753.446.4131.979.4131,1.6,0,.571-.1155,1.092-.3458,1.563-.2304.47-.5633.944-.999,1.419-.436.476-.9642.995-1.5851,1.556l-8.1432,7.196v3.802l16.4969-.001v-4.281h-9.1351v-.151ZM89.7954,142.2128c0,2.413-.3709,4.475-1.1121,6.182-.7413,1.708-1.8129,3.018-3.2152,3.929-1.4022.912-3.095,1.367-5.0781,1.367-1.9736,0-3.6587-.456-5.0558-1.367-1.3976-.911-2.4717-2.221-3.2227-3.929-.7514-1.708-1.1271-3.769-1.1271-6.183s.373-4.479,1.1195-6.197c.7462-1.718,1.8203-3.033,3.2227-3.944,1.4023-.912,3.0896-1.368,5.0632-1.368s3.6636.459,5.0707,1.375c1.4072.9171,2.4815,2.231,3.2228,3.944.7412,1.713,1.1121,3.777,1.1121,6.191ZM84.3417,142.2119c0-1.542-.1528-2.847-.4586-3.914s-.751-1.88-1.3371-2.441c-.5858-.561-1.3045-.842-2.156-.842-.8412,0-1.5553.281-2.141.842-.5858.561-1.032,1.375-1.3372,2.441-.3056,1.067-.4585,2.372-.4585,3.914,0,1.533.1506,2.83.451,3.892.3003,1.061.7461,1.868,1.3371,2.419.5906.551,1.3074.826,2.1486.826.8513,0,1.5702-.275,2.156-.826.5863-.551,1.0315-1.358,1.3371-2.419.3056-1.062.4586-2.3589.4586-3.892Z"/>
  </g>
</svg>