 
<svg id="Layer_1" xmlns="http://www.w3.org/2000/svg" version="1.1" viewBox="0 0 180 180" fill="#ffc930">
  <path fill="inherit" d="M90.2148,14.0514c7.1796.0001,13.0002,5.8204,13.0002,13v12.1054h63.785c7.18,0,13,5.8203,13,13v100.7918c0,7.18-5.82,13-13,13H13c-7.1797,0-13-5.82-13-13V27.0514c0-7.1797,5.8203-13,13-13h77.2148Z"/>
  <path fill="#fff" d="M127.78,102.3786c0-20.435-16.096-37.1068-36.301-38.0371-.3091-.0227-.619-.0428-.9335-.0435-.0049,0-.0094-.0015-.0143-.0015-.0018,0-.0035.0005-.0052.0005-.0038,0-.0075-.0005-.0113-.0005-.0966,0-.1904.0113-.2866.0134-.1768-.0024-.3515-.0134-.5289-.0134-20.8929,0-37.8481,16.8275-38.0715,37.6677-.0012.0644-.0105.1266-.0105.1914,0,.0239.0037.0466.0038.0704-.0002.0493-.0037.0979-.0037.1472,0,.0005-.0001.0009-.0001.0013,0,.0003,0,.0005,0,.0008,0,.0011,0,.0021,0,.0032,0,21.032,17.0502,38.081,38.082,38.081.1774,0,.3521-.0109.5289-.0134.0961.0021.1899.0134.2866.0134.3251,0,.645-.0215.9644-.045,20.205-.9301,36.301-17.601,36.301-38.036ZM112.0964,99.8746c-.0913-2.5314-.3199-4.9993-.6745-7.3804.5778.2273,1.1432.46,1.6821.7036,4.5855,2.0725,7.2119,4.4483,8.2716,6.6768h-9.2792ZM107.0928,99.8746h-14.0616v-11.0142c4.7355.2351,9.1428.9092,13.0289,1.913.5549,2.8594.9088,5.9136,1.0327,9.1012ZM93.0312,83.8533v-14.1415c3.1178,1.0065,6.223,3.8776,8.8109,8.6901,1.0985,2.0429,2.0591,4.3764,2.8541,6.9324-3.6324-.7706-7.5482-1.2895-11.665-1.481ZM88.0312,69.7009v14.0927c-4.0327.0619-7.9103.4207-11.5417,1.0384.7637-2.3607,1.6724-4.5207,2.699-6.43,2.5967-4.8293,5.7142-7.7042,8.8427-8.701ZM88.0312,88.7794v11.0952h-14.0941c.1328-3.415.5325-6.6743,1.1572-9.7078,3.9304-.8185,8.2999-1.3121,12.937-1.3874ZM68.9334,99.8746h-11.7599c1.0595-2.2285,3.6855-4.6042,8.2708-6.6768,1.3186-.596,2.7632-1.1417,4.3057-1.6353-.4379,2.6657-.7134,5.4498-.8166,8.3121ZM68.9331,104.8746c.097,2.6988.3502,5.3257.7455,7.8517-1.5155-.4878-2.936-1.0258-4.2343-1.6127-4.2863-1.937-6.8628-4.1393-8.0463-6.239h11.535ZM73.9368,104.8746h14.0944v10.6578c-4.6755-.0759-9.0795-.5765-13.0352-1.4073-.5712-2.9019-.9335-6.0079-1.0592-9.2504ZM88.0312,120.5182v14.5369c-3.1285-.997-6.246-3.8722-8.8427-8.7016-1.0936-2.0336-2.0505-4.3552-2.8436-6.8976,3.6726.6328,7.6002.9996,11.6862,1.0623ZM93.0312,135.0444v-14.5859c4.1725-.1941,8.1384-.7246,11.8117-1.513-.8218,2.7441-1.8345,5.2387-3.0009,7.4081-2.5878,4.8132-5.6931,7.6843-8.8109,8.6908ZM93.0312,115.4513v-10.5768h14.0619c-.117,3.0186-.4429,5.9149-.9483,8.6419-3.9067,1.0159-8.3436,1.6981-13.1136,1.9349ZM112.0967,104.8746h9.0543c-1.1837,2.0997-3.7605,4.3021-8.0471,6.239-.5164.2335-1.0576.4569-1.6099.6755.3157-2.2361.5175-4.5486.6026-6.9145ZM121.1708,92.1802c-1.7575-1.3584-3.8056-2.5442-6.0068-3.5391-1.5037-.6797-3.1431-1.2876-4.8675-1.8388-.9979-3.9951-2.3682-7.6382-4.0515-10.7686-.6499-1.2088-1.36-2.357-2.1218-3.433,8.0419,3.9029,14.2593,10.9688,17.0476,19.5795ZM77.6826,71.5571c-1.062,1.3636-2.0328,2.8671-2.8984,4.4767-1.5737,2.9268-2.8746,6.3014-3.853,9.9929-2.7384.7239-5.2865,1.5931-7.5464,2.6145-1.7456.789-3.3939,1.699-4.8803,2.7179,3.2037-9.0684,10.2466-16.3169,19.1781-19.802ZM58.307,112.814c1.5372,1.0751,3.254,2.0322,5.0778,2.8566,2.2249,1.0056,4.7308,1.8624,7.4203,2.58.9912,3.8794,2.3373,7.4185,3.9791,10.472.8655,1.6096,1.8365,3.1129,2.8985,4.4766-9.122-3.5593-16.272-11.0455-19.3757-20.3852ZM104.1232,132.1553c.7618-1.076,1.4719-2.2241,2.1218-3.4327,1.751-3.2565,3.163-7.0679,4.1693-11.253,1.6797-.5415,3.2809-1.1351,4.7497-1.799,2.28-1.0306,4.3963-2.2657,6.1945-3.686-2.6906,8.8786-9.0097,16.1787-17.2353,20.1708Z"/>
</svg>