 
<svg id="Layer_1" xmlns="http://www.w3.org/2000/svg" version="1.1" viewBox="0 0 180 180" fill="#0daf67">
  <rect fill="none" width="180" height="180"/>
  <path fill="inherit" d="M0,13.0002C0,5.8205,5.8203.0002,13,.0002h154c7.18,0,13,5.8203,13,13v153.9996c0,7.18-5.82,13-13,13H13c-7.1797,0-13-5.82-13-13V13.0002Z"/>
  <path fill="#fff" d="M115.206,29.194c-2.541,0-4.601-2.0596-4.601-4.6003s2.06-4.6004,4.601-4.6004,4.6,2.0597,4.6,4.6004-2.06,4.6003-4.6,4.6003ZM130.209,29.194c2.541,0,4.601-2.0596,4.601-4.6003s-2.06-4.6004-4.601-4.6004-4.6,2.0597-4.6,4.6004,2.06,4.6003,4.6,4.6003ZM145.21,19.9933c-2.54,0-4.6,2.0597-4.6,4.6004s2.06,4.6003,4.6,4.6003,4.601-2.0596,4.601-4.6003-2.06-4.6004-4.601-4.6004ZM124.043,74.711l-.13-.124c-1.374-1.2418-3.495-1.2003-4.819.124-1.325,1.3242-1.366,3.4454-.124,4.8193l.124.1299,20.154,20.1556-20.154,20.156c-1.367,1.367-1.367,3.582,0,4.949,1.366,1.367,3.582,1.367,4.949,0l22.631-22.6299c.656-.656,1.025-1.546,1.025-2.474,0-.9286-.369-1.8195-1.025-2.476l-22.631-22.6299ZM60.907,74.7108c-1.3669-1.3668-3.5834-1.3668-4.9502,0l-22.6299,22.6299c-1.3668,1.3669-1.3669,3.5831,0,4.9501l22.6299,22.6299c1.3668,1.367,3.5833,1.367,4.9502,0,1.3664-1.3669,1.3663-3.582,0-4.949l-20.1562-20.156,20.1562-20.1557c1.3664-1.3668,1.3664-3.5825,0-4.9493ZM102.561,74.8621c-1.699-.7866-3.7039-.0953-4.5662,1.543l-.0801.1621-20.7919,44.8956c-.8124,1.754-.049,3.834,1.705,4.646,1.7541.813,3.8342.049,4.6465-1.705l20.7917-44.8952.073-.165c.692-1.7175-.079-3.6945-1.778-4.4815Z"/>
</svg>