 
<svg id="Layer_1" xmlns="http://www.w3.org/2000/svg" version="1.1" viewBox="0 0 180 180" fill="#0aa9ff">
  <path fill="inherit" d="M0,13.0002C0,5.8205,5.8203.0002,13,.0002h154c7.18,0,13,5.8203,13,13v153.9996c0,7.18-5.82,13-13,13H13c-7.1797,0-13-5.82-13-13V13.0002Z"/>
  <g>
    <path fill="#fff" d="M113.593,29.3121c2.541,0,4.601-2.0596,4.601-4.6002s-2.06-4.6004-4.601-4.6004-4.6,2.0597-4.6,4.6004,2.06,4.6002,4.6,4.6002Z"/>
    <path fill="#fff" d="M128.594,29.3121c2.541,0,4.601-2.0596,4.601-4.6002s-2.0601-4.6004-4.601-4.6004-4.6,2.0597-4.6,4.6004,2.06,4.6002,4.6,4.6002Z"/>
    <path fill="#fff" d="M143.597,20.1115c-2.54,0-4.6,2.0597-4.6,4.6004s2.0601,4.6002,4.6,4.6002,4.601-2.0596,4.601-4.6002-2.06-4.6004-4.601-4.6004Z"/>
    <path fill="#fff" d="M92.4649,49.1546c-.4307-.0317-.8621-.0607-1.3008-.0607-.0002,0-.0004,0-.0007,0-.0001,0-.0002,0-.0003,0-.0003,0-.0005,0-.0009,0-.1299,0-.256.0152-.3852.018-.2387-.0033-.4745-.0181-.7141-.0181-27.8937.0001-50.53,22.465-50.8298,50.2878-.0016.0865-.014.1701-.014.2571,0,.032.0049.0626.0052.0945-.0002.0676-.0051.1341-.0051.2018,0,.0002,0,.0004,0,.0007,0,.0001,0,.0003,0,.0004,0,.0005,0,.001,0,.0016,0,28.08,22.7636,50.844,50.8438,50.844.2395,0,.4753-.0148.7141-.0181.1298.0028.2565.0181.387.0181.4372,0,.8671-.0291,1.2963-.0606,26.9663-1.2524,48.4466-23.5075,48.4466-50.7834s-21.4778-49.5286-48.4421-50.7832ZM131.5884,85.8731c-2.2486-1.6722-4.8282-3.1341-7.5714-4.3739-1.9805-.8952-4.1232-1.7057-6.3898-2.4338-1.3286-5.2872-3.148-10.1111-5.3802-14.2625-.7532-1.401-1.572-2.7368-2.4399-4.0086,10.1817,5.1461,18.0778,14.1418,21.7813,25.0788ZM120.0459,96.4357c-.1216-3.2106-.4069-6.3456-.8469-9.3759.6623.2652,1.3122.5358,1.935.8173,5.9258,2.6782,9.339,5.7184,10.7949,8.5586h-11.883ZM113.0407,96.4357h-18.3776v-14.3039c6.1861.3181,11.9459,1.199,17.033,2.5054.7148,3.7113,1.1754,7.6689,1.3446,11.7985ZM94.6631,75.121v-18.4147c4.021,1.3795,8.0416,5.1332,11.4179,11.4119,1.4127,2.6271,2.6546,5.617,3.6909,8.8889-4.7123-.9822-9.7936-1.6308-15.1088-1.8861ZM87.6631,56.7067v18.3095c-5.1913.0878-10.2006.5416-14.8961,1.3228.9922-3.0122,2.1628-5.7725,3.4791-8.2207,3.3757-6.2781,7.3962-10.0318,11.417-11.4116ZM87.6631,82.0163v14.4194h-18.3768c.1816-4.431.7008-8.662,1.5067-12.6055,5.1331-1.0601,10.8275-1.7047,16.8701-1.8138ZM62.2812,96.4357h-15.2138c1.456-2.8402,4.8691-5.8804,10.7944-8.5586,1.6769-.7579,3.5083-1.4545,5.4602-2.0883-.5505,3.4215-.9021,6.9853-1.0408,10.6469ZM62.281,103.4358c.1301,3.4401.4504,6.7921.9451,10.0226-1.9159-.6256-3.7147-1.312-5.3643-2.0576-5.5141-2.4923-8.8528-5.2983-10.4644-7.965h14.8836ZM69.2862,103.4358h18.377v13.826c-6.0929-.11-11.8323-.7644-16.9987-1.8403-.735-3.765-1.2064-7.7874-1.3783-11.9857ZM87.6631,124.2618v18.907c-4.0208-1.3798-8.0413-5.1336-11.417-11.4121-1.4075-2.6177-2.6458-5.5956-3.6799-8.8537,4.754.8019,9.8309,1.2697,15.0969,1.3588ZM94.6631,143.169v-19.0119c5.389-.2589,10.5387-.9212,15.3058-1.9265-1.0741,3.522-2.3842,6.7298-3.8879,9.5262-3.3763,6.2786-7.3969,10.0324-11.4179,11.4122ZM94.6631,117.1462v-13.7104h18.3778c-.1597,3.9004-.582,7.6445-1.2307,11.1754-5.1151,1.3226-10.9147,2.2145-17.1472,2.535ZM120.046,103.4358h11.5526c-1.6118,2.6667-4.9507,5.4727-10.4647,7.965-.5933.2681-1.2106.5266-1.8398.78.3895-2.8328.6389-5.758.7518-8.7451ZM73.5865,59.307c-1.2762,1.6949-2.4522,3.5353-3.5064,5.4959-2.0828,3.8735-3.8057,8.3335-5.1069,13.2076-3.6315.9629-6.993,2.1321-9.9942,3.4886-2.1567.9748-4.2125,2.0869-6.0861,3.3302,4.2578-11.5989,13.2814-20.8896,24.6937-25.5224ZM48.6264,114.2645c1.9454,1.3168,4.0916,2.4922,6.3525,3.5143,2.9537,1.3349,6.2557,2.4893,9.8212,3.4435,1.3192,5.127,3.1055,9.8062,5.2799,13.8505,1.0543,1.9606,2.2302,3.801,3.5066,5.496-11.6661-4.7358-20.8254-14.3444-24.9603-26.3043ZM109.807,139.0813c.8679-1.2719,1.6866-2.6075,2.4399-4.0085,2.3229-4.3203,4.1973-9.3699,5.5378-14.9111,2.208-.7151,4.2975-1.5085,6.2322-2.3829,2.8582-1.292,5.533-2.8283,7.8464-4.5891-3.581,11.3049-11.6224,20.6179-22.0563,25.8915Z"/>
  </g>
</svg>