 
<svg id="Layer_1" xmlns="http://www.w3.org/2000/svg" version="1.1" viewBox="0 0 180 180" fill="#a397f1">
  <path fill="inherit" d="M90.0003,180.0002c49.3311,0,89.3211-40.294,89.3211-90.0003S139.3314-.0002,90.0003-.0002.6787,40.2942.6787,89.9999s39.9908,90.0003,89.3216,90.0003Z"/>
  <path fill="#fff" d="M155.0833,89.9998c0-34.9009-27.4731-63.38-61.9722-65.0044-.5543-.0427-1.1104-.0779-1.6744-.0782-.0015,0-.0027-.0004-.0042-.0004-.0005,0-.001.0002-.0015.0002-.0011,0-.0023-.0002-.0034-.0002-.1688,0-.3331.0196-.5011.0234-.3098-.0043-.6158-.0234-.9266-.0234-35.7053,0-64.681,28.756-65.065,64.3703-.0022.1103-.018.2172-.018.328,0,.041.0063.0804.0067.1213-.0004.0861-.0065.1707-.0065.2568,0,.0005-.0002.0011-.0002.0016,0,.0004.0001.0006.0001.001,0,.0013-.0001.0026-.0001.004,0,35.9444,29.1386,65.0834,65.083,65.0834.3109,0,.6169-.0191.9268-.0234.1679.0038.3322.0234.5009.0234.5681,0,1.128-.0356,1.6862-.0787,34.4979-1.6257,61.9695-30.1046,61.9695-65.0046ZM127.987,86.4948c-.1504-5.1331-.6318-10.1162-1.4056-14.8818,1.4889.5513,2.9152,1.1327,4.2679,1.7441,8.7342,3.9479,13.6581,8.6436,15.2158,13.1377h-18.0781ZM120.982,86.4948h-26.0495v-20.7579c8.788.3768,16.9604,1.621,24.1121,3.5123,1.0777,5.3964,1.7489,11.1881,1.9374,17.2455ZM94.9325,58.7332v-26.3718c6.062,1.4839,12.009,6.7891,16.8268,15.7498,2.1187,3.9396,3.9496,8.4755,5.4127,13.4741-6.8409-1.5436-14.3448-2.5306-22.2395-2.8521ZM87.9325,32.3592v26.2681c-7.714.0734-15.1143.7783-21.9584,2.0212,1.4136-4.626,3.1385-8.8476,5.1226-12.5374,4.8206-8.9653,10.7709-14.2712,16.8359-15.752ZM87.9325,65.6274v20.8675h-26.0579c.2014-6.4693.9591-12.6299,2.1685-18.3351,7.225-1.5427,15.3101-2.4466,23.8894-2.5324ZM54.8697,86.4948h-22.4045c1.5576-4.4941,6.4811-9.1898,15.2154-13.1377,2.6866-1.2143,5.6566-2.3134,8.8594-3.2797-.9277,5.2274-1.5037,10.7291-1.6703,16.4174ZM54.8692,93.4948c.1577,5.3961.6783,10.6286,1.5229,15.6147-3.1472-.9556-6.0658-2.0407-8.7116-3.2364-8.2435-3.7262-13.0839-8.1182-14.9126-12.3783h22.1013ZM61.8743,93.4948h26.0582v20.1071c-8.6462-.0865-16.7921-1.0025-24.06-2.567-1.1121-5.4807-1.8068-11.3713-1.9982-17.5401ZM87.9325,120.602v27.0384c-6.0651-1.4814-12.0153-6.7878-16.8359-15.7532-2.1008-3.9068-3.9173-8.4016-5.3741-13.3508,6.914,1.2711,14.4019,1.9914,22.21,2.0656ZM94.9325,147.6385v-27.1424c7.9827-.325,15.5649-1.3311,22.467-2.9042-1.4999,5.321-3.4073,10.1428-5.6401,14.2952-4.8179,8.9614-10.7648,14.2672-16.8268,15.7513ZM94.9325,113.4923v-19.9974h26.0499c-.1788,5.7601-.7968,11.2773-1.7833,16.4454-7.188,1.914-15.4156,3.1725-24.2666,3.552ZM127.9875,93.4948h17.7749c-1.8288,4.2601-6.6696,8.6521-14.913,12.3783-1.3157.5946-2.699,1.1619-4.1437,1.6997.699-4.5225,1.1403-9.2318,1.2819-14.078ZM146.0411,74.7317c-3.3535-3.0215-7.5965-5.6239-12.3077-7.7535-2.703-1.2217-5.6417-2.3243-8.7656-3.3047-1.7201-7.0219-4.1049-13.4125-7.0434-18.8769-1.6514-3.0712-3.5163-5.8995-5.5627-8.4128,16.386,6.8422,28.9573,20.9766,33.6794,38.3478ZM71.8065,34.8399c-2.5704,2.8713-4.8765,6.2402-6.8749,9.9568-2.7533,5.1206-5.0275,11.0479-6.7182,17.5514-4.8938,1.2662-9.4094,2.8195-13.4156,4.6302-3.8505,1.7404-7.3827,3.7999-10.3807,6.1411,5.4779-18.06,19.5141-32.3864,37.3894-38.2795ZM34.136,105.8906c3.0562,2.4332,6.6908,4.5665,10.6617,6.3616,3.9509,1.7857,8.3977,3.3207,13.2134,4.5772,1.7102,6.8245,4.0523,13.0397,6.9204,18.3738,1.9985,3.7167,4.3049,7.0858,6.8754,9.9571-18.1997-6-32.4114-20.7461-37.671-39.2697ZM112.3615,143.6161c2.0464-2.5134,3.9114-5.3417,5.5628-8.4129,3.0548-5.6807,5.5139-12.3597,7.2464-19.7118,3.0474-.9643,5.9186-2.0441,8.5626-3.2392,4.837-2.1867,9.1874-4.8683,12.5807-7.9938-4.5018,17.834-17.2491,32.3829-33.9526,39.3577Z"/>
</svg>